/* XPM */
static const char * clearwindow_xpm[] = {
"32 32 23 1",
" 	c None",
".	c #6B5408",
"+	c #8E771C",
"@	c #B7A875",
"#	c #DDC758",
"$	c #FFEC63",
"%	c #BFAD54",
"&	c #0A04CE",
"*	c #FFFFFF",
"=	c #000000",
"-	c #C9C9C9",
";	c #6B6B6B",
">	c #0061FF",
",	c #4C88FF",
"'	c #96C0FF",
")	c #AFCEFF",
"!	c #FF0000",
"~	c #FF9400",
"{	c #FFFF00",
"]	c #3FFF00",
"^	c #00FFD0",
"/	c #0015FF",
"(	c #FF00FF",
"                    .++@        ",
"  =================..+@@======  ",
"  =--;&&&&&&&&&&&&&.++@;--;--=  ",
"  =--;>>>>>>>>>>>>.++@@;--;--=  ",
"  =--;,,,,,,,,,,,..++@,;--;--=  ",
"  =--;'''''''''''.++@@';--;--=  ",
"  =--=))))))))))..++@))=--=--=  ",
"  ==============.++@@=========  ",
"  =;;;;;;;;;;;;..+@@;;;;;;;;;=  ",
"  =;***********.++@*********;=  ",
"  =;*********##++@@*********;=  ",
"  =;*******##$%#+@#*********;=  ",
"  =;******#&$%%$%%#*********;=  ",
"  =;*****#$%&%%%$%$*********;=  ",
"  =;****#$%%$&&%$%$!!*******;=  ",
"  =;***#$$%$$%$&&&$*!!!*****;=  ",
"  =;**##$%%$%%$%$%&*!!!!!***;=  ",
"  =;*##$#%$$%$$%$%$**!!!!!**;=  ",
"  =;**$$%%$%%$%%$%$**~~!!!!*;=  ",
"  =;***$%$$%$$%$$%***{{~!!!*;=  ",
"  =;*****$%#$#%$#%**{{{{~!!*;=  ",
"  =;*******$$%$$%$**]{{{{~~*;=  ",
"  =;*~*******$$#%***]]]{{{~*;=  ",
"  =;*{]********$$**^^]]]{{{*;=  ",
"  =;*]]^^********///^^^]]]]*;=  ",
"  =;*]^^^/////(((((///^^^]]*;=  ",
"  =;*]^^////((((((((////^^]*;=  ",
"  =;************************;=  ",
"  =;;;;;;;;;;;;;;;;;;;;;;;;;;=  ",
"  ============================  ",
"                                ",
"                                "};
