/* XPM */
static const char * fontDown_xpm[] = {
"30 30 12 1",
"; 	c None",
".	c #041A1A",
"+	c #1D2C2C",
"@	c #0F5959",
"#	c #033A3A",
"$	c #515353",
"%	c #037272",
"&	c #2F9797",
"*	c #696969",
"=	c #02F5F5",
"-	c #4FBCBC",
">	c #0CCBCB",
";;;;;;;;;;;;;;;;;;;;;;;;;;;;;;",
";;;;;;;;;;;;;;;;;;;;;;;;;;;;;;",
";;;;;;;;;;;;;;;;;;;;;;;;;;;;;;",
";;;;;;;;;;;;;;;;;;;;;;;;;;;;;;",
";;;;;;;;;;;;;;;;;;;;;;;;;;;;;;",
";;;;;;;;;;;;;;;;;;;;;;;;;;;;;;",
";;;;;;;;;;;;;;;;;;;;;;;;;;;;;;",
";;;;;;;;;;;==-;;=====%*;;;;;;;",
";;;;;;;;;;-==>+;;====.$;;;;;;;",
";;;;;;;;;;====@*;;==.*;;;;;;;;",
";;;;;;;;;-====&$;;;*$;;;;;;;;;",
";;;;;;;;;-=%+==+*;;;;;;;;;;;;;",
";;;;;;;;;==.+==@*;;;;;;;;;;;;;",
";;;;;;;;-==.*-=&+;;;;;;;;;;;;;",
";;;;;;;;-=@+;;=>#*;;;;;;;;;;;;",
";;;;;;;;==.$;;==%$;;;;;;;;;;;;",
";;;;;;;-==%---==>+;;;;;;;;;;;;",
";;;;;;;==========+*;;;;;;;;;;;",
";;;;;;;==#@@@@@>=%$;;;;;;;;;;;",
";;;;;;-=&.*;;;;-=>+;;;;;;;;;;;",
";;;;;;==@+;;;;;;==#*;;;;;;;;;;",
";;;;;;=>.$;;;;;;-=%$;;;;;;;;;;",
";;;;;;=%.;;;;;;;;=&+;;;;;;;;;;",
";;;;;;;**;;;;;;;;;**;;;;;;;;;;",
";;;;;;;;;;;;;;;;;;;;;;;;;;;;;;",
";;;;;;;;;;;;;;;;;;;;;;;;;;;;;;",
";;;;;;;;;;;;;;;;;;;;;;;;;;;;;;",
";;;;;;;;;;;;;;;;;;;;;;;;;;;;;;",
";;;;;;;;;;;;;;;;;;;;;;;;;;;;;;",
";;;;;;;;;;;;;;;;;;;;;;;;;;;;;;"};
