/* XPM */
static const char * layout2x3_xpm[] = {
"13 13 3 1",
".	c #000000",
"+	c None",
"#	c #ffffff",
"+++++++++++++",
"+++++++++++++",
".............",
".###.###.###.",
".###.###.###.",
".###.###.###.",
".............",
".###.###.###.",
".###.###.###.",
".###.###.###.",
".............",
"+++++++++++++",
"+++++++++++++"};
