/* XPM */
static const char * leftdesk_xpm[] = {
"116 94 25 1",
".	c #1E1A22",
"+	c None",
"@	c #A0A0A1",
"#	c #959597",
"$	c #E4E4E4",
"%	c #D2D2D1",
"&	c #858586",
"*	c #C8C8C8",
"=	c #74747B",
"-	c #64646E",
";	c #3B4ADD",
">	c #565774",
",	c #3C40C6",
"'	c #484851",
")	c #BBBBBB",
"!	c #3737B4",
"~	c #3D3D4C",
"{	c #4F64E1",
"]	c #2C2C99",
"^	c #BACEEA",
"/	c #F8F8F8",
"(	c #ACACAD",
"_	c #363640",
":	c #5A63CB",
"<	c #5D74E3",
"++++++++++++++++++++++++++++++++++++++++++++++++++++++++++++++++++++++++++++++++++++++++++++++++++++++++++++++++++++",
"++++++++++++++++++++++++++++++++++++++++++++++++++++++++++++++++++++++++++++++++++++++++++++++++++++++++++++++++++++",
"++++++++++++++++++++++++++++++++++++++++++++++++++++++++++++++++++++++++++++++++++++++++++++++++++++++++++++++++++++",
"++++++++++++++++++++++++++++++++++++++++++++++++++++++++++++++++++++++++++++++++++++++++++++++++++++++++++++++++++++",
"++++++++++++++++++++++++++++++++++++++++++++++++++++++++++++++++++++++++++++++++++++++++++++++++++++++++++++++++++++",
"++++++++++++++++++++++++++++++++++++++++++++++++++++++++++++++++++++++++++++++++++++++++++++++++++++++++++++++++++++",
"++++++++++++++++++++++++++++++++++++++++++++++++++++++++++++++++++++++++++++++++++++++++++++++++++++++++++++++++++++",
"++++++++++++++++++++++++++++++++++++++++++++++++++++++++++++++++++++++++++++++++++++++++++++++++++++++++++++++++++++",
"++++++++++++++++++++++++++++++++++++++++++++++++++++++++++++++++++++++++++++++++++++++++++++++++++++++++++++++++++++",
"++++++++++++++++++++++++++++++++++++++++++++++++++++++++++++++++++++++++++++++++++++++++++++++++++++++++++++++++++++",
"++++++++++++++++++++++++++++++++++++++++++++++++++++++++++++++++++++++(((())++++++++++++++++++++++++++++++++++++++++",
"+++++++++++++++++++++++++++++++++++++++++++++++++++++++++++++++++++)#&&###&&@((()+++++++++++++++++++++++++++++++++++",
"++++++++++++++++++++++++++++++++++++++++++++++++++++++++++++++++)@&&&##&#@=>'>==&&#((+++++++++++++++++++++++++++++++",
"+++++++++++++++++++++++++++++++++++++++++++++++++++++(()())))))*@=&&&&&####&-~~''~=##@++++++++++++++++++++++++++++++",
"++++++++++++++++++++++++@))))))()))))))))))))()))()()))))))))(()(=&&&&&&&##@@&->->=#&@++++++++++++++++++++++++++++++",
"+++++++++++++++++++++++(=)))))))))))))))))()*)))))))))(((((()((((=&&&&&#&#&==#@@@@@@@(++++++++++++++++++++++++++++++",
"++++++++++++++++++++++++-))))())()))))))))))))))))))))))))()(((()&&&&&&##@##=->--==&&@++++++++++++++++++++++++++++++",
"++++++++++++++++++++++++>)()())())))(((@@(##(@&&======----=@&>(()=&&&&&&&##@##&===-=&@++++++++++++++++++++++++++++++",
"++++++++++++++++++++++++-()()@&-==-==-&----=-=->'>''>>>---=-__(()&=&&&&#&#&#####&####@++++++++++++++++++++++++++++++",
"++++++++++++++++++++++++-@())@@#@@@#(((())***%%*%^%*%*%%%%%@>'(((#=&&&&&&@###########@++++++++++++++++++++++++++++++",
"++++++++++++++++++++++++&@)()()))***)*)((*((*(()(@)%$%$/$*(*(-@((@=&&&&#&###########@@++++++++++++++++++++++++++++++",
"++++++++++++++++++++++++#&)()(*((******))%))%*)%%*)****))))()-@(@@=&&#&#&####@##@###@@++++++++++++++++++++++++++++++",
"++++++++++++++++++++++++@&)())))@(####@@@#@####&======-->>--#=&)((&&&&&&&##@###@#@@#@@++++++++++++++++++++++++++++++",
"++++++++++++++++++++++++@=)())(]]],!]]!{{{:{:{{;>{{{{{{(^^)(=#=(@@&&&&&#&#&@###@##@#@@++++++++++++++++++++++++++++++",
"++++++++++++++++++++++++(=(()()!]{&&!];{::;;::::{<<<<{{{;;{{'@-((@&&&#&#&####@#@@#@@#(++++++++++++++++++++++++++++++",
"++++++++++++++++++++++++@=(((();]]]!]]!;{;:;:;,,,!,!!!!]!]]]_(>((@&&&&#####@@########@++++++++++++++++++++++++++++++",
"+++++++++++++++++++++++++&@(((({!,!!!!;;;>,,;;;;,!]!!!''>--==('((@#&&#&#&#&@####@####@++++++++++++++++++++++++++++++",
"+++++++++++++++++++++++++&#((((<!,;{{;!!{:<::{{;;!;!!{#&&&&=@@-#(@#=&&######@@##@##@#@++++++++++++++++++++++++++++++",
"+++++++++++++++++++++++++&#(@)(#!!;(##;!{{{;;{;!!;!!!>#&##((#&&&(@@=#&&#&######@#@#@#@++++++++++++++++++++++++++++++",
"+++++++++++++++++++++++++#&@@(@(];>^##<!;;;>{{{{{{;;],<&<:=>~-(=(@@=&#&#&#&&&=&&&=&&&#++++++++++++++++++++++++++++++",
"+++++++++++++++++++++++++(=(((@(!!]@)@=];{{;{;;{;,,]],~]-_]:=-)>(@@&&&#####&###&###&##++++++++++++++++++++++++++++++",
"++++++++++++++++++++++++++=@@@(('!,=&##,,{;;,~!]_]_@@-==&=#%*#)-@@@&&&#####@#########@++++++++++++++++++++++++++++++",
"++++++++++++++++++++++++++=@@@(#>]>@((&_,!,_-&==&&^==*())**&')%-#@@&&###&@@&==&##&#&##++++++++++++++++++++++++++++++",
"++++++++++++++++++++++++++=@@@(#<!.....]!!!]#^^%^%$~.%$/$/$#>)$=#@@&&&##&#&@#&########++++++++++++++++++++++++++++++",
"++++++++++++++++++++++++++&#(@(@#],,,;;;{{{')$$$$%/(&/$%%%%$%//&&@@&&####@@#@((@@@(#@@++++++++++++++++++++++++++++++",
"++++++++++++++++++++++++++&#@@(@(,::::>,!,>>(/%$%*$/$$/$$$$$%%%@&@@&&&####@#@#@#@##@#@++++++++++++++++++++++++++++++",
"++++++++++++++++++++++++++@&@@@#(-##()))$%$$$/$/$$$$$%%)(@&&=-=@&@##&####@#@@@@@@@###@++++++++++++++++++++++++++++++",
"++++++++++++++++++++++++++)&@@@#*%$//$$$$$$$/*((#=-->-&#@##@)%$$=(##=####@#@#@@(-=@#@(++++++++++++++++++++++++++++++",
"++++++++++++++++++++++++++)=@#@&)/$%%)***%%$/#&##@)*%$$$$%/////$=@@#&&###@@@@@#@&#(@@@++++++++++++++++++++++++++++++",
"++++++++++++++++++++++++++)=@###(///$//////////%%%*%$$//%)$/////=@@#&&###@#@@@@@(@#(@(++++++++++++++++++++++++++++++",
"+++++++++++++++++++++++++++&#@@@($*$$$$/$%%%$//%$$$/////$*%/////=@##&&###@@@@(@@#&#&&@++++++++++++++++++++++++++++++",
"+++++++++++++++++++++++++++####@&/$$%%*%**////////$////$$**)*)(@&#@##&###@@@@@(@@@@(((++++++++++++++++++++++++++++++",
"+++++++++++++++++++++++++++@#@#@=$/$%%%)*%/////%)))*)*)(@#='-====)(#&&##@@@@(@(@(((@@(++++++++++++++++++++++++++++++",
"+++++++++++++++++++++++++++#&@#@-$/$$$$$/$$$**))(@#&==-=#())*%%**))#&&##@@@(@((((@((((++++++++++++++++++++++++++++++",
"+++++++++++++++++++++++++++(=@##=%$$%%%)@#=&&&&&#@(**$%%**)((@@####&&&#@@@(@@((@@(((((++++++++++++++++++++++++++++++",
"+++++++++++++++++++++++++++)&@#@&@@#==&#()**%%%$*)))((@(@###&&#&&=&===##@@((((@(((@##@++++++++++++++++++++++++++++++",
"++++++++++++++++++++++++++++&####@()***))((@@@@@@@@##&&&&&&=========&&#@@@@@((((##@(()++++++++++++++++++++++++++++++",
"++++++++++++++++++++++++++++&&###@@#&#&&&======&&&=&&==&===&=---->--=&###(@((()()))(()++++++++++++++++++++++++++++++",
"++++++++++++++++++++++++++++&&##&#&#&#&&&&#&&&&=&=&&&@&--->>------==&&@@@(((((((((()))++++++++++++++++++++++++++++++",
"++++++++++++++++++++++++++++#&#############&&==--&++++&>-------===&&&#@@@((((((()(()()++++++++++++++++++++++++++++++",
"++++++++++++++++++++++++++++@&&######&&&--''''~'~=++++@====&&&&#&&&##@@@@@(()))())(@#(++++++++++++++++++++++++++++++",
"++++++++++++++++++++++++++++)(((@)+++#=-~''~~~~~~-++++++@&&&&#&##@#@@@@(((((((((@#@())++++++++++++++++++++++++++++++",
"+++++++++++++++++++++++++++++++++++++&=-__~_____~-++++++++)@###@@@@@@@(@((@()(()()))))++++++++++++++++++++++++++++++",
"+++++++++++++++++++++++++++++++++++++#=-~~_______~#(((+++++++()@#(@@((@((()(()())))())++++++++++++++++++++++++++++++",
"+++++++++++++++++++++++++++++++++++++#--_________~==&#@+++++++++(@(@((@@(()(((()())()+++++++++++++++++++++++++++++++",
"+++++++++++++++++++++++++++++++++++++&>>____._.___----==+++++++++((#@@()*)*^))(()))+++++++++++++++++++++++++++++++++",
"+++++++++++++++++++++++++++++++++++@#=-'_._._____'>>->-'=)++++++@()(()****%*)))+++++++++++++++++++++++++++++++++++++",
"+++++++++++++++++++++++++++++++++++&==->'~~_____~~'>>'>'-'))(()))(((%%**)(@@())(++++++++++++++++++++++++++++++++++++",
"+++++++++++++++++++++++++++++++++++@==>-''''~~~'~'>''''-=&#(()((@())))*@(()()))(#(++++++++++++++++++++++++++++++++++",
"+++++++++++++++++++++++++++++++++++@=->''''~'~___'-=#()*)))()()())((()%*)@*)(((@)^(+++++++++++++++++++++++++++++++++",
"++++++++++++++++++++++++++++++++++++@>'''___~>=#))**))(()(())()*)()))(@%%%(((((((#&#(+++++++++++++++++++++++++++++++",
"+++++++++++++++++++++++++++++++++++++-'''-#(%%))((@((***((()*)))$%()*%%$%%%(@)#&#@()((++++++++++++++++++++++++++++++",
"+++++++++++++++++++++++++++++++++++++(@$%$%$$%)))***))()***(())*)*%$$*(#*)@*^#@)^))))^(+++++++++++++++++++++++++++++",
"++++++++++++++++++++++++++++++++++++$$)(##($%$$%$)()*)())))))))(@#)$$*(###((*)*)%^*^*))(++++++++++++++++++++++++++++",
"+++++++++++++++++++++++++++++++++()(#@()$%*)%$%$%()(()*)))()((((***#(%@()*)*%%%%***)*^(#++++++++++++++++++++++++++++",
"++++++++++++++++++++++++++++++$&@#@)%%%(@#)(%%$%$$)*)@((@@(*))%)(##()%**%%%$*%*%%*%*(@@)++++++++++++++++++++++++++++",
"+++++++++++++++++++++++++++(&#$(*%))@##))@)*$*%$$%$%*%*(*%)))@##@()))**%***%*%***)(@@+++++++++++++++++++++++++++++++",
"++++++++++++++++++++++++(^)$$))(@#()@*)@(%#()$)$$%$%$$$$%(@##(())***%**%*%**%%*(@@((++++++++++++++++++++++++++++++++",
"++++++++++++++++++++++++)@)#@((@$(@@(#*)@#()#@&)$$%$$%)@&#@)))*%%%%*%*******)@#((+++++++++++++++++++++++++++++++++++",
"++++++++++++++++++++++++)($#**)#&))()(@&(@##)%$$$$*(###()*)**%*%**********(@@(++++++++++++++++++++++++++++++++++++++",
"+++++++++++++++++++++++++@)(()**(@@)##@()%#*$$*(&=@()())))**%*******)***)#@(++++++++++++++++++++++++++++++++++++++++",
"+++++++++++++++++++++++++()$@(@))(##*(($%)#&===@)%*)**%%*%***%*******))#&(++++++++++++++++++++++++++++++++++++++++++",
"+++++++++++++++++++++++++)))&@#@(&$$%)##&=#())*)*%$%%%**%%*%*****)))*(#((+++++++++++++++++++++++++++++++++++++++++++",
"++++++++++++++++++++++++++#$((%$*##=&&#@)**))%$/$$$$$%%%%%*%***))**)@#)+++++++++++++++++++++++++++++++++++++++++++++",
"++++++++++++++++++++++++++@**@@&&##@())***%$$//$$$$$%$%%%%*****)**(#@+++++++++++++++++++++++++++++++++++++++++++++++",
"++++++++++++++++++++++++++)(%##))*)))*%$$$$//$//$$$$%$%%%***))*)(@&+++++++++++++++++++++++++++++++++++++++++++++++++",
"+++++++++++++++++++++++++++&**))*)%%$$$$$$$/////$$$$%%%**)*)*)(##@++++++++++++++++++++++++++++++++++++++++++++++++++",
"+++++++++++++++++++++++++++@#**%%$$$%$$$//////$/$$%$%%***)*)@#&(++++++++++++++++++++++++++++++++++++++++++++++++++++",
"++++++++++++++++++++++++++++&*%%$%%$$/////$//$$%$%%%%**)(@##@)++++++++++++++++++++++++++++++++++++++++++++++++++++++",
"++++++++++++++++++++++++++++((%%$%$$$$$////$$%$%%$%*)(##&((+++++++++++++++++++++++++++++++++++++++++++++++++++++++++",
"+++++++++++++++++++++++++++++@$%%$$$$$/$/$$$%%**(@####)+++++++++++++++++++++++++++++++++++++++++++++++++++++++++++++",
"+++++++++++++++++++++++++++++(@%*%%%***)((@##&&&#(()++++++++++++++++++++++++++++++++++++++++++++++++++++++++++++++++",
"++++++++++++++++++++++++++++++##&##&#&&&#)++++++++++++++++++++++++++++++++++++++++++++++++++++++++++++++++++++++++++",
"++++++++++++++++++++++++++++++++++++++++++++++++++++++++++++++++++++++++++++++++++++++++++++++++++++++++++++++++++++",
"++++++++++++++++++++++++++++++++++++++++++++++++++++++++++++++++++++++++++++++++++++++++++++++++++++++++++++++++++++",
"++++++++++++++++++++++++++++++++++++++++++++++++++++++++++++++++++++++++++++++++++++++++++++++++++++++++++++++++++++",
"++++++++++++++++++++++++++++++++++++++++++++++++++++++++++++++++++++++++++++++++++++++++++++++++++++++++++++++++++++",
"++++++++++++++++++++++++++++++++++++++++++++++++++++++++++++++++++++++++++++++++++++++++++++++++++++++++++++++++++++",
"++++++++++++++++++++++++++++++++++++++++++++++++++++++++++++++++++++++++++++++++++++++++++++++++++++++++++++++++++++",
"++++++++++++++++++++++++++++++++++++++++++++++++++++++++++++++++++++++++++++++++++++++++++++++++++++++++++++++++++++",
"++++++++++++++++++++++++++++++++++++++++++++++++++++++++++++++++++++++++++++++++++++++++++++++++++++++++++++++++++++",
"++++++++++++++++++++++++++++++++++++++++++++++++++++++++++++++++++++++++++++++++++++++++++++++++++++++++++++++++++++",
"++++++++++++++++++++++++++++++++++++++++++++++++++++++++++++++++++++++++++++++++++++++++++++++++++++++++++++++++++++",
"++++++++++++++++++++++++++++++++++++++++++++++++++++++++++++++++++++++++++++++++++++++++++++++++++++++++++++++++++++"};
