/* XPM */
static const char * ms_rl_wipe_xpm[] = {
"32 32 217 2",
"  	c None",
". 	c #FF0000",
"+ 	c #FE0000",
"@ 	c #F70303",
"# 	c #F10606",
"$ 	c #EA0909",
"% 	c #E30D0D",
"& 	c #DC1010",
"* 	c #D61313",
"= 	c #CF1717",
"- 	c #C81A1A",
"; 	c #C11D1D",
"> 	c #BB2020",
", 	c #B42424",
"' 	c #AD2727",
") 	c #855720",
"! 	c #13E50D",
"~ 	c #16D444",
"{ 	c #23B275",
"] 	c #2E8DA8",
"^ 	c #3764DA",
"/ 	c #364EF0",
"( 	c #3146F1",
"_ 	c #2B3EF3",
": 	c #2536F4",
"< 	c #202EF6",
"[ 	c #1A26F7",
"} 	c #141EF9",
"| 	c #0F15FA",
"1 	c #090DFC",
"2 	c #0305FE",
"3 	c #0000FF",
"4 	c #D51313",
"5 	c #BA2020",
"6 	c #7F5E1F",
"7 	c #01FD02",
"8 	c #0EE32C",
"9 	c #1EBD65",
"0 	c #2B939E",
"a 	c #3666D8",
"b 	c #FD0000",
"c 	c #F00606",
"d 	c #EA0A0A",
"e 	c #CE1717",
"f 	c #B32424",
"g 	c #BA2121",
"h 	c #E90A0A",
"i 	c #D51414",
"j 	c #C71A1A",
"k 	c #AC2727",
"l 	c #E20D0D",
"m 	c #F00707",
"n 	c #DB1010",
"o 	c #C01D1D",
"p 	c #F60303",
"q 	c #C01E1E",
"r 	c #DB1111",
"s 	c #D41414",
"t 	c #B92121",
"u 	c #FD0101",
"v 	c #F60404",
"w 	c #EF0707",
"x 	c #E10D0D",
"y 	c #DA1010",
"z 	c #E50909",
"A 	c #D50C0C",
"B 	c #CC0F0F",
"C 	c #D11313",
"D 	c #CD1717",
"E 	c #B22424",
"F 	c #F50303",
"G 	c #E70606",
"H 	c #CC0909",
"I 	c #AC0A0A",
"J 	c #B00D0D",
"K 	c #AB1010",
"L 	c #CC1717",
"M 	c #C61A1A",
"N 	c #BF1D1D",
"O 	c #B82121",
"P 	c #B12424",
"Q 	c #AB2727",
"R 	c #7F5D1F",
"S 	c #F90000",
"T 	c #E40303",
"U 	c #C10505",
"V 	c #9E0707",
"W 	c #7C0707",
"X 	c #2F0303",
"Y 	c #410606",
"Z 	c #B91515",
"` 	c #B31818",
" .	c #AD1B1B",
"..	c #A71D1D",
"+.	c #A12121",
"@.	c #9B2424",
"#.	c #76581C",
"$.	c #01F902",
"%.	c #F60000",
"&.	c #DC0000",
"*.	c #B50202",
"=.	c #960404",
"-.	c #550603",
";.	c #080300",
">.	c #000200",
",.	c #310605",
"'.	c #8A0F0F",
").	c #851111",
"!.	c #801414",
"~.	c #7C1616",
"{.	c #771818",
"].	c #741A1A",
"^.	c #5F4B17",
"/.	c #00EF02",
"(.	c #0EE22C",
"_.	c #CE0000",
":.	c #AA0000",
"<.	c #820901",
"[.	c #272101",
"}.	c #002600",
"|.	c #002500",
"1.	c #002400",
"2.	c #001A00",
"3.	c #000A00",
"4.	c #002301",
"5.	c #A60100",
"6.	c #582800",
"7.	c #075200",
"8.	c #005400",
"9.	c #005300",
"0.	c #005200",
"a.	c #005100",
"b.	c #004E00",
"c.	c #004800",
"d.	c #005A01",
"e.	c #326400",
"f.	c #008400",
"g.	c #008300",
"h.	c #008200",
"i.	c #008100",
"j.	c #008000",
"k.	c #007F00",
"l.	c #008C00",
"m.	c #009601",
"n.	c #D21600",
"o.	c #4B7400",
"p.	c #00B000",
"q.	c #00AF00",
"r.	c #00AE00",
"s.	c #00AD00",
"t.	c #00AC00",
"u.	c #00B800",
"v.	c #00D000",
"w.	c #00D401",
"x.	c #AC3702",
"y.	c #29B101",
"z.	c #00DB00",
"A.	c #00DA00",
"B.	c #00D900",
"C.	c #00DE00",
"D.	c #00E700",
"E.	c #00E901",
"F.	c #FC0101",
"G.	c #F40404",
"H.	c #E60707",
"I.	c #866506",
"J.	c #13DE01",
"K.	c #00F200",
"L.	c #48A507",
"M.	c #CB1717",
"N.	c #C51B1B",
"O.	c #BE1E1E",
"P.	c #B72121",
"Q.	c #B02424",
"R.	c #AA2828",
"S.	c #FB0101",
"T.	c #F50404",
"U.	c #EE0707",
"V.	c #E50A0A",
"W.	c #CF170C",
"X.	c #687408",
"Y.	c #508508",
"Z.	c #CC1818",
"`.	c #B82222",
" +	c #B12525",
".+	c #AB2828",
"++	c #EE0808",
"@+	c #E70B0B",
"#+	c #E00E0E",
"$+	c #D91111",
"%+	c #CF1714",
"&+	c #D21515",
"*+	c #BE1F1F",
"=+	c #B72222",
"-+	c #ED0808",
";+	c #D91212",
">+	c #F40505",
",+	c #CB1818",
"'+	c #B02525",
")+	c #E60B0B",
"!+	c #C41B1B",
"~+	c #FA0101",
"{+	c #DF0F0F",
"]+	c #C41C1C",
"^+	c #FA0202",
"/+	c #D81212",
"(+	c #BD1F1F",
"_+	c #F30505",
":+	c #CB1919",
"<+	c #B62222",
"[+	c #AA2929",
"}+	c #D11515",
"|+	c #B02626",
"1+	c #EC0808",
"2+	c #E60C0C",
"3+	c #CA1919",
"4+	c #AF2626",
". + @ # $ % & * = - ; > , ' ) ! ~ { ] ^ / ( _ : < [ } | 1 2 3 3 ",
". + @ # $ % & 4 = - ; 5 , ' 6 7 8 9 0 a / ( _ : < [ } | 1 2 3 3 ",
". b @ c d % & 4 e - ; 5 f ' 6 7 8 9 0 a / ( _ : < [ } | 1 2 3 3 ",
". b @ c d % & 4 e - ; g f ' 6 7 8 9 0 a / ( _ : < [ } | 1 2 3 3 ",
". b @ c h % & i e j ; g f k 6 7 8 9 0 a / ( _ : < [ } | 1 2 3 3 ",
". b @ c h l & i e j ; g f k 6 7 8 9 0 a / ( _ : < [ } | 1 2 3 3 ",
". b @ m h l n i e j o g f k 6 7 8 9 0 a / ( _ : < [ } | 1 2 3 3 ",
". b p m h l n i e j q g f k 6 7 8 9 0 a / ( _ : < [ } | 1 2 3 3 ",
". b p m h l r s e j q t f k 6 7 8 9 0 a / ( _ : < [ } | 1 2 3 3 ",
". u v w h x y s e j q t f k 6 7 8 9 0 a / ( _ : < [ } | 1 2 3 3 ",
". u v w z A B C D j q t E k 6 7 8 9 0 a / ( _ : < [ } | 1 2 3 3 ",
". u F G H I J K L M N O P Q R 7 8 9 0 a / ( _ : < [ } | 1 2 3 3 ",
". S T U V W X Y Z `  ...+.@.#.$.8 9 0 a / ( _ : < [ } | 1 2 3 3 ",
"%.&.*.=.-.;.>.,.'.).!.~.{.].^./.(.9 0 a / ( _ : < [ } | 1 2 3 3 ",
"_.:.<.[.}.|.1.2.3.3.3.3.3.3.3.4.(.9 0 a / ( _ : < [ } | 1 2 3 3 ",
"5.6.7.8.9.0.a.b.c.c.c.c.c.c.c.d.(.9 0 a / ( _ : < [ } | 1 2 3 3 ",
"e.f.g.h.i.j.k.g.l.l.l.l.l.l.l.m.(.9 0 a / ( _ : < [ } | 1 2 3 3 ",
"n.o.p.q.r.s.t.u.v.v.v.v.v.v.v.w.(.9 0 a / ( _ : < [ } | 1 2 3 3 ",
"+ %.x.y.z.A.B.C.D.D.D.D.D.D.D.E.8 9 0 a / ( _ : < [ } | 1 2 3 3 ",
". F.G.H.I.J.K.L.M.N.O.P.Q.R.R 7 8 9 0 a / ( _ : < [ } | 1 2 3 3 ",
". S.T.U.V.W.X.Y.Z.N.O.`. +.+6 7 8 9 0 a / ( _ : < [ } | 1 2 3 3 ",
". S.T.++@+#+$+%+Z.N.O.`. +R.6 7 8 9 0 a / ( _ : < [ } | 1 2 3 3 ",
". S.G.++@+#+$+&+Z.N.*+=+ +R.6 7 8 9 0 a / ( _ : < [ } | 1 2 3 3 ",
". S.G.-+@+#+;+&+Z.N.*+=+ +R.6 7 8 9 0 a / ( _ : < [ } | 1 2 3 3 ",
". S.>+-+@+#+;+&+,+N.*+=+'+R.6 7 8 9 0 a / ( _ : < [ } | 1 2 3 3 ",
". S.>+-+)+#+;+&+,+N.*+=+'+R.6 7 8 9 0 a / ( _ : < [ } | 1 2 3 3 ",
". S.>+-+)+#+;+&+,+!+*+=+'+R.6 7 8 9 0 a / ( _ : < [ } | 1 2 3 3 ",
". ~+>+-+)+{+;+&+,+]+*+=+'+R.6 7 8 9 0 a / ( _ : < [ } | 1 2 3 3 ",
". ^+>+-+)+{+/+&+,+]+(+=+'+R.6 7 8 9 0 a / ( _ : < [ } | 1 2 3 3 ",
". ^+_+-+)+{+/+&+:+]+(+<+'+[+6 7 8 9 0 a / ( _ : < [ } | 1 2 3 3 ",
". ^+_+-+)+{+/+}+:+]+(+<+|+[+6 7 8 9 0 a / ( _ : < [ } | 1 2 3 3 ",
". ^+_+1+2+{+/+}+3+]+(+<+4+[+6 7 8 9 0 a / ( _ : < [ } | 1 2 3 3 "};
