/* XPM */
static const char * output_blue_xpm[] = {
"26 26 9 1",
".    c #020202",
"+    c #0642B2",
"@    c #0276AE",
"#    c #509EC2",
"$    c #81B9D5",
"%    c #BEBEBA",
"&    c #AAD2E2",
"*    c #FDFDFE",
"=    c #323232",
"++++++++++++++++++++++++++",
"++++++++++++++++++++++++++",
"++*********$$$&*********++",
"++*********@@@&*********++",
"++*********@@@&*********++",
"++*********@@@&*********++",
"++*********$$$&*********++",
"++**********************++",
"++******#@@@@@&*********++",
"++******#@@@@@&*********++",
"++******$###@@&*********++",
"++*********&@@&*********++",
"++*********&@@&*********++",
"++*********&@@&*********++",
"++*********&@@&*********++",
"++*********&@@&*********++",
"++*****&####@@####&*****++",
"++*****$@@@@@@@@@@$*****++",
"++*****$@@@@@@@@@@$*****++",
"++**********************++",
"++*=.%.*.%...*..%.*....*++",
"++*.*=.*.%%.%%.%..*.%.%*++",
"++*.*=.%.%&.%*..%.%.*.**++",
"++*%.=%.=**.**.**%.%*.**++",
"++++++++++++++++++++++++++",
"++++++++++++++++++++++++++"};
