/* XPM */
static const char * redoview_xpm[] = {
"29 27 8 1",
" 	c None",
".	c #00FF00",
"+	c #000000",
"@	c #848484",
"#	c #FFFFFF",
"$	c #00B700",
"%	c #C6C6C6",
"&	c #BEBEBE",
"                  ..         ",
"            ++++  ...        ",
"           +@###+ $...       ",
"   @++++  +@+%%%%+ .....     ",
" +++@###++++%............+   ",
"+%%@+++++%@...............+  ",
"+@%#######....$$$$$......$#+ ",
"+@@%%%%%%...$$%%%%%.....$%%#+",
"+@@%%%%%...$%+++++....$%%%%#+",
"++@%%%%...$%+#%%%%..$&%%%%%#+",
"+++++++...$+++####$$+++++++++",
"+%++++...$+++##%%%%%+++++++++",
"+%++++...$+@@%%+++++%%+++++++",
"+%+++...$+++%@+@@@@@+@%++++++",
"+%+++...$++@%+@@%#%@@+%++++++",
"+%+++...$++%+@@@@@#%@@+%+++++",
"+%+++...$++%+@@@@@%#@@+%+++++",
"+%+++...$++%+@@@@@@#@@+%+++++",
"+%+++...$++%+@@@@@@%@@+%+++++",
"+%+++...$++%+@@@@@@@@@+%+++++",
"+++++$...+++%+@@@@@@@+%++++++",
" ++++$...+++%@+@@@@@+@%++++++",
"  +++$$...+++%%+++++%%++++++ ",
"   +++$....+++@%%%%%@++++++  ",
"       $....  @+++++@        ",
"        $..$                 ",
"         $$                  "};
