/* XPM */
static const char * viewlockon_xpm[] = {
"32 32 20 1",
".	c #020206",
"+	c #B8B6C3",
"@	c #424669",
"#	c #A09FB1",
"$	c #9190A6",
"%	c #575777",
"&	c #878699",
"*	c #7A7784",
"=	c #626273",
"-	c #686888",
";	c None",
">	c #F2F2F8",
",	c #3C3CFE",
"'	c #CAC9D8",
")	c #1E3486",
"!	c #706A6E",
"~	c #091562",
"{	c #DAD9E6",
"]	c #2323AE",
"^	c #394BB9",
";;;;;;;;;;;;;;;;;;;;;;;;;;;;;;;;",
";;;;;;;;;;;;;;+#&#;;;;;;;;;;;;;;",
";;;;;;;;;;;+>+$*%.@;;;;;;;;;;;;;",
";;;;!%@))@=+!&#+#=~%;;;;;;;;;;;;",
";;&%#*,],,#*%&;;+'*@*;;;;;;;;;;;",
";&!>{,,..,->'@;;;;+!##;;;;;;;;;;",
";&*>{,]..,%>>@;;;;+{!&;;;;;;;;;;",
";;!='^,],,$#@&;;;;+>!&;;;;;;;;;;",
";;;$%%]]]@@!#;;;;;;{!$;;;;;;;;;;",
";;;;;;#&+#++;;;;;;;{*#;;;;;;;;;;",
";;;;;;;;{++;;;;;;;;{*#;;;;;;;;;;",
";;;;;;;;'#+;;;;;;;;{*#;;;;;;;;;;",
";;;;;;;;{#+;;;;;;;;{*$;;;;;;;;;;",
";;;;;;{'{+'++''$#++#&&##;;;;;;;;",
";;;;;'>{{'{'''+#$$$$$$#+#;;;;;;;",
";;;;;'>{'{''''+$$$$$#$$++;;;;;;;",
";;;;;+>{{{'{'''$$######+#;;;;;;;",
";;;;;'>{{''''++$####$##++;;;;;;;",
";;;;;'>''''+'++&&&&$$$$++;;;;;;;",
";;;;;+>{{'''''+$$$$$$$$'#;;;;;;;",
";;;;;+>{{{''''+##$$$##+++;;;;;;;",
";;;;;'>{''''+'+$$####$#++;;;;;;;",
";;;;;+>{'''''++$###+##+'+;;;;;;;",
";;;;;+>{''''+++#$#$$#$$++;;;;;;;",
";;;;;'{{{{''''+$######+#+;;;;;;;",
";;;;;+%^)^)))))~~~.~~~~~-;;;;;;;",
";;;;;#^)))))))~~~~~~~~~~);;;;;;;",
";;;;;$^^))))~~~~~~~~~~~~~;;;;;;;",
";;;;;&^^)))))))]]])]))@^=;;;;;;;",
";;;;;;{'''+++++###+++++#;;;;;;;;",
";;;;;;;;;;;;;;;;;;;;;;;;;;;;;;;;",
";;;;;;;;;;;;;;;;;;;;;;;;;;;;;;;;"};
