/* XPM */
static const char * Streamline_xpm[] = {
"32 32 40 1",
"2 	c None",
".	c #053C7F",
"+	c #295684",
"@	c #931804",
"#	c #559319",
"$	c #99650D",
"%	c #769E20",
"&	c #098229",
"*	c #8EA196",
"=	c #98A89C",
"-	c #279112",
";	c #0B9838",
">	c #A2AEA5",
",	c #086186",
"'	c #927C35",
")	c #537186",
"!	c #306F82",
"~	c #25963D",
"{	c #089590",
"]	c #609E2A",
"^	c #ADB0AC",
"/	c #066E8A",
"(	c #5E9E3C",
"_	c #A6524E",
":	c #0548C6",
"<	c #789A48",
"[	c #993F14",
"}	c #027CD8",
"|	c #B1866F",
"1	c #31897F",
"3	c #02A5D3",
"4	c #5B828B",
"5	c #5C968B",
"6	c #04548F",
"7	c #798B92",
"8	c #025ECE",
"9	c #789E90",
"0	c #34A082",
"a	c #088183",
"b	c #8B8214",
"22222222222222222222222222222222",
"22222222222222222222222222222222",
"22222222222222222222222222222*02",
"222222222222222222222222222|$b#>",
"222222222222222222222222^|[@@@$2",
"2222222222222222222222^|[[@@@@[2",
"22222222222222222222==b'$[[@@@_2",
"22222222222222222>(~]#%<bb'$[[|2",
"22222222222222>(;;(5~]<]<<<7b$^2",
"22222222222>90;099;~99-<*#>#=b^2",
"2222222^90{{09=5;~9>~;**-*<]*%b^",
"299=90{{{19=90{~9^5;1^9&9^&=49#>",
"933/a15*=50{{5=^5{1*25&921~2&=->",
">3a/751{{a5*2=5{a52^1&*25&^*&2&>",
"2^{3/a15=2*5{{19225a1>29&92!5^&^",
"225{,1751aaa5=2^5aa5227a52=&>*&2",
"222933,a15=22*1aa5^224a522!124~2",
"222^{{+4^>71/aa5^229/a9224a>2!52",
"2222^4}}6//a5=2227!/1^224/92*,>2",
"222229{{,9>222*4,/!*222)/522!122",
"2222224!++)7!,/,1=222*+,5227,*22",
"2222222>8},6,!92222*!6/*22*61222",
"2222222^/},72222^4+6642227./^222",
"222222229!7)+74+6664^222).,^2222",
"2222222222)88.66!72222*+.+^22222",
"2222222222!88:7^2222*+..)2222222",
"2222222222=+67^7227+..+*22222222",
"2222222222222*......+72222222222",
"2222222222222+::..+7222222222222",
"2222222222222)::.*22222222222222",
"2222222222222^+:7222222222222222",
"22222222222222222222222222222222"};
