/* XPM */
static const char * Volume_xpm[] = {
"32 32 40 1",
"a 	c None",
".	c #7B1A8D",
"+	c #495E82",
"@	c #715BAD",
"#	c #8652A6",
"$	c #477481",
"%	c #9E8EB2",
"&	c #7A66A2",
"*	c #39A2A2",
"=	c #A415B5",
"-	c #A6B7B7",
";	c #749598",
">	c #8E5EA6",
",	c #AEB6B7",
"'	c #542A7A",
")	c #657998",
"!	c #478184",
"~	c #828B99",
"{	c #6E2B8D",
"]	c #76A3A5",
"^	c #8AA6A7",
"/	c #B2B8B8",
"(	c #6F3A97",
"_	c #3F8D8F",
":	c #675BA2",
"<	c #479D9D",
"[	c #8BB3B3",
"}	c #B8BABA",
"|	c #7949C4",
"1	c #658D90",
"2	c #528E90",
"3	c #7AB0B0",
"4	c #64AFAF",
"5	c #9642E2",
"6	c #748394",
"7	c #52377B",
"8	c #9AB4B4",
"9	c #69489C",
"0	c #62A0A1",
"b	c #4D4781",
"aaaaaaaaaaaaaaaaaaaaaaaaaaaaaaaa",
"aaaaaaaaaaaaaaaaaaaaaaaaaaaaaaaa",
"aaaaaaaaaaa}}/,,-8,}aaaaaaaaaaaa",
"a}/,,,-888[^^^^]];]^^88,}aaaaaaa",
"a,8[[333]]]]01111111;;]^^^8,/}aa",
"a,8[3]4400001112221111;]0;;^[8,a",
"a}-^3]440022!!22$$+b+1000;]3[-/a",
"a/8^]]44022__!!+9bb((+00;]3[8-}a",
"a/833]44022!_!!+bbb7(+1;]33[-/}a",
"a}-[3]000<):+bbbb9|97b1;]~&^-/}a",
"a}-[3):0222+9(79@||||9!03&(~-/}a",
"a}-[3;)$22!+(7b:@@|||99:)];[-/aa",
"a}/[]&(9+2!!$!_++:999b|59]38-/aa",
"a}/[&=.(+02!_<<<$:@|9+b9)][8-/aa",
"a},(.=.b122!!!___+@|9$0;]3[8-/aa",
"a},.=={112!$!!!!!+b9+04433[8-/aa",
"aa,#{9)02!!!!!$$$'7b200+(6[8-}aa",
"aa/83](b!__!!!+$$7'b2)7{.&[8-}aa",
"aa,8[6={$<*__${+!$$!27=={;[8/}aa",
"aa,83]&:!<**_!$$$(&22(==:]^^,}aa",
"aa,833402____!!!:=#!2)996;]^-}aa",
"aa/[34400222<<22&)6:1;116;;^-aaa",
"aa/8[3;(b11!$2<01111;;1161;^-aaa",
"aaa}-[>=.60)&100016616;;;~;^-aaa",
"aaaa},%.9;]111;4];66~~~;;^^8,aaa",
"aaaaa},8^^;|)];]3];]]]^^88,/aaaa",
"aaaaaa}/8^^~]]]^^]3[[88-,}aaaaaa",
"aaaaaaa}/8^^^[[[^[8--,}aaaaaaaaa",
"aaaaaaaa}/-^88--8-,/aaaaaaaaaaaa",
"aaaaaaaaaa/8--/,/}aaaaaaaaaaaaaa",
"aaaaaaaaaa},,/}aaaaaaaaaaaaaaaaa",
"aaaaaaaaaaaaaaaaaaaaaaaaaaaaaaaa"};
