/* XPM */
static const char *Poincare_xpm[] = {
/* columns rows colors chars-per-pixel */
"32 32 229 2",
"   c #232323",
".  c #252525",
"X  c #2C2C2C",
"o  c #2D2D2D",
"O  c #2E2E2E",
"+  c #2F2F2F",
"@  c #313131",
"#  c #323232",
"$  c #333333",
"%  c #343434",
"&  c #353535",
"*  c #373737",
"=  c #383838",
"-  c #3A3A3A",
";  c #3B3B3B",
":  c #3E3E3E",
">  c #404040",
",  c #424242",
"<  c #434343",
"1  c #444444",
"2  c #464646",
"3  c #474747",
"4  c #484848",
"5  c #4A4A4A",
"6  c #4B4B4B",
"7  c #4D4D4D",
"8  c #4E4E4E",
"9  c #4F4F4F",
"0  c #505050",
"q  c #515151",
"w  c #545454",
"e  c #555555",
"r  c #565656",
"t  c #595959",
"y  c #5B5B5B",
"u  c #5C5C5C",
"i  c #5D5D5D",
"p  c #5F6060",
"a  c #646464",
"s  c #656565",
"d  c #696969",
"f  c #686A6A",
"g  c #6B6B6B",
"h  c #6C6C6C",
"j  c #737373",
"k  c #747474",
"l  c #757575",
"z  c #767676",
"x  c #777777",
"c  c #7B7B7B",
"v  c #7D7D7D",
"b  c #7F8080",
"n  c #FF2F2F",
"m  c #FF3333",
"M  c #FF3737",
"N  c #FF3939",
"B  c #FF3C3C",
"V  c #FF3F3F",
"C  c #FF4545",
"Z  c #FF4646",
"A  c #FF4747",
"S  c #FF4949",
"D  c #FF4B4B",
"F  c #FF4C4C",
"G  c #FF4D4D",
"H  c #FF4F4F",
"J  c #FF5252",
"K  c #FF5555",
"L  c #FF5959",
"P  c #FF5A5A",
"I  c #FF5B5B",
"U  c #FF5D5D",
"Y  c #FF6060",
"T  c #FF6464",
"R  c #FF6565",
"E  c #FF6B6B",
"W  c #FF6C6C",
"Q  c #FF6D6D",
"!  c #FF7070",
"~  c #FF7171",
"^  c #FF7676",
"/  c #FF7979",
"(  c #FF7D7D",
")  c #FF7E7E",
"_  c #818181",
"`  c #818282",
"'  c #828282",
"]  c #848484",
"[  c #868686",
"{  c #898989",
"}  c #8A8A8A",
"|  c #8B8B8B",
" . c #8E8E8E",
".. c #919191",
"X. c #949494",
"o. c #969696",
"O. c #979797",
"+. c #989898",
"@. c #999999",
"#. c #9A9E9E",
"$. c #9E9E9E",
"%. c #9F9F9F",
"&. c #A0A0A0",
"*. c #A1A1A1",
"=. c #A6A6A6",
"-. c #A7A7A7",
";. c #A9A9A9",
":. c #ABABAB",
">. c #A8ACAC",
",. c #AEAEAE",
"<. c #B0B0B0",
"1. c #B6B6B6",
"2. c #B9B9B9",
"3. c #BABABA",
"4. c #BCBCBC",
"5. c #BDBDBD",
"6. c #FF8080",
"7. c #FF8282",
"8. c #FF8484",
"9. c #FF8686",
"0. c #FF8A8A",
"q. c #FF8E8E",
"w. c #FF9292",
"e. c #FF9494",
"r. c #FF9999",
"t. c #FF9A9A",
"y. c #FF9B9B",
"u. c #FF9C9C",
"i. c #FFA1A1",
"p. c #FFA4A4",
"a. c #FFA5A5",
"s. c #FFA6A6",
"d. c #FFA7A7",
"f. c #FFABAB",
"g. c #FFAEAE",
"h. c #FFB0B0",
"j. c #FFB1B1",
"k. c #FFB7B7",
"l. c #FFB8B8",
"z. c #FFBBBB",
"x. c #FFBFBF",
"c. c #C0C0C0",
"v. c #C2C2C2",
"b. c #C3C3C3",
"n. c #C2C5C5",
"m. c #C5C5C5",
"M. c #C6C6C6",
"N. c #C7C7C7",
"B. c #C9C9C9",
"V. c #CACACA",
"C. c #CBCBCB",
"Z. c #CCCCCC",
"A. c #CECECE",
"S. c #CFCFCF",
"D. c #CDD1D1",
"F. c #D2D2D2",
"G. c #D3D3D3",
"H. c #D4D4D4",
"J. c #D5D5D5",
"K. c #D6D6D6",
"L. c #D5D8D8",
"P. c #D8D8D8",
"I. c #D9D9D9",
"U. c #DADBDB",
"Y. c #DCDCDC",
"T. c #DDDDDD",
"R. c #DEE0E0",
"E. c #DFE1E1",
"W. c #FFC2C2",
"Q. c #FFC7C7",
"!. c #FFCFCF",
"~. c #FFD1D1",
"^. c #FFD3D3",
"/. c #FFD9D9",
"(. c #FFDBDB",
"). c #FFDEDE",
"_. c #E0E0E0",
"`. c #E2E2E2",
"'. c #E4E4E4",
"]. c #E4E6E6",
"[. c #E7E7E7",
"{. c #E9E9E9",
"}. c #EAEFEF",
"|. c #ECECEC",
" X c #EDEDED",
".X c #EEEEEE",
"XX c #EFEFEF",
"oX c #FFE0E0",
"OX c #FEE3E3",
"+X c #FFE2E2",
"@X c #FFE3E3",
"#X c #FFE4E4",
"$X c #FFEAEA",
"%X c #FCEEEE",
"&X c #FFEDED",
"*X c #FFEEEE",
"=X c #F0F0F0",
"-X c #F2F2F2",
";X c #F3F3F3",
":X c #F0F4F4",
">X c #F4F4F4",
",X c #F4F5F5",
"<X c #F5F5F5",
"1X c #F6F6F6",
"2X c #F7F7F7",
"3X c #FFF1F1",
"4X c #FFF2F2",
"5X c #FFF3F3",
"6X c #FFF5F5",
"7X c #FFF6F6",
"8X c #FFF7F7",
"9X c #F8F8F8",
"0X c #F9F9F9",
"qX c #FAFAFA",
"wX c #FBFBFB",
"eX c #FAFCFC",
"rX c #FFF8F8",
"tX c #FFF9F9",
"yX c #FFFBFB",
"uX c #FCFCFC",
"iX c #FDFDFD",
"pX c #FDFEFE",
"aX c #FFFCFC",
"sX c #FFFDFD",
"dX c #FEFEFE",
"fX c #FEFFFF",
"gX c #FFFEFE",
"hX c gray100",
"jX c None",
/* pixels */
"jXjXjXjXjXjXjXjXjXjXjXjXjXhXhXhXjXjXjXjXjXjXjXjXjXjXjXjXjXjXjXjX",
"jXjXjXjXjXjXjXjXjXjXhXP.{ a i g +.P.rXjXjXjXjXjXjXjXjXjXjXjXjXjX",
"jXjXjXjXjXjXjXjXjXhX,.+ 0 +.=.{ 0 o a K.hXjXjXjXjXjXjXjXjXjXjXjX",
"jXjXjXjXjXjXjXjXjXN.o #.2XjXjXjX9Xb.t X #.0XjXjXjXjXjXjXjXjXjXjX",
"jXjXjXjXjXjXjXjX0Xw l hXjXjXjXjXjXjX1X%.o [ 0XjXjXjXjXjXjXjXjXjX",
"jXjXjXjXjXjXjXjXF.% K.jXjXjXjXjXjXjXjXjXB.= _ 0XjXjXjXjXjXjXjXjX",
"jXjXjXjXjXjXjXjXo.w 0XjXjXjXjXhXrX5XhXjXjXC.@ +.hXjXjXjXjXjXjXjX",
"jXjXjXjXjXjXjXjXd [ jXjXjXjX&X0.J F L t.&XjX:.. 3.jXjXjXjXjXjXjX",
"jXjXjXjXjXjXjX0Xw :.jXjXjX4XE C p.W.w.C D ~.hXc <  XjXjXjXjXjXjX",
"jXjXjXjXjXjXjX-X6 M.jXjXjXu.V oXjXjXjX$X6.C ~.R.+ #.jXjXjXjXjXjX",
"jXjXjXjXjXjXjX X6 F.jXjXrXJ t.jXjXjXjXjXhX6.C $X_ : .XjXjXjXjXjX",
"jXjXjXjXjXjXjX X6 P.jXjX/.V ).jXjXjXjXjXjX&XD 9.Y.@ 4.jXjXjXjXjX",
"jXjXjXjXjXjXjX X6 K.jXjXx.D 5XjXjXjXjXjXjXjXk.M oXd c jXjXjXjXjX",
"jXjXjXjXjXjXjX[.< P.jXjXh.L hXjXjXjXhX#.h K.5XC h.>.8 0XjXjXjXjX",
"jXjXjXjXjXjXjX X6 P.jXjXp.T jXjXjXjXP.$ < i eX^ 9.D.2  XjXjXjXjX",
"jXjXjXjXjXjXjX X6 P.jXjXi.Q jXjXjXjXc.9 c.< }.w.~ R.< `.jXjXjXjX",
"jXjXjXjXjXjXjX X6 K.jXjXp.E jXjXjXjXB.2 %.1 :Xw.^ R.: Y.jXjXjXjX",
"jXjXjXjXjXjXjX X2 A.jXjXh.L hXjXjXjX X8   [ jX6.0.b.< .XjXjXjXjX",
"jXjXjXjXjXjXjX-X8 A.jXjXW.F 5XjXjXjXjX`.M.>X5XU z.#.u hXjXjXjXjX",
"jXjXjXjXjXjXjX1X0 c.jXjX/.C oXjXjXjXjXjXjXjXp.F &Xp b jXjXjXjXjX",
"jXjXjXjXjXjXjX0Xw 3.jXjX4XC h.jXjXjXjXjXjX#XV t.L.X c.jXjXjXjXjX",
"jXjXjXjXjXjXjXhXi -.jXjXjX/ T hXjXjXjXjX4XY K 4Xv < -XjXjXjXjXjX",
"jXjXjXjXjXjXjXjXd o.jXjXjX!.n f.hXjXhX).L D oX].@ %.jXjXjXjXjXjX",
"jXjXjXjXjXjXjXjX_ j jXjXjXhXp.m ~ t./ M Y oXjX] 1  XjXjXjXjXjXjX",
"jXjXjXjXjXjXjXjX;.5 2XjXjXjXhXQ./ Q ( z.5XjX4.o 3.jXjXjXjXjXjXjX",
"jXjXjXjXjXjXjXjXK.% P.jXjXjXjXjXjXjXjXjXjXF.%  .hXjXjXjXjXjXjXjX",
"jXjXjXjXjXjXjXjX2X9 ..jXjXjXjXjXjXjXjXjXK.: l 1XjXjXjXjXjXjXjXjX",
"jXjXjXjXjXjXjXjXjX#.= ].jXjXjXjXjXjXhX3.% l 1XjXjXjXjXjXjXjXjXjX",
"jXjXjXjXjXjXjXjXjX-X0 i [.jXjXjXhXY.l . { 1XjXjXjXjXjXjXjXjXjXjX",
"jXjXjXjXjXjXjXjXjXjXY.8 : | <.#.d @ 8 4.eXjXjXjXjXjXjXjXjXjXjXjX",
"jXjXjXjXjXjXjXjXjXjXjX XO.a t t v 4.1XjXjXjXjXjXjXjXjXjXjXjXjXjX",
"jXjXjXjXjXjXjXjXjXjXjXjXjXhX0XhXhXjXjXjXjXjXjXjXjXjXjXjXjXjXjXjX"
};
