/* XPM */
static const char * Lineout_xpm[] = {
"32 32 40 1",
"@ 	c None",
".	c #5A378B",
"+	c #5A5198",
"#	c #527F9B",
"$	c #BABEBE",
"%	c #5FA1A2",
"&	c #AE9EAE",
"*	c #5EB6B6",
"=	c #D305D8",
"-	c #9AB9B9",
";	c #B268B2",
">	c #A40AA6",
",	c #8DB7B7",
"'	c #AC92AC",
")	c #5EAEAE",
"!	c #741C90",
"~	c #91ADAD",
"{	c #5589A3",
"]	c #AA46AA",
"^	c #85B5B5",
"/	c #5EC2C2",
"(	c #9E26C6",
"_	c #83ABAB",
":	c #5F5DA2",
"<	c #852AAF",
"[	c #7DB8B8",
"}	c #9E829E",
"|	c #8E9AAA",
"1	c #4E939B",
"2	c #813CBB",
"3	c #77ABAB",
"4	c #71A1A1",
"5	c #76B6B6",
"6	c #9A3EB8",
"7	c #526D95",
"8	c #AABCBC",
"9	c #AA6EAA",
"0	c #5D989A",
"a	c #72B6B6",
"b	c #9F3BD8",
"@@@@@@@@@@@@@@@@@@@@@@@@@@@@@@@@",
"@@@@@@@@@@@@@@@@@@@@@@@@@@@@@@@@",
"$96}$$88--,__334%%0_~8$@@@@@@@@@",
";==!#%%%%%%%%%%%%%000004_-$@@@@@",
"]=(!7%%%%%%%%%%%%%00000000004~8@",
"'><.0))%%%%%%%%%%%00000%%%))**5@",
"@%#%)){+7)%%%%%)))))**********[@",
"@5))){<(<#)*//////************,@",
"@[)))7<(<7)*/////*************-@",
"@^)))%.<.1)*/////*************8@",
"@,))))%1))){7#///*************8@",
"@-))))))))02b2{//*************$@",
"@-))))))))#2b2#//*************@@",
"@-)))))))))+2+)//************a@@",
"@8)))))))))**///#:7**********a@@",
"@8)))))))))*///%2b2#*********[@@",
"@$)))))))))*///02b2#*********,@@",
"@$)))))))))*////7+:)*********-@@",
"@@*))))))))*//***)**)+.+)****-@@",
"@@*)))))))))*))))))){2b2{****8@@",
"@@a))))%%00%)))))))){2b21****$@@",
"@@3%%000000%)))))))))#:#**%1)@@@",
"@@840000000%)))))))))))))1.22$@@",
"@@@$4000000%)))))))))))))72=='@@",
"@@@@$400000%))))))))))))){2=>$@@",
"@@@@@$40000%)))))))))))))a|9&@@@",
"@@@@@@$4000%))))))))))),$@@@@@@@",
"@@@@@@@$400%))))))))^8@@@@@@@@@@",
"@@@@@@@@$40%)))))5-$@@@@@@@@@@@@",
"@@@@@@@@@$4%))),$@@@@@@@@@@@@@@@",
"@@@@@@@@@@$3^8@@@@@@@@@@@@@@@@@@",
"@@@@@@@@@@@@@@@@@@@@@@@@@@@@@@@@"};
