/* XPM */
static const char * Pseudocolor_xpm[] = {
"32 32 40 1",
"a 	c None",
".	c #0248FE",
"+	c #19FE05",
"@	c #52FE02",
"#	c #E96B42",
"$	c #02FE23",
"%	c #FE6702",
"&	c #027CFE",
"*	c #029DFE",
"=	c #52E652",
"-	c #85FE02",
";	c #5BEF33",
">	c #02FE7C",
",	c #FE9602",
"'	c #FEB302",
")	c #EA9840",
"!	c #02B5FE",
"~	c #7BE652",
"{	c #02C6FE",
"]	c #DA7272",
"^	c #EAA63E",
"/	c #A2FE02",
"(	c #FEC202",
"_	c #02FEA4",
":	c #E67652",
"<	c #BBFE02",
"[	c #02D0FE",
"}	c #99EE35",
"|	c #FECE02",
"1	c #EAAA3E",
"2	c #02D8FE",
"3	c #E68E52",
"4	c #DA7E76",
"5	c #C9FE02",
"6	c #02FE54",
"7	c #02FEC1",
"8	c #D7E23C",
"9	c #F1F302",
"0	c #D5D552",
"b	c #02F7EC",
"aaaaaaaaaaaaaaaaaaaaaaaaaaaaaaaa",
"aaaaaaaaaaaaaaaaaaaaaaaaaaaaaaaa",
"aaaaaaaaaaaaaaaaaaaaaaaaaaaaaaaa",
"aaaaaa]##::3))^11^^)33:##4aaaaaa",
"aaaaaa#%%%,,'(||||('',,%%:aaaaaa",
"aaaaaa:%,'(|99999999||',,3aaaaaa",
"aaaaaa),(|995555<555999|'1aaaaaa",
"aaaaaa1|995<//----//<55990aaaaaa",
"aaaaaa0995/--@@@@@@--/<598aaaaaa",
"aaaaaa85<--@@++++++@@@-/<8aaaaaa",
"aaaaaa8<-@@++$$$$$$$+@@-/8aaaaaa",
"aaaaaa}-@@+$$$66666$$$+@-}aaaaaa",
"aaaaaa}@@+$$6>>>>>>66$$+@}aaaaaa",
"aaaaaa}@+$$6>_7777__>6$$+~aaaaaa",
"aaaaaa~+$$6>_7bbbb77_>6$+~aaaaaa",
"aaaaaa~+$6>_7b2[{[bb7_>$$=aaaaaa",
"aaaaaa~$$6_7b2!***{2b7>6$=aaaaaa",
"aaaaaa=$$>_72!&&.&*{b7_6$=aaaaaa",
"aaaaaa=$6>7b2*&...&!b7_6$=aaaaaa",
"aaaaaa=$6>7b2*&...&!b7_6$=aaaaaa",
"aaaaaa=$$>_72!&&.&*{b7_6$=aaaaaa",
"aaaaaa~$$6_7b2!***{2b7>6$=aaaaaa",
"aaaaaa~+$6>_7b2[{[bb7_>$$=aaaaaa",
"aaaaaa~+$$6>_7bbbb77_>6$+~aaaaaa",
"aaaaaa}@+$$6>_7777__>6$$+~aaaaaa",
"aaaaaa}@@+$$6>>>>>>66$$+@}aaaaaa",
"aaaaaa}-@@+$$$66666$$$+@-}aaaaaa",
"aaaaaa8<-@@++$$$$$$$+@@-/8aaaaaa",
"aaaaaa85</-@@@+++++@@@-/<8aaaaaa",
"aaaaaaaaaaaaaaaaaaaaaaaaaaaaaaaa",
"aaaaaaaaaaaaaaaaaaaaaaaaaaaaaaaa",
"aaaaaaaaaaaaaaaaaaaaaaaaaaaaaaaa"};
