/* XPM */
static const char * OnionPeel_xpm[] = {
"32 32 10 1",
". 	c None",
"+	c #000000",
"@	c #C4C47B",
"#	c #FFFFA0",
"$	c #EDE900",
"%	c #FFFF00",
"&	c #A00000",
"*	c #D60000",
"=	c #FF0000",
"-	c #FF8282",
"................................",
"..........+++++++++++...........",
"..........+@@@@@@@@@+...........",
"..........+@#######@+...........",
"..........+@@@@@@@@@+...........",
"....+++++++++++++++++++++++.....",
"....+@@@@@+$$$$$$$$$+@@@@@+.....",
"....+@###@+$%%%%%%%$+@###@+.....",
"....+@###@+$%%%%%%%$+@###@+.....",
"....+@###@+$%%%%%%%$+@###@+.....",
"....+@@@@@+$$$$$$$$$+@@@@@+.....",
"+++++++++++++++++++++++++++++++.",
"+@@@+$$$$$+&&&&&&&&&+$$$$$+@@@+.",
"+@#@+$%%%$+&*******&+$%%%$+@#@+.",
"+@#@+$%%%$+&*=====*&+$%%%$+@#@+.",
"+@#@+$%%%$+&*=---=*&+$%%%$+@#@+.",
"+@#@+$%%%$+&*=-=-=*&+$%%%$+@#@+.",
"+@#@+$%%%$+&*=====*&+$%%%$+@#@+.",
"+@#@+$%%%$+&*******&+$%%%$+@#@+.",
"+@@@+$$$$$+&&&&&&&&&+$$$$$+@@@+.",
"+++++++++++++++++++++++++++++++.",
"....+@@@@@+$$$$$$$$$+@@@@@+.....",
"....+@###@+$%%%%%%%$+@###@+.....",
"....+@###@+$%%%%%%%$+@###@+.....",
"....+@###@+$%%%%%%%$+@###@+.....",
"....+@@@@@+$$$$$$$$$+@@@@@+.....",
"....+++++++++++++++++++++++.....",
"..........+@@@@@@@@@+...........",
"..........+@#######@+...........",
"..........+@@@@@@@@@+...........",
"..........+++++++++++...........",
"................................"};
