/* XPM */
static const char *mat_xpm[] = {
"16 16 5 1",
" 	c None",
".	c #000000",
"+	c #0000FF",
"@	c #FF0000",
"#	c #00FF00",
"                ",
"                ",
" .............  ",
" .+++++++++++.  ",
" .+++++++++++.  ",
" .+++++++++++.  ",
" .+++++++++++.  ",
" .+++++++++++.  ",
" .............  ",
" .@@@@@.#####.  ",
" .@@@@@.#####.  ",
" .@@@@@.#####.  ",
" .@@@@@.#####.  ",
" .@@@@@.#####.  ",
" .............  ",
"                "};
