/* XPM */
static const char * AMRStitchCell_xpm[] = {
"32 32 127 2",
"  	c None",
". 	c #FFFFFF",
"+ 	c #7B7B7B",
"@ 	c #0A0A0A",
"# 	c #B9B9B9",
"$ 	c #9E9E9E",
"% 	c #000000",
"& 	c #959595",
"* 	c #7F7F7F",
"= 	c #0B0B0B",
"- 	c #BFBFBF",
"; 	c #A2A2A2",
"> 	c #999999",
", 	c #3B3B3B",
"' 	c #050505",
") 	c #5A5A5A",
"! 	c #7E7E7E",
"~ 	c #808080",
"{ 	c #4C4C4C",
"] 	c #484848",
"^ 	c #0C0C0C",
"/ 	c #010101",
"( 	c #0D0D0D",
"_ 	c #BBBBBB",
": 	c #AFAFAF",
"< 	c #3E3E3E",
"[ 	c #BABABA",
"} 	c #BCBCBC",
"| 	c #A7A7A7",
"1 	c #171717",
"2 	c #151515",
"3 	c #CCCCCC",
"4 	c #B8B8B8",
"5 	c #E8E8E8",
"6 	c #A4A4A4",
"7 	c #1E1E1E",
"8 	c #121212",
"9 	c #E0E0E0",
"0 	c #FEFEFE",
"a 	c #303030",
"b 	c #A9A9A9",
"c 	c #6C6C6C",
"d 	c #A5A5A5",
"e 	c #898989",
"f 	c #E2E2E2",
"g 	c #111111",
"h 	c #424242",
"i 	c #ECECEC",
"j 	c #0E0E0E",
"k 	c #6F6F6F",
"l 	c #F8F8F8",
"m 	c #D5D5D5",
"n 	c #232323",
"o 	c #5C5C5C",
"p 	c #505050",
"q 	c #A3A3A3",
"r 	c #020202",
"s 	c #F6F6F6",
"t 	c #323232",
"u 	c #B5B5B5",
"v 	c #767676",
"w 	c #131313",
"x 	c #C4C4C4",
"y 	c #404040",
"z 	c #ABABAB",
"A 	c #C1C1C1",
"B 	c #FCFCFC",
"C 	c #DEDEDE",
"D 	c #A1A1A1",
"E 	c #DDDDDD",
"F 	c #272727",
"G 	c #C5C5C5",
"H 	c #101010",
"I 	c #FDFDFD",
"J 	c #E4E4E4",
"K 	c #F2F2F2",
"L 	c #EEEEEE",
"M 	c #F5F5F5",
"N 	c #9B9B9B",
"O 	c #C7C7C7",
"P 	c #030303",
"Q 	c #8F8F8F",
"R 	c #F7F7F7",
"S 	c #707070",
"T 	c #D7D7D7",
"U 	c #626262",
"V 	c #EAEAEA",
"W 	c #C0C0C0",
"X 	c #686868",
"Y 	c #1C1C1C",
"Z 	c #D0D0D0",
"` 	c #2E2E2E",
" .	c #525252",
"..	c #F3F3F3",
"+.	c #717171",
"@.	c #444444",
"#.	c #DFDFDF",
"$.	c #4D4D4D",
"%.	c #B4B4B4",
"&.	c #393939",
"*.	c #777777",
"=.	c #F9F9F9",
"-.	c #595959",
";.	c #FAFAFA",
">.	c #747474",
",.	c #CFCFCF",
"'.	c #7C7C7C",
").	c #D1D1D1",
"!.	c #040404",
"~.	c #414141",
"{.	c #2A2A2A",
"].	c #F1F1F1",
"^.	c #242424",
"/.	c #1A1A1A",
"(.	c #1D1D1D",
"_.	c #1F1F1F",
":.	c #8C8C8C",
"<.	c #060606",
"[.	c #9F9F9F",
"}.	c #A8A8A8",
"|.	c #C3C3C3",
"1.	c #848484",
"2.	c #B0B0B0",
"3.	c #3C3C3C",
"4.	c #3D3D3D",
"5.	c #292929",
"6.	c #252525",
". . . . . + @ # . . . . . . . . . . . . . . . . . $ % & . . . . ",
". . . . . + @ # . . . . . . . . . . . . . . . . . $ % & . . . . ",
". . . . . + @ # . . . . . . . . . . . . . . . . . $ % & . . . . ",
". . . . . + @ # . . . . . . . . . . . . . . . . . $ % & . . . . ",
". . . . . * = - . . . . . . . . . . . . . . . . . ; % > . . . . ",
"+ + + + * , ' ) ! + + + + + + + + + + + + + + + ~ { % ] ~ + + + ",
"@ @ @ @ ^ % % / ^ @ @ @ @ @ @ @ @ @ @ @ @ @ @ @ ( % % % ^ @ @ @ ",
"# # # _ : % % < # [ # # # # # # # # # # # # # } | 1 % 2 3 # # # ",
". . . . 4 % % , 5 . . . . . . . . . . . . . . . 6 @ 7 8 9 . . . ",
". . 0 . a % } % b . 0 . . . . . . . . . . . 0 . c % d % e . . . ",
". . . f g h i j k l . . . . . . . . . . . . . m n o . % p . 0 . ",
". 0 . q r & s { t 5 . . . . . . . . . . . 0 . u % ; . v w x . . ",
". . . y % . . z % A 0 . . . . . . . . . . . B ~ % C . } % D . 0 ",
". . E F ] . . G H ! I . . . . . . . . . . . J n ) K 0 L 2 o M . ",
"0 . N % O . . . p P . 0 . . . . . . . . . . C % Q . . R S 2 T . ",
". s U g V 0 0 . e % W . . . . . . . . . . I X Y Z . 0 . z % O . ",
". f `  .... . . W ( +.. 0 . . . . . . . 0 B 7 @.K . . . #.a $.R ",
". %.% } . . . 0 . &.% . . . . . . . . . . C % *.. 0 . . =.-.= s ",
";.>.2 ,.. . . . . '.% 4 . . . . . . . . . -.w ).. . . 0 . > % _ ",
". !.X . . . . . . . P ~.. . . . . . . . . ( {.. . . . . . ].^.$.",
"/.% ( (.Y Y Y Y Y _.% / 7 Y Y Y Y Y Y Y (.% !.7 Y Y Y Y Y /.!.' ",
"r % P !.!.!.!.!.!.!.r % P !.!.!.!.!.!.!.r % r !.!.!.!.!.!.!./ % ",
"* 8 Z . . . . . . . :.<.} . . . . . . . [.% }.. . . . . . . y % ",
"*.g |.. . . . . . . 1.' 2.. . . . . . . & % $ . . . . . . . 3.% ",
"*.g |.. . . . . . . 1.' 2.. . . . . . . & % $ . . . . . . . 3.% ",
"*.g |.. . . . . . . 1.' 2.. . . . . . . & % $ . . . . . . . 3.% ",
"*.g |.. . . . . . . 1.' 2.. . . . . . . & % $ . . . . . . . 3.% ",
"*.g |.. . . . . . . 1.' 2.. . . . . . . & % $ . . . . . . . 3.% ",
"*.g |.. . . . . . . 1.' 2.. . . . . . . & % $ . . . . . . . 3.% ",
"* 8 ,.. . . . . . . :.<.} . . . . . . . [.% }.. . . . . . . y % ",
"Y !.` 4.3.3.3.3.3.< _./ 5.< 3.3.3.3.3.< n % 6.< 3.3.3.3.3.y j % ",
"% % % % % % % % % % % % % % % % % % % % % % % % % % % % % % % % "};
