/* XPM */
static const char *Tensor_xpm[] = {
/* width height ncolors chars_per_pixel */
"32 32 292 2",
/* colors */
"   c #BBE4A0",
" . c #FDE7CA",
" X c #D47900",
" o c #BAE700",
" O c #6CB73B",
" + c #F6BB00",
" @ c #E5DFDA",
" # c #D19F00",
" $ c #A55E00",
" % c #B2BB8A",
" & c #41950A",
" * c #8ACD5F",
" = c #A49258",
" - c #70A835",
" ; c #83561A",
" : c #9ECC80",
" > c #C79800",
" , c #947510",
" < c #49B701",
" 1 c #E4EFDC",
" 2 c #C7B98E",
" 3 c #B19D89",
" 4 c #D17700",
" 5 c #B15905",
" 6 c #B38800",
" 7 c #F3F1EE",
" 8 c #50CA01",
" 9 c #E5DED3",
" 0 c #E9B200",
" q c #F67900",
" w c #D2A67B",
" e c #985700",
" r c #FBFBF9",
" t c #E6EDE1",
" y c #E7E9E2",
" u c #56D900",
" i c #6EC039",
" p c #B36600",
" a c #E1F6D2",
" s c #F3F5F1",
" d c #D5A200",
" f c #F38B00",
" g c #A9D47D",
" h c #EFF1ED",
" j c #CCC2A3",
" k c #DDE0CE",
" l c #3B9600",
" z c #3B9400",
" x c #DF7F00",
" c c #C19200",
" v c #67CB00",
" b c #DCA700",
" n c #BBE800",
" m c #D2A000",
" M c #8B4400",
" N c #F08900",
" B c #EEEAE5",
" V c #D1CBB8",
" C c #CB6300",
" Z c #4CAB0D",
" A c #BE9000",
" S c #79873D",
" D c #E7B97B",
" F c #E2F0D9",
" G c #EDE5DA",
" H c #D9A500",
" J c #F5F4EF",
" K c #50CB00",
" L c #50C900",
" P c #859738",
" I c #DAE2D1",
" U c #9A5801",
" Y c #D6C48B",
" T c #6CD401",
" R c #C59500",
" E c #C27A1B",
" W c #E5EEDF",
" Q c #905301",
" ! c #F8E9D4",
" ~ c #927106",
" ^ c #606C2E",
" / c #CEB258",
" ( c #B4BC91",
" ) c #CF7600",
" _ c #D96B00",
" ` c #72E100",
" ' c #E79528",
" ] c #C4F0A7",
" [ c #C8BAA8",
" { c #647B00",
" } c #FAFAFA",
" | c #92F751",
".  c #DDA800",
".. c #8C4F00",
".X c #E8E1DB",
".o c #BFAB6A",
".O c #B15700",
".+ c #99BD02",
".@ c #EDEFE3",
".# c #CBC7BB",
".$ c #BF9100",
".% c #B25E0E",
".& c #B0CC93",
".* c #8E7012",
".= c #DAA600",
".- c #9A7500",
".; c #D37900",
".: c #894D00",
".> c #B58A00",
"., c #51CE00",
".< c #CBAD90",
".1 c #CEB089",
".2 c #51CC00",
".3 c #CCE4B5",
".4 c #D1BEA3",
".5 c #D36700",
".6 c #97BB03",
".7 c #C7DEB0",
".8 c #7F3E00",
".9 c #95B901",
".0 c #5BA114",
".q c #6CD500",
".w c #C5DCAE",
".e c #DEE5C0",
".r c #9B7704",
".t c #9A4B00",
".y c #834911",
".u c #977300",
".i c #904600",
".p c #A29364",
".a c #D7CEC3",
".s c #CFB04E",
".d c #FFFFFE",
".f c #FAFDF9",
".g c #FBFBFA",
".h c #9A8131",
".j c #DEA900",
".k c #84500B",
".l c #B68F67",
".z c #B98D00",
".x c #A2C900",
".c c #556804",
".v c #87A600",
".b c #6C8500",
".n c #5FBC00",
".m c #C1BCAD",
".M c #E88400",
".N c #ECEEE1",
".B c #758F0C",
".V c #C09200",
".C c #9B7600",
".Z c #C4B09C",
".A c #738E00",
".S c #D4A203",
".D c #AF5600",
".F c #ECB300",
".G c #80D42A",
".H c #A55100",
".J c #DACFAE",
".K c #CA6300",
".L c #A27B00",
".P c #FAF8F5",
".I c #DBC47A",
".U c #CFE0C4",
".Y c #8BAB00",
".T c #914700",
".R c #E9B100",
".E c #5DD111",
".W c #ADD700",
".Q c #BD6C00",
".! c #FAFCF8",
".~ c #FBFAF9",
".^ c #D17D0D",
"./ c #C76100",
".( c #AB9244",
".) c #92B400",
"._ c #B56F2D",
".` c #DFAA00",
".' c #B9C297",
".] c #D87B00",
".[ c #D4C8A1",
".{ c #A96000",
".} c #9F6D2B",
".| c #CFA164",
"X  c #E4DDD5",
"X. c #CEAF4F",
"XX c #70802E",
"Xo c #A79482",
"XO c #7E9C00",
"X+ c #E6AF00",
"X@ c #78A75A",
"X# c #9BC183",
"X$ c #BA6A00",
"X% c #C46100",
"X& c #E7D5C4",
"X* c #DCD6C3",
"X= c #B78C00",
"X- c #A0C600",
"X; c #C3BBB1",
"X: c #EDB400",
"X> c #FA7B00",
"X, c #E68300",
"X< c #D8C280",
"X1 c #AD6300",
"X2 c #B8E300",
"X3 c #F4B900",
"X4 c #B8AC9C",
"X5 c #633100",
"X6 c #94B275",
"X7 c #AB7540",
"X8 c #AA8100",
"X9 c #85501E",
"X0 c #678000",
"Xq c #C86200",
"Xw c #E7C149",
"Xe c #994B00",
"Xr c #B46600",
"Xt c #A2F56B",
"Xy c #9B7B5B",
"Xu c #E4E8D4",
"Xi c #F48B00",
"Xp c #B45800",
"Xa c #B69D7C",
"Xs c #FFFFFF",
"Xd c #E4DCD4",
"Xf c #FDFDFD",
"Xg c #7F9D00",
"Xh c #ECEBE9",
"Xj c #E7B000",
"Xk c #D5DFCF",
"Xl c #FEFCF4",
"Xz c #C29400",
"Xx c #CDB799",
"Xc c #C56000",
"Xv c #B88B00",
"Xb c #8EA433",
"Xn c #86A600",
"Xm c #AE8400",
"XM c #D1AE7F",
"XN c #C99900",
"XB c #A47D00",
"XV c #9D4C00",
"XC c #A8D000",
"XZ c #F4FEED",
"XA c #D37800",
"XS c #E4E6DA",
"XD c #838E53",
"XF c #9EC300",
"XG c #8E976B",
"XH c #C97300",
"XJ c #E8B207",
"XK c #F6EFE5",
"XL c #EBB300",
"XP c #AB8200",
"XI c #D8E8CE",
"XU c #5DD30F",
"XY c #C69700",
"XT c #E48200",
"XR c #C9CCBC",
"XE c #753A00",
"XW c #F9F8F5",
"XQ c #8AAB00",
"X! c #D7A300",
"X~ c #D07600",
"X^ c #9D7E1D",
"X/ c #B55900",
"X( c #DA6B00",
"X) c #9BBF00",
"X_ c #C67100",
"X` c #98AC46",
"X' c #AB5400",
"X] c #F8E8B5",
"X[ c #E8B100",
"X{ c #FCFCFB",
"X} c #A14F00",
"X| c #D09459",
"o  c #AC762F",
"o. c #F6F8F5",
"oX c #97BF7D",
"oo c #E16E00",
"oO c #F28A00",
"o+ c #6A4119",
"o@ c #EFB600",
"o# c #D76900",
"o$ c #CFD3BE",
"o% c #DFD2B0",
"o& c #5C9C1B",
"o* c #4BBD00",
"o= c #F27600",
"o- c #965602",
"o; c #C09300",
"o: c None",
/* pixels */
"o:o:o:o:o:o:o:o:.go$ yo:o:o:o:o:o:o:o:o:o:o:o:o:o:o:o:o:o:o:o:o:",
"o:o:o:o:o:o:o:o:X`Xn.B.'o:o:o:o:o:o:o:o:o:o:o:o:o:o:o:o:o:o:o:o:",
"o:o:o:o:o:o:o:.N.x.WXQX0 %o:o:o:o:o:o:o:o:o:o:o:o:o:o:o:o:o:o:o:",
"o:o:o:o:o:o:o:Xu.WX2XFXO.c ko:o:o:o:o:o:o:o:o:o:o:o:o:o:o:o:o:o:",
"o:o:o:o:o:o:o:.@.9 nX).) {XGo:o:o:o:o:o:o:o:o:o:o:o:o:o:o:o:o:o:",
"o:o:o:o:o:o:o:o: P oXCXnXg ^o:o:o:o:o:o:o:o:o:o:o:o:o:o:o:o:o:o:",
"o:o:o:o:o:o:.7.&XR.6X-.Y.AXXo:o:o:o:o:o:o:o:o:o:o:o:o:o: :X@o:o:",
"o:o:o:o:o: g v -o: (.+.v.bXDo:o:o:o:o:o:o:o:o:o:o:o:o: 1 < z to:",
"o:o:o:o:.3 `.nX6o:o:.eXb SXSo:o:o:o:o:o:o:o:o:o:o:o:o:   L lXko:",
"o:o:o:o:.G.qo& so:o:o:o:o:o:o:o:o:o:o:o:o:o:o:o:o:o:o: ] K &o.o:",
"o:o:o:Xf T.0 IX* V ro:o:o:o:o:o:o:o:o:o:o:o:o:o:o:o:o:XZ.EX#o:o:",
"o:o:o:o:.w h.s RXv.*.#o:o:o:o:o:o:XW.~o:o:o:o:o:o:o:o:o:.!o:o:o:",
"o:o:o:o:o:.[.`X3 #.$ ~.mo:o:o: 9o  U ;X4o:o:o:o:o:o:o:o:o:o:o:o:",
"o:o:o:o:o:X<o@ +XL A.z ,Xho: 7 E XX_X$o-X;o:o:o:o:o:o:o:o:o:o:o:",
"o:o:o:o:o:.I.FX:XL. X=XP.po:.1X, N.;X$.{.}o:o:o:o:o:o:o:o:o:o:o:",
"o:o:o:o:o:X]Xj 0XL.R.VX8.r J.|oO.MXTXH $ e Go:o:o:o:o:o:o:o:o:o:",
"o:o:o:o:o:XlXJX[X+.j HXm.L.J D fX, xX~Xr..Xxo:o:o:o:o:o:o:o:o:o:",
"o:o:o:o:o:o:XwX!.=. .  c.u.o .Xi.M 4 )X$.: [o:o:o:o:o:o:o:o:o:o:",
"o:o:o: }.Z 3o%.S d b m >.C.(.d '.]XA.Q p.k Bo:o:o:o:o:o:o:o:o:o:",
"o:o:.~X7Xp.HX9X.XYXzXNXNXB =o: !.^XrX1 Q.4o:o:o:o:o:o:o:o:o:o:o:",
"o:o:.<o#X(.D.T.l /.>o; 6.- jo:o:XKXMXa.ao:o:o:o:o:o:o:o:o:o:o:o:",
"o:o:._o=.5Xc.i.y.P Y.hX^ 2o:o:o:o:o:o:o:o:o:o:o:o:o:o:o:o:o:o:o:",
"o:o: 5 q.K./XeXEXdo:o:o:o:o:o:o:o:o:o:o:o:o:o:o:o:o:o:o:o:o:o:o:",
"o:o:.%X> CX/X'X5X o:o:o:o:o:o:o:o:o:o:o:o:o:o:o:o:o:o:o:o:o:o:o:",
"o:o:X|ooXq.OXVo+X{o:o:o:o:o:o:o:o:o:o:o:o:o:o:o:o:o:o:o:o:o:o:o:",
"o:o:X& _X%.t MXoo:o:o:o:o:o: F * O.Uo:o:o:o:o:o:o:o:o:o:o:o:o:o:",
"o:o:o: wX}.8Xy.~o:o:o:o:o: aXU.2o*oXo:o:o:o:o:o:o:o:o:o:o:o:o:o:",
"o:o:o:o:.X @o:o:o:o:o:o:o: | u., Z Wo:o:o:o:o:o:o:o:o:o:o:o:o:o:",
"o:o:o:o:o:o:o:o:o:o:o:o:o:Xt 8 iXIo:o:o:o:o:o:o:o:o:o:o:o:o:o:o:",
"o:o:o:o:o:o:o:o:o:o:o:o:o:o:.fo:o:o:o:o:o:o:o:o:o:o:o:o:o:o:o:o:",
"o:o:o:o:o:o:o:o:o:o:o:o:o:o:o:o:o:o:o:o:o:o:o:o:o:o:o:o:o:o:o:o:",
"o:o:o:o:o:o:o:o:o:o:o:o:o:o:o:o:o:o:o:o:o:o:o:o:o:o:o:o:o:o:o:o:"
};
