/* XPM */
static const char * Displace_xpm[] = {
"32 32 21 1",
" 	c None",
".	c #4BA8FE",
"+	c #65B4FE",
"@	c #2F9AFE",
"#	c #0083FE",
"$	c #77BDFE",
"%	c #0067C7",
"&	c #0057A9",
"*	c #05B200",
"=	c #037200",
"-	c #07E000",
";	c #025100",
">	c #048900",
",	c #025400",
"'	c #C6AC83",
")	c #CEB895",
"!	c #BD9F70",
"~	c #AE894F",
"{	c #D4C0A1",
"]	c #896C3E",
"^	c #745C35",
"  ..++                          ",
" @##$$+                         ",
"#####$$+                        ",
"%######.                        ",
"&######.                        ",
"&%#####@                        ",
" &%####                         ",
"  &&&% ***                      ",
"       ==-***                   ",
"       ;=>>-****                ",
"        ;=>>>-***               ",
"        ;=>>>>>>                ",
"        ;==>>>>                 ",
"         ;=>>>>*                ",
"         ;==>=>>*               ",
"         ;== ,=>>*              ",
"          ;   ,=>>*             ",
"               ,=>>*            ",
"                ,=>>*           ",
"                 ,=>>*          ",
"                  ,=>>*         ",
"                   ,=>>*        ",
"                    ,=>>        ",
"                     ,=>  ''))  ",
"                         !~~{{) ",
"                        ~~~~~{{)",
"                        ]~~~~~~'",
"                        ^~~~~~~'",
"                        ^]~~~~~!",
"                         ^]~~~~ ",
"                          ^^^]  ",
"                                "};
