/* XPM */
static const char * Reflect_xpm[] = {
"32 32 40 1",
"9 	c None",
".	c #39363C",
"+	c #800E80",
"@	c #577E56",
"#	c #58FC58",
"$	c #1C9E1D",
"%	c #6A666A",
"&	c #2EC22F",
"*	c #80A780",
"=	c #9DB09D",
"-	c #579F57",
";	c #FE8EFE",
">	c #39DC39",
",	c #B3FEB3",
"'	c #9D249D",
")	c #185B1C",
"!	c #FEADFE",
"~	c #5CB651",
"{	c #79ED79",
"]	c #8FFE8F",
"^	c #EA9BEA",
"/	c #126812",
"(	c #48F748",
"_	c #7E667E",
":	c #56C256",
"<	c #B621B6",
"[	c #4BA24B",
"}	c #408539",
"|	c #A6BFA6",
"1	c #76D35A",
"2	c #70FD70",
"3	c #FED8FE",
"4	c #F967F9",
"5	c #198219",
"6	c #27AE29",
"7	c #5CE65D",
"8	c #42EC42",
"0	c #713E72",
"a	c #FEF6FE",
"b	c #DD3CDD",
"99999999999999999999999999999999",
"99999999999999999999999999999999",
"999999999999999==999999999999999",
"999999999999|[$$5$-*|99999999999",
"999=-}}}-=9|&8>(###2:9=*@*=|9999",
"9|:6>>>>>>:@68(2,]2#66$$$56&~=99",
"9*8&82222226$&(#]276>>>>8>(##799",
"9*&>],,]2#86/000*2#5&8((],]22(|9",
"9=682]]2##>0b444b08/$&8#],]2#>=9",
"9=6>2]]2#80b4^!^4b0)$&>(2]22(&99",
"99$&2]]#([<4^333!4<)$&>#2]2#8699",
"99}6#2]#8%b;!aaa!;b.56&#2]2(>[99",
"99*5&228&0b;!3a3!;b./$682]#>6*99",
"999*5&>$5.b4;!3!^4b0)/$>{2>$}999",
"99999=|=9_'b4;^;4b+}|=@$$&-=9999",
"99999|*@/%0<b44bb'%#*99*=9999999",
"999=}55$55).+<<<+%1>}@/))@999999",
"9995$>&6&&86))%@~2(}}$$$5$6[9999",
"9995>67#222>5$>2]#&$8:~&&(>:~999",
"999}>1,,]2(&))//[(6$>(811[1}:999",
"999[>2]]2#65//55//)5&>7],{7>-999",
"999-&#2]2>6&$$$$$6$$&>(2]2#>*999",
"999=$72]#68>>&&>(#2>$&#2]2(&=999",
"9999*&228$8(>>##222>$&82]#>[9999",
"99999*:>[$&(#{,]22(&}5>22>~|9999",
"999999999}&>#{,]2#8$==[::*999999",
"999999999}$>(7]]2#>$=99999999999",
"999999999*5&#7]2#(&[999999999999",
"9999999999-$>{]2(>$=999999999999",
"99999999999*&7](>[=9999999999999",
"999999999999*&8&=999999999999999",
"99999999999999999999999999999999"};
