/* XPM */
static const char * ci_tridown_xpm[] = {
"32 32 2 1",
" 	c None",
".	c #000000",
"                                ",
"                                ",
"                                ",
"                                ",
"                                ",
"  ............................  ",
"  ............................  ",
"   ..........................   ",
"    .........................   ",
"    ........................    ",
"     ......................     ",
"      .....................     ",
"      ....................      ",
"       ...................      ",
"       ..................       ",
"        ................        ",
"         ...............        ",
"         ..............         ",
"          .............         ",
"           ...........          ",
"           ..........           ",
"            .........           ",
"             .......            ",
"             .......            ",
"              .....             ",
"               ...              ",
"               ...              ",
"                .               ",
"                                ",
"                                ",
"                                ",
"                                "};
