/* XPM */
static const char * animationreversestep_xpm[] = {
"32 32 10 1",
".	c #020202",
"+	c #060606",
"@	c #A2A2A2",
"#	c #222222",
"$	c #323232",
"%	c #3A3A3A",
"&	c #929292",
"*	c #525252",
"=	c None",
"-	c #B2A2A2",
"================================",
"================-=====@@@@@=====",
"===============&*@===@.....@====",
"==============&$$@===@.....@====",
"=============&$+#@===@.....@====",
"============&$+.#@===@.....@====",
"===========&$+..#@===@.....@====",
"==========&$+...#@===@.....@====",
"=========&$+....#@===@.....@====",
"========&$+.....#@===@.....@====",
"=======&$+......#@===@.....@====",
"======&$+.......#@===@.....@====",
"=====&$+........#@===@.....@====",
"====&$+.........#@===@.....@====",
"===&$+..........#@===@.....@====",
"==@%+...........#@===@.....@====",
"==-%+...........#@===@.....@====",
"===&$+..........#@===@.....@====",
"====&$+.........#@===@.....@====",
"=====&$+........#@===@.....@====",
"======&$+.......#@===@.....@====",
"=======&$+......#@===@.....@====",
"========&$+.....#@===@.....@====",
"=========&$+....#@===@.....@====",
"==========&$+...#@===@.....@====",
"===========&$+..#@===@.....@====",
"============&$+.#@===@.....@====",
"=============&$+#@===@.....@====",
"==============&$#@===@.....@====",
"===============&*@===@.....@====",
"================-=====@@@@@=====",
"================================"};
