/* XPM */
static const char * boxtool_xpm[] = {
"31 32 26 1",
" 	c None",
".	c #3A66AC",
"+	c #6FB2FE",
"@	c #639AE8",
"#	c #5690E3",
"$	c #528ADD",
"%	c #5186D8",
"&	c #597BB4",
"*	c #4676C3",
"=	c #416FB7",
"-	c #679EEE",
";	c #3E6AB1",
">	c #69A2F1",
",	c #5B96EA",
"'	c #66A6F1",
")	c #7CB3FD",
"!	c #497AC5",
"~	c #6A8ECA",
"{	c #79A9F3",
"]	c #71B6FE",
"^	c #4C71B0",
"/	c #5376B1",
"(	c #6191DA",
"_	c #3E6AB6",
":	c #4E82D4",
"<	c #6BADFD",
"               ))<++           ",
"      ))))+<<<<<<{''<<)        ",
")]+++<<+<<+<<<<<<<<<<<<<)      ",
">-+++]++]+++++<<<++<<<<<<<+)   ",
"-,,<+]]+]++++]+++<++<<<<<<<<<) ",
"{,,#>]]]]]]]]+]]+]++]]+<',#%!=&",
"@,,###+]]]]]]]]+<',#:!=_;.;;._=",
">,####$']+',#%!=;;=;;__.;_.;;./",
"-,,###$$====;_=__;;;;;_;;;..;;^",
"-,###$$%*;===___;__;;;;.;_;;../",
"{,###$$%==;;;_=_;;_;._;....;.;^",
" ,,###$%*___=;;;;;;__.;;;;;.;.&",
" ####$$%==_;=.__;;.;;;........ ",
" ,##$$$%*_=_;___.;;;_._;;.;... ",
" ,###$$%=___;;;___.;;...;..;.. ",
" ###$$%%*_;;;;;;;;_..;;;...... ",
" ,###$%%*;__;.;..;;;.....;.... ",
" ###$$$%*_;;__.;;...;......... ",
" ,##$$%:*;;;;;;._;;.;.;....... ",
" @#$$%%%*.;.;_.;...;.;.......; ",
" @##$%%:*._..;._;............/ ",
" ,#$$$:%*_;;;.;..;...........; ",
"  #$$$%%!;.._.;...;........../ ",
"  -$$%%:*.;;.;...............; ",
"   ,$%%:!..;..;.;............^ ",
"    $%::*;;..................^ ",
"     %%:!..;;...............;  ",
"     #::*;;..;...........;     ",
"      #:*............./        ",
"       %!........^/            ",
"        !....^/                ",
"        ~/&                    "};
