/* XPM */
static const char * choosecenterofrotation_xpm[] = {
"32 32 25 1",
"-	c None",
".	c #32A6FA",
"+	c #468AB6",
"@	c #36A2FA",
"#	c #A7A7A7",
"$	c #FEFEFE",
"%	c #0AEEF2",
"&	c #B2B2B2",
"*	c #666666",
"=	c #10E3F4",
";	c #1CD0F4",
">	c #999999",
",	c #F0F0F0",
"'	c #B6B6B6",
")	c #24C2F6",
"!	c #BABABA",
"~	c #767676",
"{	c #E6E6E6",
"]	c #C4C4C4",
"^	c #32AAFA",
"/	c #DADADA",
"(	c #7A7A7A",
"_	c #04FBF2",
":	c #2CB3F7",
"<	c #868686",
"--------------<$<---]]]]--------",
"--------------<$<--]++!]]]]-----",
"--------------<$<--]@@+++!]]]]--",
"--------------<$<--]@@@@@+++!]]-",
"-----]]]------<$<--]@@@@@@@@+&]]",
"----]_!]]-----<$<--]@@@@@..^^#!]",
"---]__&!]-----<$<--]@...^^^+<#!]",
"--]__##!]--!<<<$<<<!^^^^^::<>&]]",
"-]___>&]]->/$$$$$$$/^:::::::#!]-",
"-]__>#!]->!$<<<$<<<$:::<:)))+&]]",
"]___>&]]>!$#--<$<-->,>~>)))))#!]",
"]___>']!/$#---<$<--]>,-&&);;;+&]",
"]__%>']<$<----<$<---]<$<]&;;;;#!",
"]%%%>']<$<----<$<----<$<]];;;;>'",
"<%%=*(<<$<<<<<<$<<<<<<$<<<(===*(",
"$===]{$$$$$$$$$$$$$$$$$$$$,===]{",
"<===*(<<$<<<<<<$<<<<<<$<<<<=%%*(",
"]=;;;&]<$<----<$<----<$<--]%%%>'",
"];;;;>!<$<----<$<----<$<--]%__>'",
"]+;;;)&]/$#---<$<---#$/!--]___>'",
"]!)))))&>!$>]-<$<--#$!>---]___>'",
"]]+))):>:::,<<<$<<<$!>----]__<#!",
"-]!:::::::^<,$$$$$$/>----]___>&]",
"-]]&::^^^^^>(<<$<<<!-----]__>#!]",
"--]+^^^...@>']<$<-------]__>>&]]",
"-]^^..@@@@@>']<$<-------]_##&]]-",
"-]+@@@@@@@@>']<$<-------]!&']]--",
"-]!+++@@@@@>']<$<-------]]!]]---",
"-]]&#>+++@@>']<$<--------]]]----",
"--]]!'&#>++>']<$<---------------",
"---]]]]!'&##!]<$<---------------",
"------]]]]!!]]<$<---------------"};
