/* XPM */
static const char * closedbook_xpm[] = {
"34 33 7 1",
" 	c None",
".	c #800080",
"+	c #000000",
"@	c #808080",
"#	c #808000",
"$	c #FFFF00",
"%	c #FFFFFF",
"                                  ",
"                ..+               ",
"               .@..++             ",
"              .@.....++           ",
"             .@........++         ",
"            .@...........++       ",
"           .@..............++     ",
"          .@.....#$$$#.......++   ",
"         .@.....$$$$$$$........++ ",
"        .@.....$$$###$$$........+ ",
"       .@.....#$$....$$$.......+  ",
"      .@........#...#$$$......++  ",
"     .@..........#$$$$$......+@+  ",
"    .@.........#$$$$$#......+@ +  ",
"   .@.........#$$$##.......+@  +  ",
"  .@............##........+@   +  ",
" .+++........#$#.........+@    +  ",
" .+@@++......$$$.........@     ++ ",
" .+  @@++....#$#.......+@     +.+ ",
" .+ %% @@++...........+@     +.+  ",
" .+ %%%% @@++........+@     +.+   ",
" .+ %%%%%% @@++.....+@     +.+    ",
" ...@@%%%%%% @@++..+@     +.+     ",
"  ++..@@%%%%%% @@++@     +.+      ",
"    ++..@@%%%%%% @@     +.+       ",
"      ++..@@%%%%%%%    +.+        ",
"        ++..@@%%%%%   +.+         ",
"          ++..@@%%%  +.+          ",
"            ++..@@% +.+           ",
"              ++..@+.+            ",
"                ++..+             ",
"                  ++              ",
"                                  "};
