/* XPM */
static const char * perspectiveoff_xpm[] = {
"32 32 10 1",
" 	c None",
".	c #2F2F2F",
"+	c #A6A6A6",
"@	c #6E6E6E",
"#	c #727272",
"%	c #9B9B9B",
"&	c #8C8C8C",
"*	c #5F5F5F",
"=	c #797979",
"-	c #BABABA",
"$$$$$$$$$-++++++++++++++++++++$$",
"$$$$$$$$+=....................+$",
"$$$$$$$+#.*==============#*...%$",
"$$$$$$+@..&--------------%*...+$",
"$$$$$+#..*&$$$$$$$$$$$$-+@....%$",
"$$$$+*..@++$$$$$$$$$$$$+*..**.+$",
"$$$+=..*+-+$$$$$$$$$$$+#..*%@.+$",
"$$+*..@+$-%$$$$$$$$$$+*..*+-=.+$",
"$+=..*+$$-+$$$$$$$$$+#..*+--#.+$",
"-*...&++%%&%%%%%%%%%*..@--$-=.+$",
"+.....................*+-$$-#.+$",
"%..*@@===##=======...@+-$$$-=.+$",
"+.=+-----+%------+#.*+-$$$$-@.+$",
"+.#-$$$$$-+$$$$$$-@.%-$$$$$-=.+$",
"+.=-$$$$$-+$$$$$$+#.+$$$$$$-@.+$",
"+.#+$$$$$-%$$$$$$-=.+$$$$$$-=.+$",
"+.=-$$$$$-+$$$$$$-#.+$$$$$$-#.+$",
"+.@-$$$$$-%-$$$$$-=.+$$$$$$-@.+$",
"+.=-$$$$--++%+%++%#.&+%+%%%@..+$",
"+.#+$$$--++-------@.%----+*..@$$",
"+.=-$$--++-$$$$$$-#.+$$$+@..*+$$",
"+.@-$--++-$$$$$$$-=.+$$+*..@+$$$",
"+.=---++-$$$$$$$$-@.+$-@..*+$$$$",
"+.=--++-$$$$$$$$$-=.%+*..@+$$$$$",
"+.=-++-$$$$$$$$$$-#.%@..*+$$$$$$",
"+.@%+-$$$$$$$$$$$-#....@+$$$$$$$",
"+.@&---------+--++@...*+$$$$$$$$",
"+.*@#=#@@@@@@###=#...@+$$$$$$$$$",
"+...................*+$$$$$$$$$$",
"$+++++++++++++++++%+-$$$$$$$$$$$",
"$$$$$$$$$$$$$$$$$$$$$$$$$$$$$$$$",
"$$$$$$$$$$$$$$$$$$$$$$$$$$$$$$$$"};
