/* XPM */
static const char * removelastoperator_xpm[] = {
"32 32 23 1",
". 	c None",
"+	c #CF9898",
"@	c #E15F5F",
"#	c #F02D2D",
"$	c #FC0707",
"%	c #E06262",
"&	c #FF0000",
"*	c #000000",
"=	c #8B0000",
"-	c #880000",
";	c #310000",
">	c #060000",
",	c #8E8E8E",
"'	c #B45C5C",
")	c #F90606",
"!	c #A66E6E",
"~	c #D83030",
"{	c #B85757",
"]	c #F80707",
"^	c #938787",
"/	c #C30000",
"(	c #F50000",
"_	c #00FFFF",
"............+@#$$#@+............",
"...........%&&&&&&&&%...........",
".......***=&&-;>>;&&&=***.......",
".......*,'&)!,,,,&&&)&',*.......",
".......*,~&{,,,,&&&,{&~,*.......",
".......*,]&^,,,&&,,,^&],*.......",
".......*,]&^,&&&,,,,^&],*.......",
".......*,~&{&&&,,,,,{&~,*.......",
".......*,'&&&&,,,,,!)&',*.......",
".......***=&&-;>>;-&&=***.......",
"...........%&&&&&&&&%...........",
"............+@/((/@+............",
".......******************.......",
".......*________________*.......",
".......*________________*.......",
".......*________________*.......",
".......*________________*.......",
".......*________________*.......",
".......*________________*.......",
".......******************.......",
"..............****..............",
"..............****..............",
".......******************.......",
".......*________________*.......",
".......*________________*.......",
".......*________________*.......",
".......*________________*.......",
".......*________________*.......",
".......*________________*.......",
".......******************.......",
"................................",
"................................"};
