/* XPM */
static const char *subset_xpm[] = {
"16 16 10 1",
"= c None",
". c #1805EA",
"+ c #0C44C4",
"@ c #893192",
"# c #5A4CC8",
"$ c #2DEC92",
"% c #B581AB",
"& c #FD0606",
"* c #02FE02",
"- c #04E6D7",
"=======%%%%=====",
"======%&&&&&====",
"===$---%==%&&===",
"==$-=@%-$==%&&==",
"=$-=%&=$-$%%%&==",
"=-==%&=%+-..@&==",
"=-==%@#.+-=%.@==",
"=-==$+.+*-=%@.%=",
"=-$$*+.@--%&%##=",
"==--=#+-$$$%=##=",
"==*----$==*==+#=",
"==*$==++==*=+.%=",
"==*$==%.+%-+.%==",
"==$*$==%....%===",
"===$*$==*$======",
"====$***$======="
};
