/* XPM */
static const char * undoview_xpm[] = {
"29 27 8 1",
" 	c None",
".	c #00FF00",
"+	c #000000",
"@	c #00B700",
"#	c #FFFFFF",
"$	c #848484",
"%	c #C6C6C6",
"&	c #BEBEBE",
"         ..                  ",
"        ...  ++++            ",
"       ...@ +###$+           ",
"     ..... +%%%%+$+  ++++$   ",
"   +............%++++###$+++ ",
"  +...............$%+++++$%%+",
" +#@......@@@@@....#######%$+",
"+#%%@.....%%%%%@@...%%%%%%$$+",
"+#%%%%@....+++++%@...%%%%%$$+",
"+#%%%%%&@..%%%%#+%@...%%%%$++",
"+++++++++@@####+++@...+++++++",
"+++++++++%%%%%##+++@...++++%+",
"+++++++%%+++++%%$$+@...++++%+",
"++++++%$+$$$$$+$%+++@...+++%+",
"++++++%+$$%#%$$+%$++@...+++%+",
"+++++%+$$%#$$$$$+%++@...+++%+",
"+++++%+$$#%$$$$$+%++@...+++%+",
"+++++%+$$#$$$$$$+%++@...+++%+",
"+++++%+$$%$$$$$$+%++@...+++%+",
"+++++%+$$$$$$$$$+%++@...+++%+",
"++++++%+$$$$$$$+%+++...@+++++",
"++++++%$+$$$$$+$%+++...@++++ ",
" ++++++%%+++++%%+++...@@+++  ",
"  ++++++$%%%%%$+++....@+++   ",
"        $+++++$  ....@       ",
"                 @..@        ",
"                  @@         "};
