/* XPM */
static const char * viewlockoff_xpm[] = {
"32 32 19 1",
".	c None",
"+	c #B8B6C3",
"@	c #A09FB1",
"#	c #878699",
"%	c #DAD9E6",
"&	c #F2F2F8",
"*	c #9190A6",
"=	c #7A7784",
"-	c #575777",
";	c #020206",
">	c #424669",
",	c #706A6E",
"'	c #626273",
")	c #091562",
"!	c #CAC9D8",
"~	c #394BB9",
"{	c #1E3486",
"]	c #686888",
"^	c #2323AE",
"................................",
"..............+@#@..............",
"...........%&+*=-;>.............",
"..........%#,#@+@')-............",
".........%#@#@..+!=>=...........",
".........%#@......+,@@..........",
"........%##@......+%,#..........",
"........%#@.......+&,#..........",
"........%#@........%,*..........",
"...................%=@..........",
"...................%=@..........",
"...................%=@..........",
"...................%=*..........",
"......%!%+!++!!*@++@##@@........",
".....!&%%!%!!!+@******@+@.......",
".....!&%!%!!!!+*****@**++.......",
".....+&%%%!%!!!**@@@@@@+@.......",
".....!&%%!!!!++*@@@@*@@++.......",
".....!&!!!!+!++####****++.......",
".....+&%%!!!!!+********!@.......",
".....+&%%%!!!!+@@***@@+++.......",
".....!&%!!!!+!+**@@@@*@++.......",
".....+&%!!!!!++*@@@+@@+!+.......",
".....+&%!!!!+++@*@**@**++.......",
".....!%%%%!!!!+*@@@@@@+@+.......",
".....+-~{~{{{{{)));)))))].......",
".....@~{{{{{{{)))))))))){.......",
".....*~~{{{{))))))))))))).......",
".....#~~{{{{{{{^^^{^{{>~'.......",
"......%!!!+++++@@@+++++@........",
"................................",
"................................"};
