/* XPM */
static const char *zoommode_xpm[] = {
"32 32 157 2",
"`` c #2A221C",
"`a c #666664",
"`b c #221214",
"`c c #6A5E54",
"`d c #5E5E5C",
"`e c #2E0E0C",
"`f c #565A54",
"`g c #565654",
"`h c #E2E2E4",
"`i c #565254",
"`j c #9E9A94",
"`k c #6E4A44",
"`l c #7A423C",
"`m c #4E4E4C",
"`n c #DADADC",
"`o c #4E4A4C",
"`p c #96968C",
"`q c #96928C",
"`r c #66423C",
"`s c #968A8C",
"`t c #464644",
"`u c #D2D2D4",
"`v c #8E8A84",
"`w c #8E8684",
"`x c #6A322C",
"`y c #3E3E3C",
"`z c #CACACC",
"a` c #3E3A3C",
"aa c #86827C",
"ab c #C2C6C4",
"ac c #622624",
"ad c #C2C2C4",
"ae c #363234",
"af c #BABEBC",
"ag c #4E2224",
"ah c #BABABC",
"ai c #461E1C",
"aj c #461A1C",
"ak c #B2B2B4",
"al c #6E6A64",
"am c #6E6664",
"an c #3E1614",
"ao c #4A120C",
"ap c #AAAAAC",
"aq c #66625C",
"ar c #36120C",
"as c #725E54",
"at c #A2A2A4",
"au c #220A0C",
"av c #6A564C",
"aw c #9A9E9C",
"ax c #9A9A9C",
"ay c #1A0A04",
"az c #9A969C",
"b` c #9E968C",
"ba c #929294",
"bb c #968A84",
"bc c #8A8A8C",
"bd c #46423C",
"be c #828284",
"bf c #827E84",
"bg c #5E2A2C",
"bh c #868274",
"bi c #7A7A7C",
"bj c #727274",
"bk c #5A1E14",
"bl c #726E74",
"bm c #BAB6B4",
"bn c #2E2624",
"bo c #2E2224",
"bp c #766A64",
"bq c #6A6A6C",
"br c #261E1C",
"bs c #626264",
"bt c #AAAAA4",
"bu c #AAA6A4",
"bv c #1E1614",
"bw c #5A5A5C",
"bx c #2A0A0C",
"by c #5A565C",
"bz c #A29E9C",
"c` c #724E4C",
"ca c #724A4C",
"cb c #220A04",
"cc c #525254",
"cd c #9A9694",
"ce c #76423C",
"cf c #763E3C",
"cg c #4A4A4C",
"ch c #928E8C",
"ci c #424244",
"cj c #8A8A84",
"ck c #8A8684",
"cl c #463E34",
"cm c #662E2C",
"cn c #827E7C",
"co c #BEC2C4",
"cp c #7A7674",
"cq c #866E6C",
"cr c #6A6A64",
"cs c #76665C",
"ct c #6A6664",
"cu c #261A14",
"cv c #32120C",
"cw c #625E5C",
"cx c #1E0E0C",
"cy c #5A5A54",
"cz c #E6E6E4",
"d` c #5A5654",
"da c #DEDEDC",
"db c #524E4C",
"dc c #D6D6D4",
"dd c #4A4644",
"de c #6E322C",
"df c #CECECC",
"dg c #623234",
"dh c #423E3C",
"di c #5A2E2C",
"dj c #C6C6C4",
"dk c #3A3634",
"dl c #76767C",
"dm c #5E221C",
"dn c #BEBEBC",
"do c #322E2C",
"dp c #322A2C",
"dq c #6E7274",
"dr c #6E6E74",
"ds c #4A1E1C",
"dt c #B6B6B4",
"du c #AEAEAC",
"dv c #AEAAAC",
"dw c #6A625C",
"dx c #5E5E64",
"dy c #A6A6A4",
"dz c #260E0C",
"e` c #9E9E9C",
"ea c #9E9A9C",
"eb c #1E0604",
"ec c #969694",
"ed c #969294",
"ee c #524E44",
"ef c #8E8E8C",
"eg c #8E8A8C",
"eh c #564234",
"ei c #4A423C",
"ej c #868684",
"ek c #92827C",
"el c #62322C",
"em c #7E7E7C",
"en c #7E7A7C",
"eo c #5A2624",
"ep c #767674",
"eq c #767274",
"er c #826E6C",
"es c #322624",
"et c #6E6E6C",
"eu c #4A1A14",
"akakakakakakakakakakakakakakakakakakakakakakakakakakakakakakakak",
"akakakakakakakakakakakakakakakakakakakakakakakakakakakakakakakak",
"akakakakakakakakakakakakakakakakakakakakakakakakakakakakakakakak",
"akakakakakakake`ckcnaa`qakakakakakakakakakakakakakakakakakakakak",
"akakakakak`v`i`m`mbw`d`t`yepakakakakakakakakakakakakakakakakakak",
"akakakbuaq`mbiecazaxbabfbs`iddduakakakakakakakakakakakakakakakak",
"akakcdaqetefdtahahdtakdyefbq`m`gakakakakakakakakakakakakakakakak",
"akaxalepaxduahdndndndndtdyej`aaxbqakakakakakakakakakakakakakakak",
"duemeqawatdtdtdtahdndndtdue``zdfecchakakakakakakakakakakakakakak",
"efepapaddfate`atdydyapapdydn`ndc`uctakakakakakakakakakakakakakak",
"ep`pdcda`ndtececaxaxe`atdyataddadcenakakakakakakakakakakakakakak",
"`abz`z`hda`napaxaxaxe`e`dyatax`z`ncjakakakakakakakakakakakakakak",
"cw`jap`hczdadcapaxe`e`e`atdye`ax`zegakakakakakakakakakakakakakak",
"`daabuad`hda`udyaxe`axe`dydyatefenaaakakakakakakakakakakakakakak",
"bscwdvatdndfdye`e`e`e`atdydyatejamb`akakakakakakakakakakakakakak",
"et`gcneadududududuakakdtdtakdyembpbbakakakakakakakakakakakakakak",
"embwd`emapahdndndnadaddjabdnbtbhcscsasekakakakakakakakakakakakak",
"babjbw`gcrbudtafcoadadadaddudwbnclehaobkc`buakakakakakakakakakak",
"akefetbwbwdbcpbzdtahbmbu`wcwcy`gbddzareudmel`sakakakakakakakakak",
"akakefepbsdxd``odddddb`deqedaxbi`mdpcx`eds`xaccqakakakakakakakak",
"akakakaxbcbidqetdrdlbebaapakakecbq`mdk`bauaj`xdecadyakakakakakak",
"akakakakakdue`ecaxdyduakakakakakbabjcc`ycucbanbgcfcm`sakakakakak",
"akakakakakakakakakakakakakakakakakaxbi`g`t``aycvagceeoerakakakak",
"akakakakduakakakakakakakakakakakakakapbe`dcgdocxbxaicf`x`kdyakak",
"akakakakakakakakakakakakakakakakakakakakbc`a`ma`bvebandg`l`rapak",
"akakakakakakakakakakakakakakakakakakakakakbablcccibraycvdiavaaak",
"akakakakakakakakakakakakakakakakakakakakakakecbi`f`tboayes`ceeap",
"akakakakakakakakakakakakakakakakakakakakakakakatbebs`taedhei`wak",
"akakakakakakakakakakakakakakakakakakakakakakakakdubc`a`gbybeakak",
"akakakakakakakakakakakakakakakakakakakakakakakakakakaxaxaxakakak",
"akakakakakakakakakakakakakakakakakakakakakakakakakakakakakakakak",
"akakakakakakakakakakakakakakakakakakakakakakakakakakakakakakakak"
};
