/* XPM */
static const char * Elevate_xpm[] = {
"32 32 50 1",
"c 	c None",
".	c #022C1E",
"+	c #0A2A02",
"@	c #498102",
"#	c #3A3E3A",
"$	c #028511",
"%	c #5E5E2E",
"&	c #18970B",
"*	c #5B8B7F",
"=	c #51A802",
"-	c #02B541",
";	c #8E7A36",
">	c #E0DE02",
",	c #12B349",
"'	c #02B5CE",
")	c #767676",
"!	c #64CA02",
"~	c #908985",
"{	c #4BCD2A",
"]	c #91ABA5",
"^	c #E77F02",
"/	c #02E420",
"(	c #9EE002",
"_	c #17CBCA",
":	c #028FB3",
"<	c #B5B25D",
"[	c #267EEA",
"}	c #02BD84",
"|	c #4AEF02",
"1	c #024FB2",
"2	c #3D754F",
"3	c #A9A39E",
"4	c #5EC26B",
"5	c #17DC0B",
"6	c #02E2C6",
"7	c #626A6A",
"8	c #A4AC02",
"9	c #02D22C",
"0	c #025932",
"a	c #986802",
"b	c #46A547",
"d	c #145D20",
"e	c #75B97D",
"f	c #0C8480",
"g	c #028A58",
"h	c #02E67E",
"i	c #3AE6E6",
"j	c #BB5D30",
"k	c #B1AE18",
"l	c #74E302",
"cccccccccccccccccccccccccccccccc",
"cccccccccccccccccccccccccccccccc",
"ccccccccccc3cccc3ccccccccccccccc",
"cccccccccc3jccc;jccccccccccccccc",
"cccccccccc~jcccjjccccccccccccccc",
"cccccccccc~^cc3a^<cccccccccccccc",
"cccccccccc;^cc~;kkcccccccccccccc",
"cccccccccc;k<c%8>><ccccccccccccc",
"ccccccccc];><~%8>>>k<ccccccccccc",
"cccccccc<@@>(=@!((((!<cccccccccc",
"cccccccc*@=(!===!!l!!!]ccccccccc",
"ccccccc]$2=ll===&!!====b]ccccccc",
"cccccccd&d=||,&$d!ll!!!!&&b=4ccc",
"cccccc2$-d,5|,$+@{||||||{&&954cc",
"ccccc2$&$$955&0.&{||||||cce44#)c",
"cccc2$--.&99-$.d&95////ccccccc~c",
"ccc2g}9g0999-d0$-9////{ccccccccc",
"cc2g_h6g-hh9&0d&-99///cccccccccc",
"c]b}66:,hhh}g0$---99/4cccccccccc",
"cccceff]ihh}d0g----}9ccccccccccc",
"ccccc3*cc66'0f-}-,,-4ccccccccccc",
"ccccccccci6f0'}},gg,cccccccccccc",
"cccccccccc'd:__}:ffbcccccccccccc",
"ccccccccccccc__'f00ccccccccccccc",
"ccccccccccccce':0.2ccccccccccccc",
"cccccccccccccc:f.7cccccccccccccc",
"cccccccccccccc[1#ccccccccccccccc",
"cccccccccccccc*.3ccccccccccccccc",
"cccccccccccccc~#cccccccccccccccc",
"ccccccccccccccc~cccccccccccccccc",
"cccccccccccccccccccccccccccccccc",
"cccccccccccccccccccccccccccccccc"};
