/* XPM */
static const char *InverseGhostZone_xpm[] = {
/* width height ncolors chars_per_pixel */
"32 32 198 2",
/* colors */
"   c #FF3700",
" . c #D28A89",
" X c #CFAB93",
" o c #51E480",
" O c #D5FE00",
" + c #62DF73",
" @ c #B6B6C3",
" # c #D48181",
" $ c #45FF00",
" % c #9393CF",
" & c #C4B3B3",
" * c #D77A7A",
" = c #CF9393",
" - c #E6FA00",
" ; c #DCFD00",
" : c #9898CD",
" > c #3190EF",
" , c #D67C7C",
" < c #CE9595",
" 1 c #082EFC",
" 2 c #B9B9C2",
" 3 c #EF7E31",
" 4 c #D09090",
" 5 c #C8A9A9",
" 6 c #5465E3",
" 7 c #0FFF0C",
" 8 c #7F7FD5",
" 9 c #C0C3B8",
" 0 c #B7B7C3",
" q c #33EF4A",
" w c #FED500",
" e c #CF9292",
" r c #97F61B",
" t c #C7ABAB",
" y c #E7594A",
" u c #BCBCC1",
" i c #9999CD",
" p c #C9C0A6",
" a c #CE9494",
" s c #C6ADAD",
" d c #00FF81",
" f c #D97474",
" g c #8282D4",
" h c #D18D8D",
" j c #00FCE1",
" k c #EEF400",
" l c #BABAC2",
" z c #D87A76",
" x c #6FFF00",
" c c #D08F8F",
" v c #C8A8A8",
" b c #BFBFC0",
" n c #CDFF00",
" m c #0095FF",
" M c #6969DC",
" N c #03FF20",
" B c #FFCA00",
" V c #FFC800",
" C c #8585D3",
" Z c #DA7571",
" A c #FFC200",
" S c #09FF12",
" D c #D28A8A",
" F c #FFBA00",
" G c #CAA3A3",
" H c #DF6962",
" J c #D77E7B",
" K c #1C8DF6",
" L c #7DFF00",
" P c #00FF8A",
" I c #31DFE9",
" U c #D97373",
" Y c #00F8EA",
" T c #D18C8C",
" R c #B2C4C3",
" E c #DC6C6C",
" W c #C1BEBE",
" Q c #55FF00",
" ! c #C7FF00",
" ~ c #D6807D",
" ^ c #D08E8E",
" / c #C8A7A7",
" ( c #FF6200",
" ) c None",
" _ c #01ACFF",
" ` c #9D9DCC",
" ' c #6CEF31",
" ] c #52FF00",
" [ c #FF5800",
" { c #C4FF00",
" } c #F83517",
" | c #31E4E5",
".  c #FF4000",
".. c #06FF18",
".X c #D28989",
".o c #BEBEC1",
".O c #CAA2A2",
".+ c #C2BBBB",
".@ c #DD6969",
".# c #E0D654",
".$ c #8B8BD1",
".% c #A7A7C8",
".& c #EFC931",
".* c #19F6D0",
".= c #C9A4A4",
".- c #3199EF",
".; c #FE2C02",
".: c #DC6B6B",
".> c #C1BDBD",
"., c #D48484",
".< c #8EC4D0",
".1 c #6D6DDB",
".2 c #8989D2",
".3 c #18FF08",
".4 c #C0BFBF",
".5 c #DB6D6D",
".6 c #D38686",
".7 c #C3B8B8",
".8 c #AAAAC7",
".9 c #8787D3",
".0 c #EF7531",
".q c #C1EF31",
".w c #D28888",
".e c #455CE8",
".r c #C2BABA",
".t c #BDFA0F",
".y c #FED200",
".u c #8C8CD1",
".i c #B8FF00",
".p c #DA7972",
".a c #C1BCBC",
".s c #DC6A6A",
".d c #CC9C9C",
".f c #C4B5B5",
".g c #9191CF",
".h c #ADADC6",
".j c #8A8AD2",
".k c #01EBF6",
".l c #00FF77",
".z c #B7C3BF",
".x c #D38585",
".c c #C3B7B7",
".v c #DE6565",
".b c #B2B2C4",
".n c #8F8FD0",
".m c #00FF8E",
".M c #00F4EE",
".N c #65FF00",
".B c #B8EF31",
".V c #9DCF91",
".C c #C2B9B9",
".Z c #009EFF",
".A c #D58080",
".S c #CD9999",
".D c #02FF29",
".F c #8D8DD1",
".G c #008EFF",
".H c #8AD2B3",
".J c #00F2F1",
".K c #31EF9D",
".L c #4B5CE6",
".P c #D48682",
".I c #DC6969",
".U c #FFB100",
".Y c #00FF69",
".T c #D48282",
".R c #9292CF",
".E c #FFA500",
".W c #D69D7D",
".Q c #FF9700",
".! c #EED131",
".~ c #6CED38",
".^ c #9797CD",
"./ c #DE6464",
".( c #C3B6B6",
".) c #9090D0",
"._ c #E1655D",
".` c #D67D7D",
".' c #0030FF",
".] c #04FF1D",
".[ c #FF6500",
".{ c #5CFF00",
".} c #FE8902",
".| c #FF5500",
"X  c #62EF31",
"X. c #00FF9A",
"XX c #9595CE",
"Xo c #FF5100",
"XO c #DD6666",
"X+ c #32EF51",
"X@ c #1435F8",
"X# c #FF4900",
"X$ c #CD9898",
"X% c #C5B1B1",
"X& c #4C75E6",
"X* c #31EFA6",
"X= c #D09191",
"X- c None",
/* pixels */
" ) ) ) ) ) ) ) ) ) ) ) ).C #.v.v.v.v ,.( ) ) ) ) ) ) ) ) ) ) ) )",
" ) ) ) ) ) ) ) ) ) ) ).`.I.O ) ) ) ) 5.5 f W ) ) ) ) ) ) ) ) ) )",
" ) ) ) ) ) ) ) ) ).7XO.= ) ) ) ) ) ) ) ) s./X% ) ) ) ) ) ) ) ) )",
" ) ) ) ) ) ) ) ).7.@.C ) ) ) ) ) ) ) ) ) ).>.:X% ) ) ) ) ) ) ) )",
" ) ) ) ) ) ) ) W.s.+ ) ) ) ) ) ) ) ) ) ) ) ).4 E.C ) ) ) ) ) ) )",
" ) ) ) ) ) ) ) *.f ) ) ) ) ) ) ) ) ) ) ) ) ) ).+ U ) ) ) ) ) ) )",
" ) ) ) ) ) )X$.d ) ) ) ) ) ) ) ) ) ) ) ) ) ) ) ) v h ) ) ) ) ) )",
" ) ) ) ) ).> , ) ) ) ) ) ) ) ) ) ) ) ) ) ) ) ) ) ).T.c ) ) ) ) )",
" ) ) ) ) ).x.c ) ) ) ) ) ) ) ) ) ) ) ) ) ) ) ) ) ).>.A ) ) ) ) )",
" ) ) ) ).a.6 ) ) ) ) ) ) ) ) ) ) ) ) ) ) ) ) ) ) ) ) h & ) ) ) )",
" ) ) ) ).w.r ) ) ) ) ) ) ) ) ) ) ) ) ) ) ) ) ) ) ) ).4., ) ) ) )",
" ) ) ) ).6 ) ) ) ) ) ) ) ) ) ) ) ) ) ) ) ) ) ) ) ) ) ).X.> ) ) )",
" ) ) ).d t ) ) ) ) ) ) ) ) ) ) ) ) ) ) ) ) ) ) ) ) ) ).7 c ) ) )",
" ) ) ) D ) ) ) ) ) ) ) ) ) ) ) ) ) ) ) ) ) ) ) ) ) ) ) ).X ) ) )",
" ) ).4 T ) ) ) ) ) ) ) ) ) ) ) ) ) ) ) ) ) ) ) ) ) ) ) ) =.7 ) )",
" ) ).SX% ) ) ) ) ) ) ) ) ) ) ) ) ) ) ) ) ) ) ) ) ) ) ) ).a c ) )",
" ) ) ^ ) ) ) ) ) ) ) ) ) ) ) ) ) ) ) ) ) ) ) ) ) ) ) ) ) ) h ) )",
" ) ) c ) ) ) ) ) ) ) ) ) ) ) ) ) ) ) ) ) ) ) ) ) ) ) ) ) ) h ) )",
" ).r a ) ) ) ) ) ) ) ) ) ) ) l.u.9 @ ) ) ) ) ) ) ) ) ) ) ) G t )",
" ).S.c ) ) ) ) ) ) ) ) ) ).) M i `.1 C ) ) ) ) ) ) ) ) ) ) )X= )",
" ) 4 ) ) ) ) ) ) ) ) ) )XX.F ) ) ) ) :.j ) ) ) ) ) ) ) ) ) ) 4 )",
" ) 4 ) ) ) ) ) ) ) ) ) 0 8 ) ) ) ) ) ).2.h ) ) ) ) ) ) ) ) ) 4 )",
" ) y X ) ) ) ) ) ) ) ) g.o ) ) ) ) ) ) ) 8 ) ) ) ) ) ) ) ) ) e )",
" ) }.}.# 9 ) ) ) ) ) u.j ) ) ) ) ) ) ) ) %.b ) ) ) ) ) ) ) ) a W",
".+.;.Q k r.V ) ) ) ).g 2 ) ) ) ) ) ) ) ) b.$ ) ) ) ) ) ) ) ) 5 5",
" /  .E - L.3 o.z ) ).F ) ) ) ) ) ) ) ) ) ).u ) ) ) ) ) ) ) ) W <",
"X$. .U ; x 7.Y.*.< ).n ) ) ) ) ) ) ) ) ) ).n b ) ) ) ) ) ) ) ) =",
" .X# F O.N S.l j _X&.^ ) ) ) ) ) ) ) ) ) ).8.% ) ) ) ) ) ) ) ) e",
" JXo A n.{.. d Y.Z.'.b ) ) ) ) ) ) ) ) ) ) b.R ) ) ) ) ) ) p.W ~",
" z.| V ! Q.] P.M m 1 ) ) ) ) ) ) ) ) ) ) ) ).R ) R.H +.~.t.y ( H",
" Z [ B { ] N.m.J.GX@ ) ) ) ) ) ) ) ) ) ) ) ).L K.kX..D $.i w.[._",
".P.0.&.q ' q.K |.-.e ) ) ) ) ) ) ) ) ) ) ) ) 6 > IX*X+X .B.! 3.p"
};
