/* XPM */
static const char * SphereSlice_xpm[] = {
"32 32 40 1",
"@ 	c None",
".	c #59025A",
"+	c #5E426E",
"#	c #70898C",
"$	c #6F9B9C",
"%	c #BBBEBE",
"&	c #58155F",
"*	c #ACBABA",
"=	c #6FABAB",
"-	c #671A76",
";	c #645878",
">	c #8329A9",
",	c #A0B6B6",
"'	c #98B5B5",
")	c #6FBABA",
"!	c #87028A",
"~	c #AC1BC7",
"{	c #902EBE",
"]	c #6B6299",
"^	c #7E4EBA",
"/	c #9074CF",
"(	c #90AFAF",
"_	c #BD22E0",
":	c #A131D2",
"<	c #8A66B8",
"[	c #A302A5",
"}	c #AC35E3",
"|	c #838BC6",
"1	c #AC58E8",
"2	c #8A46C6",
"3	c #88AFAF",
"4	c #709597",
"5	c #6E8185",
"6	c #92A0A0",
"7	c #8EBEBE",
"8	c #C13AF9",
"9	c #B148ED",
"0	c #74B3B4",
"a	c #700273",
"b	c #859494",
"@@@@@@@@@@@@@@@@@@@@@@@@@@@@@@@@",
"@@@@@@@@@@@@@@@@@@@@@@@@@@@@@@@@",
"@@@@@@%%*,,'''300=4b6,%@@@@@@@@@",
"@'300=============######b6,%@@@@",
"@($$==============##########b6,%",
"@($$$$$======#<<<|#######4$$$==*",
"@,$$$$$$$==]>~~~__}<$==========%",
"@,$$$$$$$5->:}8888889$=========%",
"@*$$$$$$#&!:8888888889$========@",
"@*$$$$$$-a[_88888888881=======0@",
"@%$$$$$]a![_88888888888|======3@",
"@%$$$$$-a![_888888888881======(@",
"@@$$$$4.a[[_888888888888======'@",
"@@$$$$5.![[_888888888888$=====,@",
"@@$$$$5.![[_8888888888884=====*@",
"@@3$$$#.a[[_888888888888$=====%@",
"@@6$$$$&a![_888888888889======%@",
"@@($$$$+a![_88888888888/======@@",
"@@($$$$#.a[~88888888889$=====0@@",
"@@($$$$$;.!~}888888888/======3@@",
"@@,$$$$4#+a>}}8888888/=======3@@",
"@@,4##5555;-2:}}8889|))0=====(@@",
"@@%b55555554#]^22<|))))))===='@@",
"@@@%b5555554)))))))))))))))==*@@",
"@@@@%b555554))))))))))))))))0*@@",
"@@@@@%b55554)))))))))))))))7%@@@",
"@@@@@@%b5554))))))))))))7%@@@@@@",
"@@@@@@@%b554)))))))))7*@@@@@@@@@",
"@@@@@@@@%b54))))))7*@@@@@@@@@@@@",
"@@@@@@@@@%#4))))7%@@@@@@@@@@@@@@",
"@@@@@@@@@@%$)7%@@@@@@@@@@@@@@@@@",
"@@@@@@@@@@@%@@@@@@@@@@@@@@@@@@@@"};
