/* XPM */
static const char * Threshold_xpm[] = {
"32 32 40 1",
"^ 	c None",
".	c #020202",
"+	c #02AA02",
"@	c #0C0CCE",
"#	c #1212B6",
"$	c #1616A6",
"%	c #EE0202",
"&	c #8E8E8E",
"*	c #0606EE",
"=	c #E40606",
"-	c #120EBE",
";	c #02C602",
">	c #B6B6B6",
",	c #1612AE",
"'	c #C20E0E",
")	c #AE1212",
"!	c #0606E6",
"~	c #02D802",
"{	c #02E202",
"]	c #02E602",
"/	c #02EA02",
"(	c #02EE02",
"_	c #02BC02",
":	c #02F202",
"<	c #D60A0A",
"[	c #02F602",
"}	c #F60202",
"|	c #02AE02",
"1	c #02CB02",
"2	c #02FA02",
"3	c #BA1212",
"4	c #0202FD",
"5	c #02B502",
"6	c #02D202",
"7	c #02DE02",
"8	c #02C202",
"9	c #FE0202",
"0	c #0A0ADA",
"a	c #02FE02",
"b	c #CA0E0E",
"^^^^^^^^^^^^^^^^^^^^^^^^^^^^^^^^",
"^^^^^^^^^^^^^^^^^^^^^^^^^^^^^^^^",
"^^^^^))))^^^^^++++^^^^^$$$$^^^^^",
"^^^^^))))^^^^^||||^^^^^$$$$^^^^^",
"^^^^^3333^^^^^5555^^^^^,,,,^^^^^",
"^^^^^''''^^^^^5555^^^^^####^^^^^",
"^^^^^bbbb^^^^^5555^^^^^----^^^^^",
"^^^^^<<<<^^^^^____^^^^^@@@@^^^^^",
"^^^^^<<<<^^^^^____^^^^^0000^^^^^",
"^^^^^====^^^^^8888^^^^^0000^^^^^",
"^^^^^====^^^^^;;;;^^^^^!!!!^^^^^",
"^^999%%%%999^^1111^^444****444^^",
"^^^99}}}}99^^^1111^^^44444444^^^",
"^^^^999999^^^^1111^^^^444444^^^^",
"^^^^^9999^^^^^6666^^^^^4444^^^^^",
"^^^^^^99^^^^^^~~~~^^^^^^44^^^^^^",
"^^....^^.....^~~~~^.....^^....^^",
"^^&&&>^^>&&&>^7777^>&&&>^^>&&&^^",
"^^>>>>^^>>>>>^{{{{^>>>>>^^>>>>^^",
"^^&&&>^^>&&&>^{{{{^>&&&>^^>&&&^^",
"^^....^^.....^]]]]^.....^^....^^",
"^^^^^^^^^^^^^^////^^^^^^^^^^^^^^",
"^^^^^^^^^^^^^^((((^^^^^^^^^^^^^^",
"^^^^^^^^^^^^^^::::^^^^^^^^^^^^^^",
"^^^^^^^^^^^^^^[[[[^^^^^^^^^^^^^^",
"^^^^^^^^^^^aaa2222aaa^^^^^^^^^^^",
"^^^^^^^^^^^^aa2222aa^^^^^^^^^^^^",
"^^^^^^^^^^^^^aaaaaa^^^^^^^^^^^^^",
"^^^^^^^^^^^^^^aaaa^^^^^^^^^^^^^^",
"^^^^^^^^^^^^^^^aa^^^^^^^^^^^^^^^",
"^^^^^^^^^^^^^^^^^^^^^^^^^^^^^^^^",
"^^^^^^^^^^^^^^^^^^^^^^^^^^^^^^^^"};
