/* XPM */
static const char * Clip_xpm[] = {
"32 32 40 1",
"7 	c None",
".	c #027676",
"+	c #BD96BE",
"@	c #05ADB0",
"#	c #95AFBD",
"$	c #04F2F4",
"%	c #42A6A6",
"&	c #B89ABA",
"*	c #5390A1",
"=	c #07BDBD",
"-	c #197777",
";	c #0CDEE8",
">	c #84B2BF",
",	c #0D8585",
"'	c #B69EB6",
")	c #B6A2B6",
"!	c #30CDF4",
"~	c #028181",
"{	c #7AB8D2",
"]	c #3AB2B2",
"^	c #8F9BAC",
"/	c #08C2C8",
"(	c #B6AAB6",
"_	c #31AAD1",
":	c #328FBE",
"<	c #029595",
"[	c #36AEE2",
"}	c #5EB6B6",
"|	c #02C6C6",
"1	c #BAB2BA",
"2	c #37C9FD",
"3	c #21CEED",
"4	c #367D7D",
"5	c #7495AC",
"6	c #06D3D7",
"8	c #A9B4BA",
"9	c #02FCFC",
"0	c #04E9EB",
"a	c #56BECA",
"b	c #3A8484",
"77777777777777777777777777777777",
"77777777777777777777777777777777",
"777777777778%%]22a#1777777777777",
"7777777778]=|322222#+'1777777777",
"77777778%=|;;2222222&++)17777777",
"777777^,=60022222222#+++&1777777",
"77777#,=;$9!22222222a++++&177777",
"77778,@;0$$2222222222&++++&17777",
"77774<|0$9!2222222222)+++++'7777",
"777^~@6$9$22222222222#++++++1777",
"777-</099;22222222222>++++++)777",
"77#.@6$99!22222222222>+++++++177",
"77*,@6$99222222222222>+++++++(77",
"77-<@6$9$22222222222_::*5^+++)77",
"77-<@|$9;222222222[::::::::5&'77",
"77.<@|09!2222222[::::::::::::^77",
"77.<@|;$!222222_:::::::::::::*77",
"774~@6;$22222_::::::::::::::::77",
"77*~</;0222[:::::::::::::::::a77",
"775.<@6;2[:::::::::::::::::/${77",
"778.~@/6[::::::::::::::_30990877",
"7774.<@6;0$0;666333;0$99999$!777",
"777^.~<=6;$$9999999999999990{777",
"77774.<@6;$$99999999999999$27777",
"77778-~<=600$999999999999$=87777",
"77777#.~<@=|;0$999999$$$;=>77777",
"777777#-~<<@=6;$$$$$$0;6=#777777",
"777777784.<<@=|6666;6|@}77777777",
"7777777775-.,<<@@@@@<:8777777777",
"77777777777^*b-,--b*#77777777777",
"77777777777777777777777777777777",
"77777777777777777777777777777777"};
