/* XPM */
static const char * Cone_xpm[] = {
"32 32 40 1",
"@ 	c None",
".	c #4A024A",
"+	c #514D83",
"#	c #5F7E82",
"$	c #BABDBD",
"%	c #6246A6",
"&	c #5E8E8F",
"*	c #60AFB0",
"=	c #7643B7",
"-	c #A9B7B7",
";	c #609499",
">	c #A754EF",
",	c #563E5A",
"'	c #8E1AA6",
")	c #99B4B4",
"!	c #97A6A6",
"~	c #9463D9",
"{	c #9246D8",
"]	c #899D9D",
"^	c #8CB2B2",
"/	c #5ED2D2",
"(	c #4A064A",
"_	c #7E88CF",
":	c #7A62BF",
"<	c #4A5292",
"[	c #7DA5A5",
"}	c #5FA1A2",
"|	c #9646DA",
"1	c #83B1B1",
"2	c #7A858D",
"3	c #9A46DE",
"4	c #5ECACA",
"5	c #8846CC",
"6	c #4D2065",
"7	c #5D6B6F",
"8	c #76A3A3",
"9	c #5CC6CA",
"0	c #B046F4",
"a	c #72818A",
"b	c #4E4689",
"@@@@@@@@@@@@@@@@@@@@@@@@@@@@@@@@",
"@@@@@@@@@@@@@@@@@@$@@@@@@@@@@@@@",
"@@@@@$$--))^1[88}}#a]!-@@@@@@@@@",
"@!8}}}}}}}}}}}}}}}#7777#2]-$@@@@",
"@]&&;}}}}}}}}}};}}#777777777a]!$",
"@!&&&&;;}}}}}}}';}#7777###&;;}}-",
"@!&&&&&&;;}}}}#':*&&;}}}}}}}}}}$",
"@)&&&&&&&&&*947|~/}}}}}}}}}}}}}$",
"@-&&&&&&&&&*/9+30*}}}}}}}}}}}}}@",
"@-&&&&&&&&&*/;%30_}}}}}}}}}}}}8@",
"@$&&&&&&&&&*/<%00>}}}}}}}}}}}}[@",
"@$&&&&&&&&&**b=000;}}}}}}}}}}}1@",
"@@&&&&&&&&&*#b=000~}}}}}}}}}}}^@",
"@@;&&&&&&&&*<b5000>}}}}}}}}}}})@",
"@@;&&&&&&&&&bb50000_}}}}}}}}}}-@",
"@@8&&&&&&&&+b%50000~}}}}}}}}}}-@",
"@@8&&&&&&&#6b%500000}}}}}}}}}}$@",
"@@[&&&&&&&+6b%{00000_}}}}}}}}}@@",
"@@!&&&&&&&66b={00000~}}}}}}}}8@@",
"@@!&&&&&&7.6b={000000}}}}}}}}[@@",
"@@)&&&&##,.6%={000000_}}}}}}}1@@",
"@@)##7777(.6%=|000000~*}}}}}}^@@",
"@@$27777,..6%5|0000000}**}}}})@@",
"@@@$27776..6%530000000_****}})@@",
"@@@@$277,..6=530000000}******-@@",
"@@@@@$a77,(6=5300000>_*****)$@@@",
"@@@@@@$a777+:5300>~_****^$@@@@@@",
"@@@@@@@$a77#*********1-@@@@@@@@@",
"@@@@@@@@$a7#******1-$@@@@@@@@@@@",
"@@@@@@@@@$##****)$@@@@@@@@@@@@@@",
"@@@@@@@@@@-&*^$@@@@@@@@@@@@@@@@@",
"@@@@@@@@@@@$@@@@@@@@@@@@@@@@@@@@"};
