/* XPM */
static const char * Project_xpm[] = {
"32 32 76 1",
" 	c None",
".	c #4C4CFF",
"+	c #6565FF",
"@	c #3030FF",
"#	c #0000FF",
"$	c #7777FF",
"%	c #0000C9",
"&	c #0000AA",
"*	c #CFF500",
"=	c #D9FE0B",
"-	c #BEE100",
";	c #A0BE00",
">	c #DBFE19",
",	c #FE4BD2",
"'	c #FE65D8",
")	c #7D9400",
"!	c #00B900",
"~	c #FE2FCB",
"{	c #FE00BF",
"]	c #FE77DD",
"^	c #6A7E00",
"/	c #C70096",
"(	c #A9007F",
"_	c #05BF05",
":	c #04BE04",
"<	c #02BC02",
"[	c #01BB01",
"}	c #10C910",
"|	c #0EC70E",
"1	c #0DC60D",
"2	c #0BC50B",
"3	c #1AD21A",
"4	c #18D118",
"5	c #17D017",
"6	c #15CE15",
"7	c #24DC24",
"8	c #23DB23",
"9	c #21D921",
"0	c #20D820",
"a	c #2EE62E",
"b	c #2DE42D",
"c	c #2BE32B",
"d	c #2AE22A",
"e	c #1ED61E",
"f	c #1DD51D",
"g	c #1BD41B",
"h	c #0AC30A",
"i	c #08C208",
"j	c #07C007",
"k	c #38EF38",
"l	c #37EE37",
"m	c #36ED36",
"n	c #34EB34",
"o	c #28E028",
"p	c #27DF27",
"q	c #25DD25",
"r	c #14CD14",
"s	c #12CB12",
"t	c #11CA11",
"u	c #43F943",
"v	c #41F841",
"w	c #40F640",
"x	c #3EF53E",
"y	c #33EA33",
"z	c #31E831",
"A	c #30E730",
"B	c #007F00",
"C	c #00AA00",
"D	c #00D300",
"E	c #48FF48",
"F	c #63FF63",
"G	c #96FF96",
"H	c #3BF23B",
"I	c #3AF13A",
"J	c #46FC46",
"K	c #000000",
"  ..++                          ",
" @##$$+                         ",
"#####$$+                        ",
"%######.                        ",
"&######.                        ",
"&%#####@                  **==  ",
" &%####                  -;;>>= ",
"  &&&%                  ;;;;;>>=",
"            ,,''        );;;;;;*",
"  !!!!     ~{{]]'       ^;;;;;;*",
"  !!!!    {{{{{]]'      ^);;;;;-",
"  !!!!    /{{{{{{,       ^);;;; ",
"  !!!!    ({{{{{{,        ^^^)  ",
"  _:<[    (/{{{{{~              ",
"  }|12     (/{{{{         !!!!  ",
"  3456      (((/          !!!!  ",
"  7890                    [!!!  ",
"  abcd      0efg          2hij  ",
"  klmn      dopq          6rst  ",
"  uvwx      nyzA          0efg  ",
"BCCDEEFG  BCCDHIFG      BCCDpqFG",
" BCDEFG    BCDJFG        BCDzFG ",
"  BCDG      BCDG          BCDG  ",
"   BD        BD            BD   ",
"  ..++      ,,''          **==  ",
" @##$$+    ~{{]]'        -;;>>= ",
"#####$$+  {{{{{]]'      ;;;;;>>=",
"%######.  /{{{{{{,      );;;;;;*",
"KK#KK#KK KK{KK{KK,KK KK KK;KK;KK",
"&%#####@  (/{{{{{~      ^);;;;;-",
" &%####    (/{{{{        ^);;;; ",
"  &&&%      (((/          ^^^)  "};
