/* XPM */
static const char * Resample_xpm[] = {
"32 32 25 1",
".	c #8532C5",
"+	c #7836BA",
"@	c None",
"#	c #6458A4",
"$	c #B6BCBE",
"%	c #5E92A1",
"&	c #A3B2B7",
"*	c #5EB6CA",
"=	c #94A9AF",
"-	c #5FA1B2",
";	c #8AA7AF",
">	c #9AB5BA",
",	c #5E6BA7",
"'	c #86A7AF",
")	c #96B4BC",
"!	c #5A7A9B",
"~	c #82A6B0",
"{	c #60ABBD",
"]	c #92B6BE",
"^	c #5D8898",
"/	c #5EA6BA",
"(	c #869A9E",
"_	c #5E99AA",
":	c #6C45AF",
"<	c #8AB2BE",
"@@@@@@@@@@@@@@@@@@@@@@@@@@@@@@@@",
"@@@@@@@@@@@@@@@@@@@@@@@@@@@@@@@@",
"@$$&&&&&&=====;;~~((=&$$@@@@@@@@",
"@..__%%%%%%%%%%%%%^^^^^^^((;=&$@",
"@..-.:-_%%%%%%____^%%__%,_---..$",
"@<--..-^..-..****.+-///..^///.:$",
"@<-----_..-:.****..////..//////$",
"@<--------{*******{///////////{@",
"@<--------{*******{///////////{@",
"@.._------{*******{///////////{@",
"@.+^..----{*******{//////////..@",
"@)--.+%-..{*******{////..///%..@",
"@>---%-^..-..****..////.:////!~@",
"@>------^-%..****..///////////<@",
"@&--------/-******{///////////]@",
"@&:.------/*******{///////////]@",
"@&:.^.----/*******{/////////..>@",
"@$--,+_---/*******{////__///,.&@",
"@$-----.+%/******--////::///_!$@",
"@$-----.._-..***{..////../////$@",
"@$--------^+.--__..--/////////$@",
"@$..-__%^^%%_________-////////@@",
"@@..^^^^^^%____________-/////{@@",
"@@$(..^^^^%______________-//,.@@",
"@@@$.:^^!^%___________%:.__-..@@",
"@@@@$(^..!%______..____:.__-~>@@",
"@@@@@@;..^^,%____:._____~<&$@@@@",
"@@@@@@@=^^!.,_______-'&$@@@@@@@@",
"@@@@@@@@=^%^____-'&$@@@@@@@@@@@@",
"@@@@@@@@@&%_-')$@@@@@@@@@@@@@@@@",
"@@@@@@@@@@&$@@@@@@@@@@@@@@@@@@@@",
"@@@@@@@@@@@@@@@@@@@@@@@@@@@@@@@@"};
