/* XPM */
static const char * ThreeSlice_xpm[] = {
"32 32 267 2",
"  	c None",
". 	c #BABEBE",
"+ 	c #A8B7B7",
"@ 	c #9BBDBD",
"# 	c #41EA58",
"$ 	c #6EEF7F",
"% 	c #92D0AA",
"& 	c #A1C4C2",
"* 	c #83AFAF",
"= 	c #6FAFB0",
"- 	c #778E90",
"; 	c #84939B",
"> 	c #92A8A8",
", 	c #9AB2B2",
"' 	c #6BA8B1",
") 	c #46C17C",
"! 	c #41DA63",
"~ 	c #43E35D",
"{ 	c #54DB6E",
"] 	c #72B9A4",
"^ 	c #6FAFAE",
"/ 	c #0400FF",
"( 	c #2F2DF9",
"_ 	c #8D95B6",
": 	c #6F999B",
"< 	c #719EA2",
"[ 	c #6FA9AA",
"} 	c #6FAEAF",
"| 	c #6DA9AE",
"1 	c #5D94B7",
"2 	c #5D93B8",
"3 	c #588ABA",
"4 	c #3451D6",
"5 	c #0C0EF4",
"6 	c #0505F9",
"7 	c #0403FB",
"8 	c #0507F9",
"9 	c #39AB88",
"0 	c #34AB82",
"a 	c #2569B0",
"b 	c #1F2CE1",
"c 	c #0D0BF5",
"d 	c #6F8485",
"e 	c #86A6A6",
"f 	c #69999F",
"g 	c #2C40D7",
"h 	c #1116F1",
"i 	c #0402FD",
"j 	c #070BF6",
"k 	c #0609F8",
"l 	c #0400FE",
"m 	c #40E659",
"n 	c #35C86B",
"o 	c #22809B",
"p 	c #1648C5",
"q 	c #1134D7",
"r 	c #0907F2",
"s 	c #5D869F",
"t 	c #0B0CF1",
"u 	c #0505FB",
"v 	c #3FE65A",
"w 	c #36C66D",
"x 	c #2B9A8D",
"y 	c #0A0AEE",
"z 	c #699EAC",
"A 	c #5275A5",
"B 	c #1B24DE",
"C 	c #0B1CEA",
"D 	c #36C96C",
"E 	c #0400FC",
"F 	c #1114E7",
"G 	c #5E92B2",
"H 	c #4867AA",
"I 	c #0E0EEB",
"J 	c #3BDD5E",
"K 	c #0400FB",
"L 	c #1923DF",
"M 	c #659CAD",
"N 	c #4968AC",
"O 	c #0C0DEE",
"P 	c #3DE459",
"Q 	c #0600FB",
"R 	c #1921E0",
"S 	c #6CA6AA",
"T 	c #4C6BAB",
"U 	c #0B0BF1",
"V 	c #3EE658",
"W 	c #0C03FA",
"X 	c #1318E6",
"Y 	c #6DA7AA",
"Z 	c #5475A5",
"` 	c #0502F9",
" .	c #070DF5",
"..	c #3EE758",
"+.	c #1B08F8",
"@.	c #0F13EA",
"#.	c #69A1AA",
"$.	c #8CB2B2",
"%.	c #5A79A4",
"&.	c #0600FD",
"*.	c #0913F1",
"=.	c #4415F4",
"-.	c #1925E3",
";.	c #5E90B2",
">.	c #6079A5",
",.	c #0C03FD",
"'.	c #0F04FD",
").	c #0A02FE",
"!.	c #0901FE",
"~.	c #0500FE",
"{.	c #0811F2",
"].	c #3FE458",
"^.	c #9E37ED",
"/.	c #B23EEE",
"(.	c #212AE7",
"_.	c #5C8BB8",
":.	c #7595B3",
"<.	c #71A4AC",
"[.	c #739EA2",
"}.	c #768CA4",
"|.	c #758EA3",
"1.	c #706CB0",
"2.	c #0D03FE",
"3.	c #0403FC",
"4.	c #0A14F0",
"5.	c #40E159",
"6.	c #AB3CEC",
"7.	c #9E56DB",
"8.	c #867AC1",
"9.	c #7A90B5",
"0.	c #70A7AB",
"a.	c #A14FDA",
"b.	c #A14EDA",
"c.	c #7E5EBC",
"d.	c #48DF61",
"e.	c #42E759",
"f.	c #41E859",
"g.	c #AD3EEB",
"h.	c #A252DE",
"i.	c #8188BB",
"j.	c #899AB8",
"k.	c #6E969B",
"l.	c #905CCA",
"m.	c #8557C3",
"n.	c #43E65A",
"o.	c #44E55C",
"p.	c #41E059",
"q.	c #A73FE8",
"r.	c #B041EB",
"s.	c #9869D1",
"t.	c #A27BCF",
"u.	c #7288A4",
"v.	c #825AC4",
"w.	c #9E3BE9",
"x.	c #B13DEE",
"y.	c #9E5BD4",
"z.	c #43D85E",
"A.	c #9341E1",
"B.	c #B13EED",
"C.	c #AC41E8",
"D.	c #A050DB",
"E.	c #A24FDD",
"F.	c #9B59D5",
"G.	c #9863D1",
"H.	c #879AB9",
"I.	c #9BBABD",
"J.	c #6D69B7",
"K.	c #4C20EF",
"L.	c #862CF0",
"M.	c #A93AEE",
"N.	c #A84CE2",
"O.	c #50BF72",
"P.	c #653ADD",
"Q.	c #A145E1",
"R.	c #974FDC",
"S.	c #6785BA",
"T.	c #73A2AE",
"U.	c #7996B4",
"V.	c #71A7AB",
"W.	c #6B80A7",
"X.	c #0F04FB",
"Y.	c #7125F2",
"Z.	c #9733EE",
"`.	c #B03DEE",
" +	c #AE3CEE",
".+	c #AD3CEE",
"++	c #A93EEB",
"@+	c #639696",
"#+	c #0915EE",
"$+	c #0501FD",
"%+	c #5B8CB7",
"&+	c #6C8CA0",
"*+	c #0A03FD",
"=+	c #2B0CF7",
"-+	c #872DEF",
";+	c #AA3CEC",
">+	c #9E39EB",
",+	c #7C3AE1",
"'+	c #545AC1",
")+	c #4F899E",
"!+	c #41E958",
"~+	c #51CD6E",
"{+	c #52B979",
"]+	c #153AD6",
"^+	c #1016F0",
"/+	c #537FBC",
"(+	c #6C8890",
"_+	c #0400FD",
":+	c #0602FB",
"<+	c #0F09F6",
"[+	c #201AEB",
"}+	c #1014EE",
"|+	c #1239D4",
"1+	c #44E55B",
"2+	c #47D067",
"3+	c #234ED0",
"4+	c #080BF8",
"5+	c #293FDC",
"6+	c #5585BA",
"7+	c #6C858A",
"8+	c #44D662",
"9+	c #5EAEAE",
"0+	c #6C8486",
"a+	c #0504FB",
"b+	c #39CB6D",
"c+	c #44D666",
"d+	c #819297",
"e+	c #191BE5",
"f+	c #0501FA",
"g+	c #0806F7",
"h+	c #1419E5",
"i+	c #2635D4",
"j+	c #2A43D1",
"k+	c #4885BC",
"l+	c #5AA7B0",
"m+	c #48D76E",
"n+	c #41E858",
"o+	c #42DB60",
"p+	c #5EAEAB",
"q+	c #C1C5C5",
"r+	c #4F50DB",
"s+	c #1513F1",
"t+	c #0B08F3",
"u+	c #0E0CEE",
"v+	c #2830CC",
"w+	c #546EA5",
"x+	c #629CA2",
"y+	c #5EAAAB",
"z+	c #5BB0A8",
"A+	c #45DE64",
"B+	c #42E05C",
"C+	c #5FB0A9",
"D+	c #798F92",
"E+	c #728788",
"F+	c #6F9395",
"G+	c #56B69C",
"H+	c #49D072",
"I+	c #44E45C",
"J+	c #67B8A4",
"K+	c #94BEBE",
"L+	c #61B1AB",
"M+	c #56BC93",
"N+	c #47D66B",
"O+	c #5DE276",
"P+	c #82D09F",
"Q+	c #A7C7BA",
"R+	c #88BCBC",
"                                                                ",
"                                                                ",
"            . . + + @ # $ % & * = = - ; > , .                   ",
"  , * * = = = = = = ' ) ! ~ { ] ^ = - / / / / ( _ > + .         ",
"  > : < [ } | 1 2 3 4 5 6 7 8 9 0 a b / / / / c d d d d ; e , . ",
"  , : : : f g h i / / j k l l # m n o p q l / r - : : < < [ [ + ",
"  , : : : s t / / / / u / / / # # # v w x l / y z [ [ [ [ [ [ . ",
"  , : : : A B / / / / C k / / # # # # # D E / F G [ [ [ [ [ [ . ",
"  + : : : H I / / / / k i / / # # # # # J K / L M [ [ [ [ [ [   ",
"  + : : : N O / / / / l / l / # # # # # P Q / R S [ [ [ [ [ *   ",
"  . : : : T U / / / / / l i l # # # # # V W / X Y [ [ [ [ [ *   ",
"  . : : : Z ` / / / / /  .l l # # # # # ..+./ @.#.[ [ [ [ [ $.  ",
"    : : : %.&./ / / / / *.l i # # # # # V =./ -.;.[ [ [ [ [ ,   ",
"    < : : >.,.'.).!.~./ {./ {.# # # # # ].^./.(._.:.<.[ [ [ ,   ",
"    [.}.|.1.2./ / / / / 3.~.4.# # # # # 5.6./././.7.8.9.0.[ +   ",
"    e a.b.c./././././././././.d.e.f.# # 5.g./././././.h.i.j..   ",
"    e k.l.m./././././././././././.n.o.# p.q./././././.r.s.t..   ",
"    > : u.v.w.x././././././././././.y.f.z.A.B.C.D.E.F.G.H.I.    ",
"    $.: : J.K.L.M././././././././././.N.O.P.Q.R.S.T.U.V.[ $.    ",
"    , : : W.X./ Y.Z././././.B.`. + +.+++@+#+/ $+%+[ [ [ [ *     ",
"    , : : &+~./ *+=+-+;+>+,+'+)+!+# # ~+{+]+/ ^+/+[ [ [ [ $.    ",
"    + - d (+/ l _+K :+<+[+}+|+!+# # # 1+2+3+4+5+6+[ [ [ [ $.    ",
"    . ; d 7+/ / / / / / / / l # # # # # 8+9+9+9+9+= [ [ [ ,     ",
"      . ; 0+/ / / / / / / / a+b+# # # # c+9+9+9+9+9+9+= [ +     ",
"        . d+e+/ l f+g+h+i+j+k+l+m+n+# # o+p+9+9+9+9+9+9+= .     ",
"          q+r+s+t+u+v+w+x+y+9+9+z+A+# # B+C+9+9+9+9+9+@ .       ",
"            . D+E+d d F+9+9+9+9+9+G+H+f.I+J+9+9+K+.             ",
"              . - d d : 9+9+9+9+9+L+M+N+O+P+Q+                  ",
"                . - d : 9+9+9+9+9+9+R+@                         ",
"                  . - - 9+9+9+R+@ .                             ",
"                    . : 9+K+.                                   ",
"                      .                                         "};
