/* XPM */
static const char * Topology_xpm[] = {
"32 32 95 2",
"  	c None",
". 	c #98FF7C",
"+ 	c #94FE89",
"@ 	c #7FFEBE",
"# 	c #7CFFC3",
"$ 	c #7CFFCC",
"% 	c #7CFFE8",
"& 	c #7CFFEE",
"* 	c #77FFF7",
"= 	c #77F3FF",
"- 	c #78EDFF",
"; 	c #87FEA6",
"> 	c #7CFFC6",
", 	c #74FFFA",
"' 	c #78E7FF",
") 	c #7CCCFF",
"! 	c #7CB7FF",
"~ 	c #FF0000",
"{ 	c #81FEB9",
"] 	c #7CFFDB",
"^ 	c #78F0FF",
"/ 	c #7CA1FF",
"( 	c #7CFFEB",
"_ 	c #74FDFF",
": 	c #7BE7FF",
"< 	c #7C83FF",
"[ 	c #0015FF",
"} 	c #7FFEC1",
"| 	c #74FAFF",
"1 	c #7CE1FF",
"2 	c #7CE4FF",
"3 	c #7C89FF",
"4 	c #7BEAFF",
"5 	c #7CDEFF",
"6 	c #7BFFF1",
"7 	c #7CFFD5",
"8 	c #73FDFF",
"9 	c #78EAFF",
"0 	c #7CFFE1",
"a 	c #78FFF3",
"b 	c #9BFF7C",
"c 	c #AAFF7C",
"d 	c #B7FF7C",
"e 	c #C0FF7C",
"f 	c #C3FF7C",
"g 	c #89FEA2",
"h 	c #7CFFC0",
"i 	c #A7FF7C",
"j 	c #C6FF7C",
"k 	c #D2FF7C",
"l 	c #85FEAD",
"m 	c #7CFFE4",
"n 	c #ADFF7C",
"o 	c #E1FF7C",
"p 	c #EEFF7C",
"q 	c #F4FF7C",
"r 	c #F7FF7C",
"s 	c #D8FF7C",
"t 	c #F1FF7C",
"u 	c #FAFF7C",
"v 	c #FDFF7C",
"w 	c #FFFD7C",
"x 	c #FFFA7C",
"y 	c #FFF77C",
"z 	c #00B6FF",
"A 	c #CFFF7C",
"B 	c #FFF17C",
"C 	c #FFE47C",
"D 	c #B4FF7C",
"E 	c #FFEE7C",
"F 	c #FFE17C",
"G 	c #FFD87C",
"H 	c #FFD57C",
"I 	c #CCFF7C",
"J 	c #FFF47C",
"K 	c #FFB77C",
"L 	c #FFA47C",
"M 	c #FF927C",
"N 	c #FFAA7C",
"O 	c #FFC67C",
"P 	c #FF987C",
"Q 	c #FF8C7C",
"R 	c #FFA77C",
"S 	c #FFDE7C",
"T 	c #FFCF7C",
"U 	c #FFB47C",
"V 	c #FFCC7C",
"W 	c #FFDB7C",
"X 	c #E8FF7C",
"Y 	c #FFEB7C",
"Z 	c #FFE87C",
"` 	c #D5FF7C",
" .	c #DBFF7C",
"..	c #EBFF7C",
"+.	c #A4FF7C",
"                                                                ",
"                                                                ",
"        . . . . . . . . . . . + @ # # $ % & * = - - = *         ",
"        . . . . . . . . . . . ; # # > % & , ' ) ! ~ ~ '         ",
"        . . . . . . . . . . . { # # ] & * ^ ) ~ ~ ~ / ~         ",
"        . . . . . . . . . . . @ # # ( & _ : ! ~ < < ~ ~         ",
"        . . . . . [ . . . . . } # # & & | 1 ! ~ < ~ ~ !         ",
"        . . . . . . [ . . . . } # # & & | 2 ) ~ 3 ~ ~ ~         ",
"        . . . . . . . [ . . . @ # # & & , 4 5 ~ ! ! ~ 5         ",
"        . . . . . . . . [ . . { # # % & 6 | : ~ ~ ~ 1 :         ",
"        . . . . . . . . . [ . ; # # 7 & & 6 8 9 2 2 9 8         ",
"        . . . . . . . . . . [ + @ # # 0 & & 6 a * * a 6         ",
"        . b c d e f f e d c b [ g h # # 0 & & & & & & &         ",
"        i j k k k k k k k k j i [ l # # # 7 m ( ( ( m 7         ",
"        k k k k k k k k k k k k n [ l h # # # # # # # #         ",
"        k k o p q r q p o k k k k d [ g @ # # # # # # #         ",
"        s t u v w w w v u t s k k k i [ + ; { @ } } @ {         ",
"        r v x x y z z x w v r s k k A b [ . . . . . . .         ",
"        w x B C z z z B x w w t k k k D . [ . . . . . .         ",
"        x E F G z H z F E x w v o k k I . . [ . . . . .         ",
"        J C G K z L z z C J w w t k k k . . . [ . . . .         ",
"        B z z z z M N z F B w w u k k k . . . . [ . . .         ",
"        z z O P Q M R z S E w w w k k k . . . . . . . .         ",
"        z z T N z z U z F B w w v k k k . . . . . . . .         ",
"        y z z z z z V W z z w w q k k A . . . . . . . .         ",
"        w J C F S z F z z z w w X k k j . . . . . . . .         ",
"        w w y Y Z z z z w w w r s k k i . . . . . . . .         ",
"        v w w w w w w w w w v o k k j . . . . . . . . .         ",
"        o r w w w w w w w r o ` k I . . . . . . . . . .         ",
"        `  ...r v w v r .. .` k A +.. . . . . . . . . .         ",
"                                                                ",
"                                                                "};
