/* XPM */
static const char * FilledBoundary_xpm[] = {
"32 32 40 1",
"6 	c None",
".	c #780202",
"+	c #021FB1",
"@	c #120CA4",
"#	c #A90203",
"$	c #3131B6",
"%	c #157B13",
"&	c #926202",
"*	c #02645D",
"=	c #910202",
"-	c #02871E",
";	c #319922",
">	c #4D9031",
",	c #090279",
"'	c #02A60C",
")	c #727E02",
"!	c #C60E09",
"~	c #02CC02",
"{	c #7D978F",
"]	c #BD0203",
"^	c #0502A6",
"/	c #42428A",
"(	c #9CA0A0",
"_	c #02DE04",
":	c #0202CA",
"<	c #6E0259",
"[	c #A9A8A7",
"}	c #E90202",
"|	c #790909",
"1	c #4A4A8A",
"2	c #12E602",
"3	c #02E803",
"4	c #BC6A6A",
"5	c #AF3A34",
"7	c #02F702",
"8	c #0202E9",
"9	c #9484A3",
"0	c #C29A9A",
"a	c #645B9B",
"b	c #CE0202",
"66666666666666666666666666666666",
"66{>>{([666666666666666666666666",
"66>-'---%%>{(6666666666666666666",
"66%~___33_~'-%%>{[66666666666666",
"66%~__33333333_'%++a966666666666",
"66%~_33377777333*8:^,@1{66666666",
"66%_333777777773+88::^,,@a[66666",
"66%_337777777773888::::^,,,1(666",
"66%_37777777777'8888:::^^^,,,/[6",
"66%337777777777*8888:::^^^,^^^^(",
"66%_37777777777+8888:::^^^,:::@6",
"66%_3777777777_88888:::^^^^:::16",
"66%_3777777777-8888::::^^^::::(6",
"66%~3377777777+8888:::^^^^:::$66",
"66%~337777772;88888:::^^^::::(66",
"66>'~';>)&5!}}<888::::^^^:::/666",
"66>#}}}}}}}}}}}<8::::^^^::::[666",
"66&=b}}}}}}}}}}b@:::^^^::::a6666",
"669=bbb}}}}}}}bb]^::^^^:::$66666",
"669.bbbbbbbbbbbbb#^^^^:::@[66666",
"66[.]bbbbbbbbbb]]]<^^::::(666666",
"666|#]]]bbbb]]]]###<::::96666666",
"666|=##]]]]]]]####]b<::966666666",
"6665.############bbbb@9666666666",
"6664.==########]bbbb!06666666666",
"6660..======#]bbbbb5666666666666",
"6666|...==#]bbbbb!46666666666666",
"66665.#]bbbbbbbb5[66666666666666",
"66669.bbbbbbbb506666666666666666",
"6666[|bbbbb!4[666666666666666666",
"666665b!540666666666666666666666",
"66666[06666666666666666666666666"};
