/* XPM */
static const char * animationreverseplayon_xpm[] = {
"32 32 14 1",
" 	c None",
".	c #B2A2A2",
"+	c #929292",
"@	c #525252",
"#	c #A3A3A3",
"$	c #323232",
"%	c #060606",
"&	c #222222",
"*	c #020202",
"=	c #005E00",
"-	c #009300",
";	c #00FF00",
">	c #A0FF00",
",	c #3A3A3A",
"                                ",
"                     .          ",
"                    +@#         ",
"                   +$$#         ",
"                  +$%&#         ",
"                 +$%*&#         ",
"                +$%**&#         ",
"               +$%*==&#         ",
"              +$%*=-=&#         ",
"             +$%*=--=&#         ",
"            +$%*=-;-=&#         ",
"           +$%*=-;;-=&#         ",
"          +$%*=-;;;-=&#         ",
"         +$%*=-;;>;-=&#         ",
"        +$%*=-;;>;;-=&#         ",
"       #,%*=-;;>;>;-=&#         ",
"       .,%*=-;;;>;;-=&#         ",
"        +$%*=-;;;>;-=&#         ",
"         +$%*=-;;;;-=&#         ",
"          +$%*=-;;;-=&#         ",
"           +$%*=-;;-=&#         ",
"            +$%*=-;-=&#         ",
"             +$%*=--=&#         ",
"              +$%*=-=&#         ",
"               +$%*==&#         ",
"                +$%**&#         ",
"                 +$%*&#         ",
"                  +$%&#         ",
"                   +$&#         ",
"                    +@#         ",
"                     .          ",
"                                "};
