/* XPM */
static const char * animationstopoff_xpm[] = {
"32 32 3 1",
".	c None",
"+	c #A2A2A2",
"@	c #020202",
"................................",
"................................",
"................................",
"................................",
"................................",
"................................",
"................................",
"................................",
"........+++++++++++++++++.......",
".......++@@@@@@@@@@@@@@@++......",
".......+@@@@@@@@@@@@@@@@@+......",
".......+@@@@@@@@@@@@@@@@@+......",
".......+@@@@@@@@@@@@@@@@@+......",
".......+@@@@@@@@@@@@@@@@@+......",
".......+@@@@@@@@@@@@@@@@@+......",
".......+@@@@@@@@@@@@@@@@@+......",
".......+@@@@@@@@@@@@@@@@@+......",
".......+@@@@@@@@@@@@@@@@@+......",
".......+@@@@@@@@@@@@@@@@@+......",
".......+@@@@@@@@@@@@@@@@@+......",
".......+@@@@@@@@@@@@@@@@@+......",
".......+@@@@@@@@@@@@@@@@@+......",
".......++@@@@@@@@@@@@@@@++......",
"........+++++++++++++++++.......",
"................................",
"................................",
"................................",
"................................",
"................................",
"................................",
"................................",
"................................"};
