/* XPM */
static const char * animate_xpm[] = {
"18 18 9 1",
"+	c #00AAAA",
".	c #0F1313",
"@	c #707373",
"#	c #4D9C9C",
"$	c #8E8E8E",
"%	c #FAFAFA",
"&	c #0A3E3E",
"*	c None",
"=	c #3B3F3F",
"********=$********",
"*******=$%$*******",
"******=.$=.$******",
"*****=$%.++&$*****",
"****===.++++.$****",
"***==%.++++++.$***",
"**=$.=.+++++++&$**",
"*=.%.+&.++++++&=$*",
"=$$.+++&.+++++=%=$",
"$%.++++++&++&=.==*",
"*$.++++++&.+.%@=**",
"**$.++++++&.@.=***",
"***@.+++++.%$=****",
"=@$@.@@@=@==@==@@=",
"@.@*=&&&&&&=*=&&&.",
"@..$=+#####=%=###=",
"@.@*======@=*====.",
".===&=@@@=@.=.=@=="};
