/* XPM */
static const char * animationplayoff_xpm[] = {
"32 32 10 1",
".	c None",
"+	c #B2A2A2",
"@	c #A3A3A3",
"#	c #525252",
"$	c #929292",
"%	c #222222",
"&	c #323232",
"*	c #060606",
"=	c #020202",
"-	c #3A3A3A",
"................................",
"..........+.....................",
".........@#$....................",
".........@%&$...................",
".........@%*&$..................",
".........@%=*&$.................",
".........@%==*&$................",
".........@%===*&$...............",
".........@%====*&$..............",
".........@%=====*&$.............",
".........@%======*&$............",
".........@%=======*&$...........",
".........@%========*&$..........",
".........@%=========*&$.........",
".........@%==========*&$........",
".........@%===========*-+.......",
".........@%===========*-@.......",
".........@%==========*&$........",
".........@%=========*&$.........",
".........@%========*&$..........",
".........@%=======*&$...........",
".........@%======*&$............",
".........@%=====*&$.............",
".........@%====*&$..............",
".........@%===*&$...............",
".........@%==*&$................",
".........@%=*&$.................",
".........@%*&$..................",
".........@&&$...................",
".........@#$....................",
"..........+.....................",
"................................"};
