/* XPM */
static const char *annot_xpm[] = {
"18 18 11 1",
"! c None",
". c #000000",
"+ c #00FFFF",
"@ c #FFFFFF",
"# c #999999",
"$ c #CCCCCC",
"% c #009900",
"& c #999900",
"* c #CC0000",
"= c #FFFF00",
"- c #990099",
"!!!!...!!!!!!!!!!!",
"!!!!+.+++++++++++.",
"!!!+@@.@@@@@@@@@..",
"!!+@###$$$$$$$$.#.",
"!+@#$@#@@@@@@@$.#.",
"..@#@@#@@####@$.#.",
".%.@@@#@##@@@@$.#.",
".%.@#@#@@@@@@@$.#.",
".%.#@@.&@@####$.#.",
".%.@@@&&.@@@@@$.#.",
".%.@#@&.**@@@@$.#.",
".%.#@@.=&&*@@@$.#.",
".%.@@@..=&&*$$$.#.",
".%.@@$.$.=&&.$$..!",
".%.@$#.$$.=&&.$.!!",
".%.$#.!!!!.=.--!!!",
".%.#.!!!!!!.---!!!",
"....!!!!!!!!..!!!!"
};
