/* XPM */
static const char * axisrestrictiontool_xpm[] = {
"31 30 27 1",
"       c None",
".      c #3E76CA",
"+      c #7BE2FC",
"@      c #65C2FB",
"#      c #52A2EA",
"$      c #B0FCFE",
"%      c #62BAD6",
"&      c #4686DE",
"*      c #A4F8FE",
"=      c #74DAFE",
"-      c #468AEE",
";      c #62BED6",
">      c #4C94F6",
",      c #69C9FC",
"'      c #88EFFE",
")      c #5AB0FB",
"!      c #509CF9",
"~      c #62BAE2",
"{      c #62BEFB",
"]      c #57AAFC",
"^      c #6DD1FB",
"/      c #5EB6EA",
"(      c #96F2FE",
"_      c #81E8FC",
":      c #5FB8FB",
"<      c #54A4FD",
"?      c #FF0000",
"   ...        ...        ...   ",
"   ...      ???????      ...   ",
"   ...       ?????       ...   ",
"   ...        ???        ...   ",
" ???????      .?.        ...   ",
"  ?????       ...        ...   ",
"   ???        ...        ...   ",
"   .?.        ...        ...   ",
"   ...        ...      ??????? ",
"   ...        ...       ?????  ",
"   ...        ...        ???   ",
"   ...        ...        .?.   ",
"   ...        ...        ...   ",
"   ...        ...        ...   ",
"   ...        ...        ...   ",
"   ...        ...        .?.   ",
"   ...        ...        ???   ",
"   .?.        ...       ?????  ",
"   ???        ...      ??????? ",
"  ?????       ...        ...   ",
" ???????      ...        ...   ",
"   ...        ...        ...   ",
"   ...        .?.        ...   ",
"   ...        ???        ...   ",
"   ...       ?????       ...   ",
"   ...      ???????      ...   ",
"   ...        ...        ...   ",
"   ...        ...        ...   ",
"   ...        ...        ...   ",
"   ...        ...        ...   "};
