/* XPM */
static const char * back_xpm[] = {
"31 31 34 1",
" 	c None",
".	c #000000",
"+	c #800000",
"@	c #008000",
"#	c #808000",
"$	c #000080",
"%	c #800080",
"&	c #008080",
"*	c #BFBFBF",
"=	c #040404",
"-	c #BCBCBC",
";	c #048484",
">	c #044C4C",
",	c #04CCCC",
"'	c #042424",
")	c #FCDCDC",
"!	c #04ACAC",
"~	c #041414",
"{	c #047C7C",
"]	c #04ECEC",
"^	c #049C9C",
"/	c #045C5C",
"(	c #043434",
"_	c #FCFCFC",
":	c #040C0C",
"<	c #C4C4C4",
"[	c #048C8C",
"}	c #045454",
"|	c #04DCDC",
"1	c #042C2C",
"2	c #FCECEC",
"3	c #04BCBC",
"4	c #041C1C",
"5	c #04FCFC",
"                               ",
"              ;;               ",
"             :>=               ",
"            :15=               ",
"           =43,=               ",
"          =4^5!=               ",
"         :4^]]!=               ",
"        :4[,5,^=               ",
"       :4[,55,[::============  ",
"      :4[,5|5!/^^^^^^^^^^^^34; ",
"     =4[,5,5]{!33333,!,333,53{ ",
"    =4[,5355^,]|]|]||]||]]5,!{ ",
"   :4^,5,55555555555555555]3^{ ",
"  :4[,53555555555555555555]3^; ",
" {4[,5,5555555555555555555|,^{ ",
" ;|55]55555555555555555555]!^; ",
" {'[,5,]555555555555555555|,^{ ",
"  ~'[,5,555555555555555555]!^; ",
"   ~'[,5355555555555555555],^; ",
"    ~'[,5,55!,],]|]|]|]|]]5,^{ ",
"     ~'[,535|{!,3333333333,5,{ ",
"      ~'[,5]5!/[^^^^^^^^^^^34; ",
"       ~'[,55,[~~============  ",
"        ~'[,5,^:               ",
"         ~'[]]!=               ",
"          ~'^5!=               ",
"           ~'3,=               ",
"            ~(5=               ",
"             ~>~               ",
"              ;;               ",
"                               "};
