/* XPM */
static const char * blankcamera_xpm[] = {
"32 32 5 1",
" 	c None",
".	c #848484",
"+	c #000000",
"@	c #C6C6C6",
"#	c #FFFFFF",
"                                ",
"                                ",
"                                ",
"                                ",
"                                ",
"                  .+            ",
"       ++.   +@@.++.+  ++++.    ",
"     ++#.++++@@@@@@++++###.+++  ",
"    +@+++.@@+......+.@+++++.@@+ ",
"   +########################@.+ ",
"  +#@@@@@@@@@@@@@@@@@@@@@@@@..+ ",
"  +#@@@@@@@@@+++@@@@@@@@@@@@..+ ",
"  +#@@@@@@@++@@@@#+@@@@@@@@@.++ ",
"  +++++++++.#####++++++++++++++ ",
"  +++++++++@@@@@##+++++++++++@+ ",
"  +++++++@@+++++@@..+++++++++@+ ",
"  ++++++@+......+.@++++++++++@+ ",
"  +++++@+...@#@..+@.+++++++++@+ ",
"  +++++@+..@#.....+@+++++++++@+ ",
"  +++++@+..#@.....+@+++++++++.+ ",
"  +++++@+..#......+@+++++++++@+ ",
"  +++++@+..@......+@+++++++++@+ ",
"  +++++@+.........+@+++++++++@+ ",
"  ++++++@+.......+@++++++++++++ ",
"  ++++++@.+.....+.@+++++++++++  ",
"   ++++++@@+++++@@+++++++++++   ",
"    ++++++.@@@@@@+++++++++++    ",
"          .+++++                ",
"                                ",
"                                ",
"                                ",
"                                "};
