/* XPM */
static const char * blankwindow_xpm[] = {
"32 32 10 1",
" 	c None",
".	c #000000",
"+	c #C9C9C9",
"@	c #6B6B6B",
"#	c #0A04CE",
"$	c #0061FF",
"%	c #4C88FF",
"&	c #96C0FF",
"*	c #AFCEFF",
"=	c #FFFFFF",
"                                ",
"  ............................  ",
"  .++@#################@++@++.  ",
"  .++@$$$$$$$$$$$$$$$$$@++@++.  ",
"  .++@%%%%%%%%%%%%%%%%%@++@++.  ",
"  .++@&&&&&&&&&&&&&&&&&@++@++.  ",
"  .++.*****************.++.++.  ",
"  ............................  ",
"  .@@@@@@@@@@@@@@@@@@@@@@@@@@.  ",
"  .@========================@.  ",
"  .@========================@.  ",
"  .@========================@.  ",
"  .@========================@.  ",
"  .@========================@.  ",
"  .@========================@.  ",
"  .@========================@.  ",
"  .@========================@.  ",
"  .@========================@.  ",
"  .@========================@.  ",
"  .@========================@.  ",
"  .@========================@.  ",
"  .@========================@.  ",
"  .@========================@.  ",
"  .@========================@.  ",
"  .@========================@.  ",
"  .@========================@.  ",
"  .@========================@.  ",
"  .@========================@.  ",
"  .@@@@@@@@@@@@@@@@@@@@@@@@@@.  ",
"  ............................  ",
"                                ",
"                                "};
