/* XPM */
static const char * checkwindow_xpm[] = {
"28 29 30 1",
" 	c None",
".	c #020202",
"+	c #0261FE",
"@	c #0770FE",
"#	c #3480FE",
"$	c #4F8BFE",
"%	c #72B6FE",
"&	c #CACACA",
"*	c #0A06CE",
"=	c #6A6A6A",
"-	c #DEEAEA",
";	c #1868FE",
">	c #0392FE",
",	c #96C2FE",
"'	c #3EAEFE",
")	c #5BB6FE",
"!	c #F6FAEA",
"~	c #AEDBFA",
"{	c #AECEFC",
"]	c #369FFE",
"^	c #56A7FE",
"/	c #267FFE",
"(	c #FEFEFE",
"_	c #037CFE",
":	c #26A0FE",
"<	c #8ED2FE",
"[	c #338EFE",
"}	c #0387FE",
"|	c #8EB6FE",
"1	c #1E92FE",
"............................",
".&&=*****************=&&=&&.",
".&&=+++++++++++++++++=&&=&&.",
".&&=$$$$$$$$$$$$$$$$$=&&=&&.",
".&&=,,,,,,,,,,,,,,,,,=&&=&&.",
".&&.{{{{{{{{{{{{{{{{{.&&.&&.",
"............................",
".==========================.",
".=((((((((((((((((((((((((=.",
".=(((((((((((((((((((!{|{(=.",
".=((((((((((((((((((!{;;|(=.",
".=(((((((((((((((((!#;+#{(=.",
".=(((((((((((((((!-/+;#{!(=.",
".=((((((((((((((!{;++${!((=.",
".=(((((((((((((!#;++#{!(((=.",
".=((((((((((((!#+++${!((((=.",
".=(!--!(((((!-#@@@[{!(((((=.",
".=(-[/{!(((!%/@@@[{!((((((=.",
".=(-__^~!(!%____^{!(((((((=.",
".=(!^_}^~-%____]~!((((((((=.",
".=((-^}}1:}}}}]~!(((((((((=.",
".=((!~>>>>>>>]~(((((((((((=.",
".=(((!)>>>>>'~((((((((((((=.",
".=((((-)>>>'~(((((((((((((=.",
".=(((((~':)~((((((((((((((=.",
".=((((((~<~(((((((((((((((=.",
".=((((((((((((((((((((((((=.",
".==========================.",
"............................"};
