/* XPM */
static const char * computer_xpm[] = {
"20 20 8 1",
".    c #1A1A5A",
"+    c #575757",
"@    c #8E8E8E",
"#    c #AFAFAF",
"$    c #02FEA2",
"%    c #D4D4D6",
"&    c None",
"*    c #0202E5",
"&&&%@@@@@@@@@@@@@#@&",
"&&%#%%%%%%%%%%%%%%+&",
"&%#%%%%%%%%%%%%%%@+&",
"&#%+++++++++++++%@+&",
"&#%.************%@+&",
"&#%.*$**********%@+&",
"&#%.*$**********%@+&",
"&#%.************%@+&",
"&#%.************%@+&",
"&#%.************%@+&",
"&#%.************%@+&",
"&#%.************%@+&",
"&#%.************%@+&",
"&#%%%%%%%%%%%%%%%@+&",
"&##@@@@@@@@@@@@@++&&",
"&&%@............@#++",
"&@@+++++++++++++++++",
"&@####%%%%%#####@++@",
"&@#%%%%%%%%#%%%%@+@%",
"&@@@@@########@@@+%&"};

