/* XPM */
static const char * copymenu_xpm[] = {
"29 30 26 1",
" 	c None",
".	c #020223",
"+	c #323133",
"@	c #CECECE",
"#	c #999A9C",
"$	c #0131FE",
"%	c #C9C9C9",
"&	c #3265EF",
"*	c #66658A",
"=	c #99CDFE",
"-	c #313335",
";	c #FDFDFE",
">	c #CADFFE",
",	c #96C2F7",
"'	c #318FFE",
")	c #65ADFE",
"!	c #0F6FD7",
"~	c #70ABEF",
"{	c #0878F9",
"]	c #1760AF",
"^	c #94B1CF",
"/	c #B8D0EF",
"(	c #106ACC",
"_	c #1C6CC0",
":	c #568AC0",
"<	c #18385A",
".++.............++++.        ",
"+@#$$$$$$$$$$$$$#@#@+        ",
"+%#&&&&&&&&&&&&&#%#%+        ",
"+%*============##@*@-        ",
"-*+*************+*+*+        ",
".+++++++++++++++++++.        ",
"+#;;;;;;;;;;;;;;;;;#+        ",
"+%;;;;;;;;;;;;;;;;;%+        ",
"+%;;;;;;.++.............++++.",
"-@;;>,,>+%#$$$$$$$$$$$$$#@#@+",
"+@;;,'',-%#&&&&&&&&&&&&&#%#%+",
"+%;;)'!~+%*============##@*@-",
"-@;>){]^-*+*************+*+*+",
"+%;>'{],.+++++++++++++++++++.",
"-@;,'{]/+#;;;;;;;;;;;;;;;;;#+",
"+@;,'(_;+%;;;;;>>;;;;;;;;;;%+",
"+@;,{(:;+%;;;;>)'),>>;;;;;;@+",
"+@;){!~;-@;;;/^'{{''),>>;;;%-",
"+@;,'{(/+@;;;;::'{{{{''',;;%+",
"+@;,'{',+%;;;;@]'{{{{{{',;;@-",
"+##^:{{'<^;;;;;^){{{{{{!~;;%+",
".+--<({{!:,>>>>,'{{{{{{_>;;@-",
"     {{{{{'')))'{{{{{{!_>;;%+",
"      !({{{{{{{{{{'{{{__>;;@-",
"        ]]{'{{'_]]:'{{]~;;;%+",
"        -:]:__]]^::~'!],;;;@-",
"        +%/^^^^/;;::'(]/;;;%+",
"        +%;;;;;;;;;::_:;;;;@-",
"        +###########_::#####+",
"        .++++++++++--<-+++++."};
