/* XPM */
static const char * db_close2_xpm[] = {
"32 32 15 1",
" 	c None",
".	c #000000",
"+	c #7C9AFE",
"@	c #FF4141",
"#	c #FF9A9A",
"$	c #AE0000",
"%	c #133CBF",
"&	c #829FFF",
"*	c #2149CD",
"=	c #5D83FF",
"-	c #2A55E1",
";	c #275AFF",
">	c #4672FF",
",	c #B3B826",
"'	c #707402",
"                                ",
"      .....                     ",
"   ...+++++...                  ",
"  .+++++++++++.                 ",
" .+++++++++++++.                ",
".+++++++++++++++.  @############",
"..+++++++++++++..  $@@@@@@@@@@@#",
".%.+++++++++++.&.  $@@@@@@@@@@@#",
".%*...+++++...=&.  $@@@@@@@@@@@#",
".%*--;.....;>>=&.  $$$$$$$$$$$$@",
".%*--;;;;;;;>>=&.               ",
".%*--;;;;;;;>>=&.               ",
".%*--;;;;;;;>>=&.               ",
".%*--;;;;;;;>>=&.               ",
".%*--;;;;;;;........            ",
".%*--;;;;;;.,,,,,,,,.           ",
".%*--;;;;;;.,,,,,,,,.           ",
".%*--;;;;;;.,,,,,,,,,........   ",
" .*--;;;;;;.,,,,,,,,,,,,,,,,.   ",
"  .--;;;;;;.,,,,,,,,.........   ",
"   ...;;;;;.........''''''''.   ",
"      .......'''''''''''''''.   ",
"           ..'''''''''''''''.   ",
"           ..'''''''''''''''.   ",
"           ..'''''''''''''''.   ",
"           ..'''''''''''''''.   ",
"           ..'''''''''''''''.   ",
"           ..'''''''''''''''.   ",
"           ..'''''''''''''''.   ",
"           .................    ",
"                                ",
"                                "};
