/* XPM */
static const char * db_overlay_xpm[] = {
"32 32 200 2",
"  	c None",
". 	c #000000",
"+ 	c #4D4D4D",
"@ 	c #7C9AFE",
"# 	c #0BE842",
"$ 	c #1CE930",
"% 	c #2FEA1C",
"& 	c #3FEA0E",
"* 	c #50E902",
"= 	c #65E900",
"- 	c #76E900",
"; 	c #89E900",
"> 	c #9BE900",
", 	c #AEE900",
"' 	c #BFE900",
") 	c #D2E900",
"! 	c #E2E900",
"~ 	c #F5E900",
"{ 	c #999999",
"] 	c #0BDA50",
"^ 	c #1DD247",
"/ 	c #2ED830",
"( 	c #40D81D",
"_ 	c #55D80C",
": 	c #65D901",
"< 	c #76D900",
"[ 	c #89D900",
"} 	c #9BD900",
"| 	c #AED900",
"1 	c #BFD900",
"2 	c #D2D900",
"3 	c #E2D900",
"4 	c #F5D900",
"5 	c #1DCE4B",
"6 	c #2AC942",
"7 	c #40C82E",
"8 	c #51C91C",
"9 	c #64C80A",
"0 	c #76C801",
"a 	c #89C800",
"b 	c #9BC800",
"c 	c #AEC800",
"d 	c #BFC800",
"e 	c #D2C800",
"f 	c #E2C800",
"g 	c #F5C800",
"h 	c #2EB652",
"i 	c #40B63F",
"j 	c #56B22D",
"k 	c #66B41C",
"l 	c #76B609",
"m 	c #89B600",
"n 	c #9BB600",
"o 	c #AEB600",
"p 	c #BFB600",
"q 	c #D2B600",
"r 	c #E2B600",
"s 	c #F5B600",
"t 	c #2FA660",
"u 	c #40A450",
"v 	c #4EAD3A",
"w 	c #66A628",
"x 	c #77A617",
"y 	c #88A408",
"z 	c #9BA400",
"A 	c #AEA400",
"B 	c #BFA400",
"C 	c #D2A400",
"D 	c #E2A400",
"E 	c #F5A400",
"F 	c #133CBF",
"G 	c #829FFF",
"H 	c #309272",
"I 	c #409263",
"J 	c #519053",
"K 	c #6C9236",
"L 	c #728F33",
"M 	c #8C9415",
"N 	c #9A900B",
"O 	c #AE9001",
"P 	c #BF9100",
"Q 	c #D29100",
"R 	c #E29100",
"S 	c #F59100",
"T 	c #2149CD",
"U 	c #FFFE9B",
"V 	c #FFFD3E",
"W 	c #DBD800",
"X 	c #5D83FF",
"Y 	c #308082",
"Z 	c #3F8272",
"` 	c #52845D",
" .	c #667F4E",
"..	c #76823B",
"+.	c #8B8029",
"@.	c #9C8512",
"#.	c #B08207",
"$.	c #BF8202",
"%.	c #D28200",
"&.	c #E28200",
"*.	c #F58200",
"=.	c #2A55E1",
"-.	c #275AFF",
";.	c #4672FF",
">.	c #2E7095",
",.	c #3E6F86",
"'.	c #537071",
").	c #66725C",
"!.	c #746E52",
"~.	c #877338",
"{.	c #987328",
"].	c #AD6C1A",
"^.	c #BF7009",
"/.	c #D27001",
"(.	c #E27000",
"_.	c #F57000",
":.	c #2E5EA8",
"<.	c #406094",
"[.	c #515E85",
"}.	c #675E6E",
"|.	c #76605E",
"1.	c #8A5D4C",
"2.	c #9A6039",
"3.	c #AC5F28",
"4.	c #C06014",
"5.	c #D45E06",
"6.	c #E26001",
"7.	c #F56000",
"8.	c #2F4DB7",
"9.	c #3E51A4",
"0.	c #4E5292",
"a.	c #644C83",
"b.	c #75516D",
"c.	c #8A5059",
"d.	c #96524A",
"e.	c #B04B38",
"f.	c #BD4F26",
"g.	c #D05112",
"h.	c #E54E04",
"i.	c #F54E00",
"j.	c #4B4B4B",
"k.	c #E43D11",
"l.	c #F33D07",
"m.	c #A09E00",
"n.	c #FFFFFF",
"o.	c #F22F10",
"p.	c #FFFED1",
"q.	c #49FF49",
"r.	c #AAFFAA",
"s.	c #008000",
"t.	c #0B50D8",
"u.	c #1A4DCC",
"v.	c #0B39ED",
"w.	c #1A3EDB",
"x.	c #663C90",
"y.	c #723C84",
"z.	c #8A3A6E",
"A.	c #9C3E58",
"B.	c #AE3C48",
"C.	c #BD3C38",
"D.	c #D43C22",
"E.	c #0B2DF8",
"F.	c #1A2EEA",
"G.	c #502AB8",
"H.	c #632AA5",
"I.	c #752A93",
"J.	c #882B7E",
"K.	c #9C286D",
"L.	c #AD2B5A",
"M.	c #BD2C48",
"N.	c #D32836",
"O.	c #E22A26",
"P.	c #0A1AFF",
"Q.	c #1D1AFA",
"R.	c #2F18EC",
"S.	c #4217D9",
"T.	c #5019C9",
"U.	c #6916B3",
"V.	c #761AA1",
"W.	c #8A1B8C",
"X.	c #9C177E",
"Y.	c #AF1B68",
"Z.	c #C01B56",
"`.	c #D41448",
" +	c #E31C32",
".+	c #F61A22",
"++	c #0A0AFF",
"@+	c #1E0AFE",
"#+	c #2D08FA",
"$+	c #3E0CE9",
"%+	c #4E0ED6",
"&+	c #630CC3",
"*+	c #740FB0",
"=+	c #880AA0",
"-+	c #950C90",
";+	c #AF0A78",
">+	c #BE0C68",
",+	c #CD0E56",
"'+	c #E30C43",
")+	c #F40C32",
"                                                                ",
"              . . . . .         + + + + + + + + + + + + + +     ",
"        . . . @ @ @ @ @ . . . + # $ % & * = - ; > , ' ) ! ~ {   ",
"      . @ @ @ @ @ @ @ @ @ @ @ . ] ^ / ( _ : < [ } | 1 2 3 4 {   ",
"    . @ @ @ @ @ @ @ @ @ @ @ @ @ . 5 6 7 8 9 0 a b c d e f g {   ",
"  . @ @ @ @ @ @ @ @ @ @ @ @ @ @ @ . h i j k l m n o p q r s {   ",
"  . . @ @ @ @ @ @ @ @ @ @ @ @ @ . . t u v w x y z A B C D E {   ",
"  . F . @ + + + + + + @ @ @ @ . G . H I J K L M N O P Q R S {   ",
"  . F T . + U V V W + @ . . . X G . Y Z `  ...+.@.#.$.%.&.*.{   ",
"  . F T =.+ U V V W + . -.;.;.X G . >.,.'.).!.~.{.].^./.(._.{   ",
"  . F T =.+ U V V W + -.-.;.;.X G . :.<.[.}.|.1.2.3.4.5.6.7.{   ",
"  . F T =.+ U V V W + -.-.;.;.X G . 8.9.0.a.b.c.d.e.f.g.h.i.{   ",
"  . F T =.+ U V V W + -.-.;.;.X G . j.j.j.j.j.j.j.j.j.j.k.l.{   ",
"  . F T =.+ U V V W m.+ -.;.;.X + + n.n.n.n.n.n.n.n.n.n.j.o.{   ",
"  . F T =.+ U U V V m.+ -.;.;.X + m.+ = - ; > , ' ) ! ~ n.j.{   ",
"  . F T =.=.+ U V V W m.+ + ;.X + U m.+ < [ } | 1 2 3 4 n.j.{   ",
"  . F T =.=.+ p.U V V W m.m.+ + + U W m.+ a b c d e f g n.j.    ",
"  . F T =.=.+ p.U V V V V W m.m.m.U V W m.+ n o p q r s n.j.    ",
"    . T =.=.-.+ p.U V V V V V V V V V V W m.+ A B C D E n.j.    ",
"      . =.=.-.-.+ p.p.U V V V V V V V V V W m.+ P Q R S n.j.    ",
"        . . . -.-.+ + p.p.U V V V V V V V V + #.$.%.&.*.n.j.    ",
"        q.r.r.r.. . . + + + U U p.p.V V V + {.].^./.(._.n.j.    ",
"        s.q.q.r.        j.n.+ + + p.V V + 1.2.3.4.5.6.7.n.j.    ",
"        s.q.q.r.        j.n.t.u.+ U V + b.c.d.e.f.g.h.i.n.j.    ",
"  q.r.r.s.q.q.r.r.r.r.  j.n.v.w.+ U + x.y.z.A.B.C.D.k.l.n.j.    ",
"  s.q.q.q.q.q.q.q.q.r.  j.n.E.F.+ + G.H.I.J.K.L.M.N.O.o.n.j.    ",
"  s.q.q.q.q.q.q.q.q.r.  j.n.P.Q.R.S.T.U.V.W.X.Y.Z.`. +.+n.j.    ",
"  s.s.s.s.q.q.q.s.s.q.  j.n.++@+#+$+%+&+*+=+-+;+>+,+'+)+n.j.    ",
"        s.q.q.r.          j.n.n.n.n.n.n.n.n.n.n.n.n.n.n.j.      ",
"        s.q.q.r.            j.j.j.j.j.j.j.j.j.j.j.j.j.j.        ",
"        s.s.s.q.                                                ",
"                                                                "};
