/* XPM */
static const char * db_reopen_xpm[] = {
"32 32 21 1",
" 	c None",
".	c #000000",
"+	c #7C9AFE",
"@	c #AEAC10",
"#	c #7E9BF9",
"$	c #FFFEB3",
"%	c #FFFC27",
"&	c #F8F731",
"*	c #133CBF",
"=	c #2149CD",
"-	c #BFBD2D",
";	c #83820C",
">	c #2A55E1",
",	c #275AFF",
"'	c #4672FF",
")	c #5D83FF",
"!	c #829FFF",
"~	c #BDBB3B",
"{	c #FFFD73",
"]	c #87860D",
"^	c #8C8B0C",
"                                ",
"       .....                    ",
"    ...+++++...                 ",
"   .+++++++++++@@@@             ",
"  .++++++++#@@@$$$$@@@          ",
" .+++++++#@%%%%%%%%%$$$@@       ",
" ..+++++@&%%%%%%%%%%%%%$$@      ",
" .*.+++@%%%%%%%%%%%%%%%%%$@     ",
" .*=...+@%%%%%%----;%%%%%%$@    ",
" .*=>>,..@%%%%@@@@@@;;%%%%%$    ",
" .*=>>,,,,@%@@')!.  @@;%%%%$@   ",
" .*=>>,,,,,@,'')!.    @;%%%%$@  ",
" .*=>>,,,,,,,'')!.     @;%%%$@  ",
" .*=>>,,,,,,,'')!.     @;%%%$@  ",
" .*=>>,,,,,,,'')!.      @;%%$@  ",
" .*=>>,,,,,,,'')!.      @-%%%$@ ",
" .*=>>,,,,,,,'')!.      @-%%%$@ ",
" .*=>>,,,,,,,'')!.      @-%%%$@ ",
"  .=@@@@@@@@@@@).       @-%%%$@ ",
"   .@$$$$$$$$$@.        @-%%%$@ ",
"    @~%%%%%%%@.         @%%%%$@ ",
"    @~%%%%%%@           %%%%%@  ",
"    @~%%%%%%%          @%%%%%@  ",
"    @~%%%%%%$@       @@%%%%%@   ",
"    @~%%%%%%{$@@@@@@@%%%%%%%    ",
"    @~%%%%%%%%%%%%%%%%%%%%%@    ",
"    @~%@;]%%%%%%%%%%%%%%%%@     ",
"    @~@ @^;%%%%%%%%%%%%%%@      ",
"    @@   @@;;;;%%%%%%%%@@       ",
"            @@@;;;;@@@          ",
"               @@@@             ",
"                                "};
