/* XPM */
static const char * folder_xpm[] = {
"17 15 8 1",
".	c None",
"+	c #9C9C00",
"@	c #000000",
"#	c #F7F7F7",
"$	c #FFFFCE",
"%	c #FFFF9C",
"&	c #CECE63",
"*	c #FFCE9C",
".................",
"...+++++@........",
"..+#$$%%+@.......",
".+&&&&&&&++++++..",
".+$$$$$$$$$$$%&@.",
".+$%%%%%%%%%%*&@.",
".+$%%%%%%%*%*%&@.",
".+$%%%%%%%%*%*&@.",
".+$%%%%%*%*%*%&@.",
".+$%%%%%%*%*%*&@.",
".+$%%%*%*%*%**&@.",
".+$*%*%*%*%***&@.",
".+&&&&&&&&&&&&&@.",
"..@@@@@@@@@@@@@@.",
"................."};
