/* XPM */
static const char * keyframe_xpm[] = {
"17 17 6 1",
".	c None",
"+	c #A5A5A5",
"@	c #000000",
"#	c #EFEFEF",
"$	c #FFFFFF",
"%	c #898989",
".................",
"....+@@@+........",
"....@#$#@........",
".@@@@$$$@@@@@@@@.",
".%%%@#$#@%%%%%%%.",
"....+@@@+........",
"..........+@@@+..",
"..........@#$#@..",
".@@@@@@@@@@$$$@@.",
".%%%%%%%%%@#$#@%.",
"..........+@@@+..",
"....+@@@+........",
"....@#$#@........",
".@@@@$$$@@@@@@@@.",
".%%%@#$#@%%%%%%%.",
"....+@@@+........",
"................."};
