/* XPM */
static const char * layout1x1_xpm[] = {
"13 13 2 1",
".	c #000000",
"+	c #ffffff",
".............",
".+++++++++++.",
".+++++++++++.",
".+++++++++++.",
".+++++++++++.",
".+++++++++++.",
".+++++++++++.",
".+++++++++++.",
".+++++++++++.",
".+++++++++++.",
".+++++++++++.",
".+++++++++++.",
"............."};
