/* XPM */
static const char * layout2x2_xpm[] = {
"13 13 2 1",
".	c #000000",
"+	c #ffffff",
".............",
".+++++.+++++.",
".+++++.+++++.",
".+++++.+++++.",
".+++++.+++++.",
".+++++.+++++.",
".............",
".+++++.+++++.",
".+++++.+++++.",
".+++++.+++++.",
".+++++.+++++.",
".+++++.+++++.",
"............."};
