/* XPM */
static const char * layout1x2_xpm[] = {
"13 13 3 1",
".	c #000000",
"+	c None",
"#	c #ffffff",
"+++++++++++++",
"+++++++++++++",
"+++++++++++++",
".............",
".#####.#####.",
".#####.#####.",
".#####.#####.",
".#####.#####.",
".#####.#####.",
".............",
"+++++++++++++",
"+++++++++++++",
"+++++++++++++"};
