/* XPM */
static const char * light2_xpm[] = {
"15 22 8 1",
" 	c None",
".	c #787A6F",
"+	c #FFFDA3",
"@	c #FDFD54",
"#	c #F9E445",
"$	c #BABA14",
"%	c #484C19",
"&	c #1D4A34",
"               ",
"               ",
"     .....     ",
"   ..+++++..   ",
"   .+++++++.   ",
"  .++@@@@+@+.  ",
"  .+@@@@@@@+.  ",
"  .+@#####@@.  ",
"  .+@.###.@+.  ",
"  .+@$$@$$@+.  ",
"   .@@.@.@+.   ",
"   .++.@.++.   ",
"    .+@@@+.    ",
"    .+@@@+.    ",
"     .@@@.     ",
"     %%&&%     ",
"     %%%&&     ",
"     ...&&     ",
"     %%%%&     ",
"     ...&.     ",
"               ",
"               "};
