/* XPM */
static const char *light_xpm[] = {
"11 18 8 1",
"* c None",
". c #1D4A34",
"+ c #BABA14",
"@ c #B8FE44",
"# c #FDFD54",
"$ c #787A6F",
"% c #F4F4BD",
"& c #484C19",
"***$$$$$***",
"*$$%%%%%$$*",
"*$%%%%%%%$*",
"$%%####%#%$",
"$%#######%$",
"$%#@@@@@##$",
"$%#$@@@$#%$",
"$%#++#++#%$",
"*$##$#$#%$*",
"*$%%$#$%%$*",
"**$%###%$**",
"**$%###%$**",
"***$###$***",
"***&&..&***",
"***&&&..***",
"***$$$..***",
"***&&&&.***",
"***$$$.$***"
};
