/* XPM */
static const char * lock_xpm[] = {
"16 16 17 1",
" 	c None",
".	c #C2C1CC",
"+	c #CAC9D6",
"@	c #72728F",
"#	c #BABAC3",
"$	c #A8A6B4",
"%	c #878897",
"&	c #8E8E8E",
"*	c #E4E3EE",
"=	c #D3D2E1",
"-	c #9695A7",
";	c #A0A0B0",
">	c #4A62A2",
",	c #344C8D",
"'	c #12216E",
")	c #17327B",
"!	c #7D7F99",
"     .+@@@@     ",
"    #$%&$$@@    ",
"    +&%  $&@    ",
"    .&@  .&@    ",
"    .&@  .&@    ",
"    .&@  .&@    ",
"    .&@  .&@    ",
"  #*=+..&&&&$@  ",
"  #*==+.-;;-$@  ",
"  #*+++#&&--$@  ",
"  #*=++#---;;@  ",
"  #*++.#-;;;-@  ",
"  #*=+.#-----@  ",
"  $>,,,,'')')@  ",
"  ;,))'''''''@  ",
"   -%!!@@@@!!   "};
