/* XPM */
static const char * macrorecord_xpm[] = {
"32 32 10 1",
"-	c None",
".	c #0202FE",
"+	c #1616FA",
"@	c #2626F6",
"#	c #3636F2",
"$	c #4646EE",
"%	c #7A7AE4",
"&	c #8A8AE2",
"*	c #8E8EDE",
"=	c #9696DE",
"--------------------------------",
"--------------------------------",
"--------------------------------",
"--------------------------------",
"--------------------------------",
"--------------------------------",
"--------------------------------",
"------------&$+..+$&------------",
"----------=@........@=----------",
"---------%............%---------",
"--------*..............*--------",
"--------+..............+--------",
"-------%................%-------",
"-------#................#-------",
"-------+................+-------",
"-------..................-------",
"-------+................+-------",
"-------#................#-------",
"-------%................%-------",
"--------+..............+--------",
"--------*..............*--------",
"---------%............%---------",
"----------=@........@=----------",
"------------&$+..+$&------------",
"--------------------------------",
"--------------------------------",
"--------------------------------",
"--------------------------------",
"--------------------------------",
"--------------------------------",
"--------------------------------",
"--------------------------------"};
