/* XPM */
static const char * ms_bt_wipe_xpm[] = {
"32 32 217 2",
"  	c None",
". 	c #FF0000",
"+ 	c #FE0000",
"@ 	c #D21600",
"# 	c #326400",
"$ 	c #A60100",
"% 	c #CE0000",
"& 	c #F60000",
"* 	c #FA0202",
"= 	c #FA0101",
"- 	c #FB0101",
"; 	c #FC0101",
"> 	c #4B7400",
", 	c #008400",
"' 	c #582800",
") 	c #AA0000",
"! 	c #DC0000",
"~ 	c #F90000",
"{ 	c #FD0101",
"] 	c #FD0000",
"^ 	c #F30505",
"/ 	c #F40505",
"( 	c #F40404",
"_ 	c #F50404",
": 	c #AC3702",
"< 	c #00B000",
"[ 	c #008300",
"} 	c #075200",
"| 	c #820901",
"1 	c #B50202",
"2 	c #E40303",
"3 	c #F50303",
"4 	c #F60404",
"5 	c #F60303",
"6 	c #F70303",
"7 	c #EC0808",
"8 	c #ED0808",
"9 	c #EE0808",
"0 	c #EE0707",
"a 	c #E60707",
"b 	c #29B101",
"c 	c #00AF00",
"d 	c #008200",
"e 	c #005400",
"f 	c #272101",
"g 	c #960404",
"h 	c #C10505",
"i 	c #E70606",
"j 	c #EF0707",
"k 	c #F00707",
"l 	c #F00606",
"m 	c #F10606",
"n 	c #E60C0C",
"o 	c #E60B0B",
"p 	c #E70B0B",
"q 	c #E50A0A",
"r 	c #866506",
"s 	c #00DB00",
"t 	c #00AE00",
"u 	c #008100",
"v 	c #005300",
"w 	c #002600",
"x 	c #550603",
"y 	c #9E0707",
"z 	c #CC0909",
"A 	c #E50909",
"B 	c #E90A0A",
"C 	c #EA0A0A",
"D 	c #EA0909",
"E 	c #DF0F0F",
"F 	c #E00E0E",
"G 	c #CF170C",
"H 	c #13DE01",
"I 	c #00DA00",
"J 	c #00AD00",
"K 	c #008000",
"L 	c #005200",
"M 	c #002500",
"N 	c #080300",
"O 	c #7C0707",
"P 	c #AC0A0A",
"Q 	c #D50C0C",
"R 	c #E10D0D",
"S 	c #E20D0D",
"T 	c #E30D0D",
"U 	c #D81212",
"V 	c #D91212",
"W 	c #D91111",
"X 	c #687408",
"Y 	c #00F200",
"Z 	c #00D900",
"` 	c #00AC00",
" .	c #007F00",
"..	c #005100",
"+.	c #002400",
"@.	c #000200",
"#.	c #2F0303",
"$.	c #B00D0D",
"%.	c #CC0F0F",
"&.	c #DA1010",
"*.	c #DB1111",
"=.	c #DB1010",
"-.	c #DC1010",
";.	c #D11515",
">.	c #D21515",
",.	c #CF1714",
"'.	c #508508",
").	c #48A507",
"!.	c #00DE00",
"~.	c #00B800",
"{.	c #004E00",
"].	c #001A00",
"^.	c #310605",
"/.	c #410606",
"(.	c #AB1010",
"_.	c #D11313",
":.	c #D41414",
"<.	c #D51414",
"[.	c #D51313",
"}.	c #D61313",
"|.	c #CA1919",
"1.	c #CB1919",
"2.	c #CB1818",
"3.	c #CC1818",
"4.	c #CB1717",
"5.	c #00E700",
"6.	c #00D000",
"7.	c #008C00",
"8.	c #004800",
"9.	c #000A00",
"0.	c #8A0F0F",
"a.	c #B91515",
"b.	c #CC1717",
"c.	c #CD1717",
"d.	c #CE1717",
"e.	c #CF1717",
"f.	c #C41C1C",
"g.	c #C41B1B",
"h.	c #C51B1B",
"i.	c #851111",
"j.	c #B31818",
"k.	c #C61A1A",
"l.	c #C71A1A",
"m.	c #C81A1A",
"n.	c #BD1F1F",
"o.	c #BE1F1F",
"p.	c #BE1E1E",
"q.	c #801414",
"r.	c #AD1B1B",
"s.	c #BF1D1D",
"t.	c #C01E1E",
"u.	c #C01D1D",
"v.	c #C11D1D",
"w.	c #B62222",
"x.	c #B72222",
"y.	c #B82222",
"z.	c #B72121",
"A.	c #7C1616",
"B.	c #A71D1D",
"C.	c #B82121",
"D.	c #B92121",
"E.	c #BA2121",
"F.	c #BA2020",
"G.	c #BB2020",
"H.	c #AF2626",
"I.	c #B02626",
"J.	c #B02525",
"K.	c #B12525",
"L.	c #B02424",
"M.	c #771818",
"N.	c #A12121",
"O.	c #B12424",
"P.	c #B22424",
"Q.	c #B32424",
"R.	c #B42424",
"S.	c #AA2929",
"T.	c #AA2828",
"U.	c #AB2828",
"V.	c #741A1A",
"W.	c #9B2424",
"X.	c #AB2727",
"Y.	c #AC2727",
"Z.	c #AD2727",
"`.	c #7F5E1F",
" +	c #7F5D1F",
".+	c #5F4B17",
"++	c #76581C",
"@+	c #855720",
"#+	c #01FD02",
"$+	c #00E901",
"%+	c #00D401",
"&+	c #009601",
"*+	c #005A01",
"=+	c #002301",
"-+	c #00EF02",
";+	c #01F902",
">+	c #13E50D",
",+	c #0EE32C",
"'+	c #0EE22C",
")+	c #16D444",
"!+	c #1EBD65",
"~+	c #23B275",
"{+	c #2B939E",
"]+	c #2E8DA8",
"^+	c #3666D8",
"/+	c #3764DA",
"(+	c #364EF0",
"_+	c #3146F1",
":+	c #2B3EF3",
"<+	c #2536F4",
"[+	c #202EF6",
"}+	c #1A26F7",
"|+	c #141EF9",
"1+	c #0F15FA",
"2+	c #090DFC",
"3+	c #0305FE",
"4+	c #0000FF",
". . . . . . . . . . . . . + @ # $ % & . . . . . . . . . . . . . ",
"* * * * = - - - - - - - ; & > , ' ) ! ~ { { { ] ] ] ] ] ] ] + + ",
"^ ^ ^ / / / / / ( ( _ _ ( : < [ } | 1 2 3 4 4 5 5 6 6 6 6 6 6 6 ",
"7 8 8 8 8 8 8 8 8 9 9 0 a b c d e f g h i j j k k k l l l l m m ",
"n o o o o o o p p p p q r s t u v w x y z A B B B B B B C C D D ",
"E E E E E F F F F F F G H I J K L M N O P Q R S S S S T T T T T ",
"U U U U V V V V V W W X Y Z `  ...+.@.#.$.%.&.*.=.=.-.-.-.-.-.-.",
";.;.>.>.>.>.>.>.>.>.,.'.).!.~.[ {.].^./.(._.:.:.<.<.<.<.[.[.[.}.",
"|.1.1.2.2.2.2.2.3.3.3.3.4.5.6.7.8.9.0.a.b.c.d.d.d.d.d.d.d.d.e.e.",
"f.f.f.f.f.g.h.h.h.h.h.h.h.5.6.7.8.9.i.j.k.l.l.l.l.l.l.l.m.m.m.m.",
"n.n.n.n.o.o.o.o.o.o.p.p.p.5.6.7.8.9.q.r.s.t.t.t.t.u.v.v.v.v.v.v.",
"w.w.w.x.x.x.x.x.x.x.y.y.z.5.6.7.8.9.A.B.C.D.D.D.E.E.E.E.E.F.F.G.",
"H.I.J.J.J.J.J.J.K.K.K.K.L.5.6.7.8.9.M.N.O.P.Q.Q.Q.Q.Q.Q.Q.Q.R.R.",
"S.S.S.T.T.T.T.T.T.T.T.U.T.5.6.7.8.9.V.W.X.Y.Y.Y.Y.Y.Y.Y.Z.Z.Z.Z.",
"`.`.`.`.`.`.`.`.`.`.`.`. +5.6.7.8.9..+++ +`.`.`.`.`.`.`.`.`.`.@+",
"#+#+#+#+#+#+#+#+#+#+#+#+#+$+%+&+*+=+-+;+#+#+#+#+#+#+#+#+#+#+#+>+",
",+,+,+,+,+,+,+,+,+,+,+,+,+,+'+'+'+'+'+,+,+,+,+,+,+,+,+,+,+,+,+)+",
"!+!+!+!+!+!+!+!+!+!+!+!+!+!+!+!+!+!+!+!+!+!+!+!+!+!+!+!+!+!+!+~+",
"{+{+{+{+{+{+{+{+{+{+{+{+{+{+{+{+{+{+{+{+{+{+{+{+{+{+{+{+{+{+{+]+",
"^+^+^+^+^+^+^+^+^+^+^+^+^+^+^+^+^+^+^+^+^+^+^+^+^+^+^+^+^+^+^+/+",
"(+(+(+(+(+(+(+(+(+(+(+(+(+(+(+(+(+(+(+(+(+(+(+(+(+(+(+(+(+(+(+(+",
"_+_+_+_+_+_+_+_+_+_+_+_+_+_+_+_+_+_+_+_+_+_+_+_+_+_+_+_+_+_+_+_+",
":+:+:+:+:+:+:+:+:+:+:+:+:+:+:+:+:+:+:+:+:+:+:+:+:+:+:+:+:+:+:+:+",
"<+<+<+<+<+<+<+<+<+<+<+<+<+<+<+<+<+<+<+<+<+<+<+<+<+<+<+<+<+<+<+<+",
"[+[+[+[+[+[+[+[+[+[+[+[+[+[+[+[+[+[+[+[+[+[+[+[+[+[+[+[+[+[+[+[+",
"}+}+}+}+}+}+}+}+}+}+}+}+}+}+}+}+}+}+}+}+}+}+}+}+}+}+}+}+}+}+}+}+",
"|+|+|+|+|+|+|+|+|+|+|+|+|+|+|+|+|+|+|+|+|+|+|+|+|+|+|+|+|+|+|+|+",
"1+1+1+1+1+1+1+1+1+1+1+1+1+1+1+1+1+1+1+1+1+1+1+1+1+1+1+1+1+1+1+1+",
"2+2+2+2+2+2+2+2+2+2+2+2+2+2+2+2+2+2+2+2+2+2+2+2+2+2+2+2+2+2+2+2+",
"3+3+3+3+3+3+3+3+3+3+3+3+3+3+3+3+3+3+3+3+3+3+3+3+3+3+3+3+3+3+3+3+",
"4+4+4+4+4+4+4+4+4+4+4+4+4+4+4+4+4+4+4+4+4+4+4+4+4+4+4+4+4+4+4+4+",
"4+4+4+4+4+4+4+4+4+4+4+4+4+4+4+4+4+4+4+4+4+4+4+4+4+4+4+4+4+4+4+4+"};
