/* XPM */
static const char * ms_block_xpm[] = {
"32 32 25 1",
" 	c None",
".	c #FF0000",
"+	c #2500DA",
"@	c #0000FF",
"#	c #DA0025",
"$	c #4A00B5",
"%	c #5100AE",
"&	c #0900F6",
"*	c #1B00E4",
"=	c #E80017",
"-	c #E4001B",
";	c #3800C7",
">	c #DE0021",
",	c #C90036",
"'	c #3600C9",
")	c #F0000F",
"!	c #ED0012",
"~	c #3200CD",
"{	c #1200ED",
"]	c #3C00C3",
"^	c #5200AD",
"/	c #84007B",
"(	c #D2002D",
"_	c #B3004C",
":	c #2D00D2",
"........+@@@@@@@#.......$@@@@@@@",
"........+@@@@@@@#.......$@@@@@@@",
"........+@@@@@@@#.......$@@@@@@@",
"........+@@@@@@@#.......$@@@@@@@",
"........+@@@@@@@#.......$@@@@@@@",
"........+@@@@@@@#.......$@@@@@@@",
"........+@@@@@@@#.......$@@@@@@@",
"........+@@@@@@@#.......%&&&&&&&",
"********=-------;*******>.......",
"@@@@@@@@........+@@@@@@@#.......",
"@@@@@@@@........+@@@@@@@#.......",
"@@@@@@@@........+@@@@@@@#.......",
"@@@@@@@@........+@@@@@@@#.......",
"@@@@@@@@........+@@@@@@@#.......",
"@@@@@@@@........+@@@@@@@#.......",
"@@@@@@@@........+@@@@@@@#.......",
",,,,,,,,'''''''')!!!!!!!~{{{{{{{",
"........@@@@@@@@........+@@@@@@@",
"........@@@@@@@@........+@@@@@@@",
"........@@@@@@@@........+@@@@@@@",
"........@@@@@@@@........+@@@@@@@",
"........@@@@@@@@........+@@@@@@@",
"........@@@@@@@@........+@@@@@@@",
"........@@@@@@@@........]*******",
"^^^^^^^/(((((((_::::::::........",
"@@@@@@@$.......#@@@@@@@@........",
"@@@@@@@$.......#@@@@@@@@........",
"@@@@@@@$.......#@@@@@@@@........",
"@@@@@@@$.......#@@@@@@@@........",
"@@@@@@@$.......#@@@@@@@@........",
"@@@@@@@$.......#@@@@@@@@........",
"@@@@@@@$.......#@@@@@@@@........"};
