/* XPM */
static const char * ms_bt_slide_xpm[] = {
"32 32 240 2",
"  	c None",
". 	c #FF0000",
"+ 	c #FD0101",
"@ 	c #FD0000",
"# 	c #FE0000",
"$ 	c #F60404",
"% 	c #F60303",
"& 	c #F70303",
"* 	c #F80303",
"= 	c #F80202",
"- 	c #F90202",
"; 	c #FA0202",
"> 	c #EF0707",
", 	c #F00707",
"' 	c #F00606",
") 	c #F10606",
"! 	c #F20606",
"~ 	c #F20505",
"{ 	c #F30505",
"] 	c #E80A0A",
"^ 	c #E90A0A",
"/ 	c #EA0A0A",
"( 	c #EA0909",
"_ 	c #EB0909",
": 	c #EC0909",
"< 	c #EC0808",
"[ 	c #ED0808",
"} 	c #E10E0E",
"| 	c #E20D0D",
"1 	c #E30D0D",
"2 	c #E40C0C",
"3 	c #E50C0C",
"4 	c #E60C0C",
"5 	c #E60B0B",
"6 	c #DB1111",
"7 	c #DB1010",
"8 	c #DC1010",
"9 	c #DD1010",
"0 	c #DD0F0F",
"a 	c #DE0F0F",
"b 	c #DF0F0F",
"c 	c #D41414",
"d 	c #D51414",
"e 	c #D51313",
"f 	c #D61313",
"g 	c #D71313",
"h 	c #D71212",
"i 	c #D81212",
"j 	c #CD1717",
"k 	c #CE1717",
"l 	c #CF1717",
"m 	c #CF1616",
"n 	c #D01616",
"o 	c #D11616",
"p 	c #D11515",
"q 	c #C61B1B",
"r 	c #C71A1A",
"s 	c #C81A1A",
"t 	c #C91A1A",
"u 	c #C91919",
"v 	c #CA1919",
"w 	c #BF1E1E",
"x 	c #C01E1E",
"y 	c #C01D1D",
"z 	c #C11D1D",
"A 	c #C21D1D",
"B 	c #C21C1C",
"C 	c #C31C1C",
"D 	c #B82121",
"E 	c #B92121",
"F 	c #BA2121",
"G 	c #BA2020",
"H 	c #BB2020",
"I 	c #BC2020",
"J 	c #BC1F1F",
"K 	c #B12525",
"L 	c #B22525",
"M 	c #B22424",
"N 	c #B32424",
"O 	c #B42424",
"P 	c #B42323",
"Q 	c #B52323",
"R 	c #B62323",
"S 	c #AB2828",
"T 	c #AC2828",
"U 	c #AC2727",
"V 	c #AD2727",
"W 	c #AE2727",
"X 	c #AE2626",
"Y 	c #AF2626",
"Z 	c #A92929",
"` 	c #A82828",
" .	c #A52828",
"..	c #A72828",
"+.	c #A82929",
"@.	c #9E2925",
"#.	c #8F2222",
"$.	c #9B2525",
"%.	c #4C6FE9",
"&.	c #5070D6",
"*.	c #838820",
"=.	c #3C518A",
"-.	c #3B56B6",
";.	c #4869DE",
">.	c #4C6EE9",
",.	c #4868EA",
"'.	c #4868E9",
").	c #7B8A69",
"!.	c #909000",
"~.	c #5D632A",
"{.	c #2F449A",
"].	c #3D58C7",
"^.	c #4766E5",
"/.	c #4360EC",
"(.	c #536CC5",
"_.	c #ADAE07",
":.	c #6E6E00",
"<.	c #3A4554",
"[.	c #2F44A8",
"}.	c #3C57D6",
"|.	c #4260EA",
"1.	c #3D58EE",
"2.	c #3C57EB",
"3.	c #9BA44D",
"4.	c #B1B100",
"5.	c #4C4C07",
"6.	c #283781",
"7.	c #2F45B9",
"8.	c #3A54E2",
"9.	c #3D58ED",
"0.	c #3750EF",
"a.	c #374FEF",
"b.	c #6274AD",
"c.	c #D3D300",
"d.	c #4D4D00",
"e.	c #2B2F23",
"f.	c #24349D",
"g.	c #2F43CB",
"h.	c #364EEA",
"i.	c #3248F1",
"j.	c #3046ED",
"k.	c #CACE2E",
"l.	c #2B2B00",
"m.	c #192155",
"n.	c #2333AE",
"o.	c #2D41DD",
"p.	c #3147F0",
"q.	c #2C40F2",
"r.	c #758296",
"s.	c #F3F300",
"t.	c #0C0D07",
"u.	c #1D2AA0",
"v.	c #2738D9",
"w.	c #2B3EF0",
"x.	c #2637F4",
"y.	c #727C95",
"z.	c #8B9378",
"A.	c #C8CA1E",
"B.	c #BABA00",
"C.	c #8D8D00",
"D.	c #606000",
"E.	c #333300",
"F.	c #1E223B",
"G.	c #141B66",
"H.	c #1925A7",
"I.	c #2435ED",
"J.	c #2637F3",
"K.	c #202EF6",
"L.	c #202EF5",
"M.	c #BEC13D",
"N.	c #C4C400",
"O.	c #8C8C00",
"P.	c #535300",
"Q.	c #1B1B00",
"R.	c #0F1676",
"S.	c #1B27D0",
"T.	c #1F2EF3",
"U.	c #1A26F7",
"V.	c #BCBF3D",
"W.	c #C6C600",
"X.	c #555500",
"Y.	c #1C1C00",
"Z.	c #0C1277",
"`.	c #1620D2",
" +	c #1A26F4",
".+	c #151EF9",
"++	c #151EF8",
"@+	c #BBBE3D",
"#+	c #C8C800",
"$+	c #8F8F00",
"%+	c #565600",
"&+	c #1E1E00",
"*+	c #0A0E78",
"=+	c #1119D3",
"-+	c #141EF6",
";+	c #0F16FA",
">+	c #0F15FA",
",+	c #BABC3E",
"'+	c #C9C900",
")+	c #585800",
"!+	c #1F1F00",
"~+	c #070A79",
"{+	c #0C12D5",
"]+	c #0E15F8",
"^+	c #090EFC",
"/+	c #090DFC",
"(+	c #B9BA3E",
"_+	c #CBCB00",
":+	c #929200",
"<+	c #595900",
"[+	c #212100",
"}+	c #04067A",
"|+	c #070BD6",
"1+	c #090DF9",
"2+	c #0406FE",
"3+	c #0305FD",
"4+	c #B8B83F",
"5+	c #CCCC00",
"6+	c #949400",
"7+	c #5B5B00",
"8+	c #222200",
"9+	c #02037C",
"0+	c #0204D8",
"a+	c #0305FB",
"b+	c #0000FF",
"c+	c #B7B73F",
"d+	c #CECE00",
"e+	c #959500",
"f+	c #5D5D00",
"g+	c #242400",
"h+	c #01018F",
"i+	c #0000E4",
"j+	c #0000FD",
"k+	c #727287",
"l+	c #81815E",
"m+	c #5E5E5D",
"n+	c #3B3B5D",
"o+	c #17175D",
"p+	c #0000CB",
"q+	c #0000F9",
". . . . . . . . . . . . . . . . . . . . . . . . . . . . . . . . ",
"+ @ @ @ @ @ @ @ # # # # # # # # # # # # # . . . . . . . . . . . ",
"$ $ % % & & & & & & & * * * * * * = = - - - - - - - ; ; ; ; ; ; ",
"> > > , , , , ' ' ' ) ) ) ) ) ) ) ) ! ! ! ! ~ ~ ~ { { { { { { { ",
"] ] ^ ^ ^ ^ ^ ^ ^ / / ( ( ( ( ( ( _ _ _ _ _ _ _ : : < < < < < [ ",
"} | | | | | | | | 1 1 1 1 1 1 1 2 2 2 2 2 2 2 3 3 3 3 3 3 3 4 5 ",
"6 6 6 6 6 6 7 8 8 8 8 8 8 8 8 9 9 9 9 9 9 0 a a a a a a a b b b ",
"c c c c c c c d d d e e e e f f f f f f f g g g g h h h i i i i ",
"j j j j j j k k k k k k k l l m m m m m n n n n n n n o o o p p ",
"q q q q q r r r r r r r s s s s s s s t u u u u u u v v v v v v ",
"w w w w x x x x x x y z z z z z z z A A A A A A B C C C C C C C ",
"D D D E E E E E E E F F F F G G G H H H H H H H I I I I I J J J ",
"K K L L M M M M M N N N N N N N O O O P P P P Q Q Q Q Q Q Q Q R ",
"S S S S S S S T T U U U U U U V V V V V V V W X X X X X X X Y Y ",
"Z Z Z Z Z Z Z Z Z Z Z Z Z Z Z `  ...Z Z Z Z Z Z Z Z Z Z Z Z Z Z ",
"Z Z Z Z Z Z Z Z Z Z Z Z Z Z +.@.#.$.` Z Z Z Z Z Z Z Z Z Z Z Z Z ",
"%.%.%.%.%.%.%.%.%.%.%.%.%.%.&.*.=.-.;.>.%.%.%.%.%.%.%.%.%.%.%.%.",
",.,.,.,.,.,.,.,.,.,.,.,.,.'.).!.~.{.].^.,.,.,.,.,.,.,.,.,.,.,.,.",
"/././././././././././././.(._.!.:.<.[.}.|./././././././././././.",
"1.1.1.1.1.1.1.1.1.1.1.1.2.3.4.!.:.5.6.7.8.9.1.1.1.1.1.1.1.1.1.1.",
"0.0.0.0.0.0.0.0.0.0.0.a.b.c.4.!.:.d.e.f.g.h.0.0.0.0.0.0.0.0.0.0.",
"i.i.i.i.i.i.i.i.i.i.i.j.k.c.4.!.:.d.l.m.n.o.p.i.i.i.i.i.i.i.i.i.",
"q.q.q.q.q.q.q.q.q.q.q.r.s.c.4.!.:.d.l.t.u.v.w.q.q.q.q.q.q.q.q.q.",
"x.x.x.x.x.x.x.x.x.x.x.y.z.A.B.C.D.E.F.G.H.I.J.x.x.x.x.x.x.x.x.x.",
"K.K.K.K.K.K.K.K.K.K.K.K.L.M.N.O.P.Q.R.S.T.L.K.K.K.K.K.K.K.K.K.K.",
"U.U.U.U.U.U.U.U.U.U.U.U.U.V.W.C.X.Y.Z.`. +U.U.U.U.U.U.U.U.U.U.U.",
".+.+.+.+.+.+.+.+.+.+.+.+++@+#+$+%+&+*+=+-+.+.+.+.+.+.+.+.+.+.+.+",
";+;+;+;+;+;+;+;+;+;+;+;+>+,+'+!.)+!+~+{+]+;+;+;+;+;+;+;+;+;+;+;+",
"^+^+^+^+^+^+^+^+^+^+^+^+/+(+_+:+<+[+}+|+1+^+^+^+^+^+^+^+^+^+^+^+",
"2+2+2+2+2+2+2+2+2+2+2+2+3+4+5+6+7+8+9+0+a+2+2+2+2+2+2+2+2+2+2+2+",
"b+b+b+b+b+b+b+b+b+b+b+b+b+c+d+e+f+g+h+i+j+b+b+b+b+b+b+b+b+b+b+b+",
"b+b+b+b+b+b+b+b+b+b+b+b+b+k+l+m+n+o+p+q+b+b+b+b+b+b+b+b+b+b+b+b+"};
