/* XPM */
static const char * ms_comp_fadein_xpm[] = {
"32 32 11 1",
" 	c None",
".	c #000000",
"+	c #DDDDDD",
"@	c #2AA1BF",
"#	c #1B1B1B",
"$	c #373737",
"%	c #525252",
"&	c #6E6E6E",
"*	c #8A8A8A",
"=	c #A5A5A5",
"-	c #C1C1C1",
"                                ",
" .............................. ",
" .............................. ",
" ..++++++++++++++++++++++++++.. ",
" ..++++++++++++++++++++++++++.. ",
" ..+++++++@@@@@@@@@@@@@@@@+++.. ",
" ..+++++++@@@@@@@@@@@@@@@@+++.. ",
" ..+++++++@@.#$%&*=-++++@@+++.. ",
" ..+++++++@@.#$%&*=-++++@@+++.. ",
" ..+++++++@@.#$%&*=-++++@@+++.. ",
" ..+++++++@@.#$%&*=-++++@@+++.. ",
" ..+++++++@@.#$%&*=-++++@@+++.. ",
" ..+++++++@@.#$%&*=-++++@@+++.. ",
" ..+++++++@@.#$%&*=-++++@@+++.. ",
" ..+++++++@@.#$%&*=-++++@@+++.. ",
" ..+++++++@@.#$%&*=-++++@@+++.. ",
" ..+++++++@@.#$%&*=-++++@@+++.. ",
" ..+++++++@@.#$%&*=-++++@@+++.. ",
" ..+++++++@@.#$%&*=-++++@@+++.. ",
" ..+++++++@@.#$%&*=-++++@@+++.. ",
" ..+++++++@@@@@@@@@@@@@@@@+++.. ",
" ..+++++++@@@@@@@@@@@@@@@@+++.. ",
" ..++++++++++++++++++++++++++.. ",
" ..++++++++++++++++++++++++++.. ",
" ..++++++++++++++++++++++++++.. ",
" ..++++++++++++++++++++++++++.. ",
" ..++++++++++++++++++++++++++.. ",
" ..++++++++++++++++++++++++++.. ",
" ..++++++++++++++++++++++++++.. ",
" .............................. ",
" .............................. ",
"                                "};
