/* XPM */
static const char * ms_comp_tb_slide_xpm[] = {
"30 31 96 2",
"  	c None",
". 	c #000000",
"+ 	c #DDDDDD",
"@ 	c #2AA1BF",
"# 	c #29A0BE",
"$ 	c #299FBD",
"% 	c #299FBC",
"& 	c #299EBC",
"* 	c #299DBB",
"= 	c #DCDCDC",
"- 	c #299DBA",
"; 	c #289CB9",
"> 	c #289AB7",
", 	c #289AB6",
"' 	c #DBDBDB",
") 	c #00FF00",
"! 	c #00BF00",
"~ 	c #007F00",
"{ 	c #003F00",
"] 	c #051905",
"^ 	c #2691AD",
"/ 	c #2693AF",
"( 	c #2796B2",
"_ 	c #2899B6",
": 	c #D9D9D9",
"< 	c #22859E",
"[ 	c #2389A2",
"} 	c #258EA8",
"| 	c #2693AE",
"1 	c #D6D6D6",
"2 	c #DADADA",
"3 	c #1E748A",
"4 	c #1F7990",
"5 	c #21829A",
"6 	c #248AA4",
"7 	c #D2D2D2",
"8 	c #D7D7D7",
"9 	c #289BB9",
"0 	c #196375",
"a 	c #1B6A7E",
"b 	c #1E758B",
"c 	c #CECECE",
"d 	c #C9C9C9",
"e 	c #D4D4D4",
"f 	c #D8D8D8",
"g 	c #616161",
"h 	c #6F6F6F",
"i 	c #858585",
"j 	c #9E9E9E",
"k 	c #B5B5B5",
"l 	c #C7C7C7",
"m 	c #D0D0D0",
"n 	c #555555",
"o 	c #656565",
"p 	c #7D7D7D",
"q 	c #989898",
"r 	c #B1B1B1",
"s 	c #C4C4C4",
"t 	c #0F380F",
"u 	c #4F4F4F",
"v 	c #5F5F5F",
"w 	c #787878",
"x 	c #949494",
"y 	c #AEAEAE",
"z 	c #C3C3C3",
"A 	c #CDCDCD",
"B 	c #028C02",
"C 	c #0E470E",
"D 	c #4B4B4B",
"E 	c #5B5B5B",
"F 	c #747474",
"G 	c #8F8F8F",
"H 	c #AAAAAA",
"I 	c #BFBFBF",
"J 	c #00DF00",
"K 	c #009F00",
"L 	c #005F00",
"M 	c #001F00",
"N 	c #8B8B8B",
"O 	c #A6A6A6",
"P 	c #BCBCBC",
"Q 	c #CACACA",
"R 	c #6B6B6B",
"S 	c #A0A0A0",
"T 	c #B6B6B6",
"U 	c #C6C6C6",
"V 	c #D1D1D1",
"W 	c #CFCFCF",
"X 	c #515151",
"Y 	c #676767",
"Z 	c #808080",
"` 	c #9A9A9A",
" .	c #C0C0C0",
"..	c #444444",
"+.	c #969696",
"@.	c #D5D5D5",
". . . . . . . . . . . . . . . . . . . . . . . . . . . . . . ",
". . . . . . . . . . . . . . . . . . . . . . . . . . . . . . ",
". . + + + + + + + + + + + + + + + + + + + + + + + + + + . . ",
". . + + + + + + + + + + + + + + + + + + + + + + + + + + . . ",
". . + + + + + + + + + + + + + + + + + + + + + + + + + + . . ",
". . + + + + + + + + + + + + + + + + + + + + + + + + + + . . ",
". . + + + + + . . . . . . . . . . . . . . . . + + + + + . . ",
". . + + + + + . @ @ @ @ @ @ @ @ @ @ @ @ @ @ . + + + + + . . ",
". . + + + + + . @ @ @ @ @ @ @ @ @ @ @ @ @ @ . + + + + + . . ",
". . + + + + + . @ @ @ @ @ @ @ @ @ @ @ @ @ @ . + + + + + . . ",
". . + + + + + . @ @ @ @ @ @ @ @ @ @ @ @ @ @ . + + + + + . . ",
". . + + + + + . @ @ @ @ @ @ @ @ @ @ @ @ @ @ . + + + + + . . ",
". . + + + + + . @ @ @ @ @ @ # # # # # # # @ . + + + + + . . ",
". . + + + + + . @ @ @ # # $ % & & * & & % $ . = + + + + . . ",
". . + + + + + . @ @ # $ % - ; > , , , > ; - . ' = + + + . . ",
". . + + + + + . @ # $ ) ) ! ~ { ] . ^ / ( _ . : ' = + + . . ",
". . + + + + + . @ # % ) ) ! ~ { ] . < [ } | . 1 2 = + + . . ",
". . + + + + + . @ $ - ) ) ! ~ { ] . 3 4 5 6 . 7 8 ' = + . . ",
". . + + + + + . # % 9 ) ) ! ~ { ] . 0 a b 5 . c 1 2 = + . . ",
". . + + + + + . . . . ) ) ! ~ { ] . . . . . . d e : = + . . ",
". . + + + + + + = f 7 ) ) ! ~ { ] . g h i j k l 7 f ' + . . ",
". . + + + + + + ' 8 m ) ) ! ~ { ] . n o p q r s m 8 ' + . . ",
". . + + + + + + ' 8 m ) ) ! ~ t ] . u v w x y z m 8 ' + . . ",
". . + + + + + = 2 1 A ) ) B C ] ] . D E F G H I A 1 2 = . . ",
". . + + + + + ' ) ) ) J ! K ~ L { M ] ] . N O P Q e : ' . . ",
". . + + + + = ' 8 ) ) J ! K ~ L { M ] ] R i S T U V 8 ' . . ",
". . + + + + = 2 1 W ) J ! K ~ L { M ] X Y Z ` r z W 1 2 . . ",
". . + + + + = 2 1 A  .J ! K ~ L { M ..X o p +.y  .A @.2 . . ",
". . . . . . . . . . . . ! K ~ L { . . . . . . . . . . . . . ",
". . . . . . . . . . . . . K ~ L . . . . . . . . . . . . . . ",
"                            ~   . . .                       "};
