/* XPM */
static const char * ms_comp_bt_slide_xpm[] = {
"32 36 132 2",
"  	c None",
". 	c #007F00",
"+ 	c #000000",
"@ 	c #009F00",
"# 	c #005F00",
"$ 	c #00BF00",
"% 	c #003F00",
"& 	c #DDDDDD",
"* 	c #DCDCDC",
"= 	c #DBDBDB",
"- 	c #D8D8D8",
"; 	c #00DF00",
"> 	c #001F00",
", 	c #A9A9A9",
"' 	c #B0B0B0",
") 	c #BBBBBB",
"! 	c #C5C5C5",
"~ 	c #CECECE",
"{ 	c #D4D4D4",
"] 	c #D9D9D9",
"^ 	c #00FF00",
"/ 	c #051905",
"( 	c #9B9B9B",
"_ 	c #B8B8B8",
": 	c #C4C4C4",
"< 	c #CFCFCF",
"[ 	c #D5D5D5",
"} 	c #DADADA",
"| 	c #959595",
"1 	c #A7A7A7",
"2 	c #C6C6C6",
"3 	c #D0D0D0",
"4 	c #D6D6D6",
"5 	c #969696",
"6 	c #ABABAB",
"7 	c #BCBCBC",
"8 	c #C9C9C9",
"9 	c #D3D3D3",
"0 	c #028C02",
"a 	c #0E470E",
"b 	c #535353",
"c 	c #5F5F5F",
"d 	c #727272",
"e 	c #888888",
"f 	c #A0A0A0",
"g 	c #B5B5B5",
"h 	c #C1C1C1",
"i 	c #0F380F",
"j 	c #494949",
"k 	c #555555",
"l 	c #686868",
"m 	c #808080",
"n 	c #999999",
"o 	c #AFAFAF",
"p 	c #CDCDCD",
"q 	c #AEAEAE",
"r 	c #C0C0C0",
"s 	c #289CB9",
"t 	c #2796B3",
"u 	c #258EA8",
"v 	c #0D313B",
"w 	c #0F3B47",
"x 	c #134B59",
"y 	c #185D6E",
"z 	c #B1B1B1",
"A 	c #C3C3C3",
"B 	c #299DBA",
"C 	c #2798B5",
"D 	c #2590AB",
"E 	c #0D333C",
"F 	c #103D49",
"G 	c #144E5C",
"H 	c #196173",
"I 	c #B6B6B6",
"J 	c #D1D1D1",
"K 	c #D7D7D7",
"L 	c #299EBC",
"M 	c #289AB7",
"N 	c #2693AF",
"O 	c #0D353E",
"P 	c #10404C",
"Q 	c #155160",
"R 	c #1A6578",
"S 	c #CACACA",
"T 	c #299FBC",
"U 	c #289BB9",
"V 	c #2795B1",
"W 	c #0E3641",
"X 	c #11424F",
"Y 	c #165464",
"Z 	c #1B687C",
"` 	c #BFBFBF",
" .	c #299FBD",
"..	c #2797B3",
"+.	c #0F3A44",
"@.	c #124552",
"#.	c #165768",
"$.	c #1C6B80",
"%.	c #2798B4",
"&.	c #103E4A",
"*.	c #134957",
"=.	c #175B6C",
"-.	c #1C6F83",
";.	c #29A0BE",
">.	c #299DBB",
",.	c #2899B6",
"'.	c #2591AC",
").	c #22839C",
"!.	c #1E7389",
"~.	c #124653",
"{.	c #C7C7C7",
"].	c #D2D2D2",
"^.	c #2693AE",
"/.	c #2388A1",
"(.	c #1F7990",
"_.	c #1B6A7E",
":.	c #185C6E",
"<.	c #155362",
"[.	c #14505F",
"}.	c #2796B2",
"|.	c #21829A",
"1.	c #1E758B",
"2.	c #196375",
"3.	c #196072",
"4.	c #2AA1BF",
"5.	c #248AA4",
"6.	c #1E748A",
"7.	c #1D7288",
"8.	c #2389A2",
"9.	c #22859E",
"0.	c #2691AD",
"a.	c #289AB6",
"                                                                ",
"                                                                ",
"                                                                ",
"                                                                ",
"                              .                                 ",
"  + + + + + + + + + + + + + @ . # + + + + + + + + + + + + + +   ",
"  + + + + + + + + + + + + $ @ . # % + + + + + + + + + + + + +   ",
"  + + & & & & & & * = - ; $ @ . # % > , ' ) ! ~ { - = * & + +   ",
"  + + & & & & & & = ] ^ ; $ @ . # % > / ( , _ : < [ ] = & + +   ",
"  + + & & & & & * } ^ ^ ; $ @ . # % > / / | 1 _ 2 3 4 } * + +   ",
"  + + & & & & & = ^ ^ ^ ; $ @ . # % > / / + 5 6 7 8 9 - = + +   ",
"  + + & & & & * = 4 3 : ^ ^ 0 a / / + b c d e f g : 3 4 = + +   ",
"  + + & & & & * } 4 ~ h ^ ^ $ . i / + j k l m n o h p 4 } + +   ",
"  + + & & & & * + + + + ^ ^ $ . % / + + + + + + q r p [ } + +   ",
"  + + & & & & * + s t u ^ ^ $ . % / + v w x y + z A < 4 } + +   ",
"  + + & & & & * + B C D ^ ^ $ . % / + E F G H + I 2 J K = + +   ",
"  + + & & & & & + L M N ^ ^ $ . % / + O P Q R + 7 S { ] = + +   ",
"  + + & & & & & + T U V ^ ^ $ . % / + W X Y Z + ` p 4 } * + +   ",
"  + + & & & & & +  .B ..^ ^ $ . % / + +.@.#.$.+ A 3 K = & + +   ",
"  + + & & & & & +  .B %.^ ^ $ . % / + &.*.=.-.+ : 3 K = & + +   ",
"  + + & & & & & + ;.>.,.'.).!.H Q ~.X ~.Q H !.+ {.].- = & + +   ",
"  + + & & & & & + ;.L M ^./.(._.:.<.[.<.:._.(.+ 8 { ] * & + +   ",
"  + + & & & & & + ;.T U }.u |.1._.2.3.2._.1.|.+ ~ 4 } * & + +   ",
"  + + & & & & & + 4. .B ,.^.5.|.(.6.7.6.(.|.5.+ ].K = * & + +   ",
"  + + & & & & & + 4.;.T s %.^.u 8.9.).9.8.u ^.+ 4 } * & & + +   ",
"  + + & & & & & + 4.;. .L s ,.}.N 0.'.0.N }.,.+ ] = * & & + +   ",
"  + + & & & & & + 4.4.;. .T B s M a.a.a.M s B + = * & & & + +   ",
"  + + & & & & & + + + + + + + + + + + + + + + + * & & & & + +   ",
"  + + & & & & & & & & & & & & * * * * * * * & & & & & & & + +   ",
"  + + & & & & & & & & & & & & & & & & & & & & & & & & & & + +   ",
"  + + & & & & & & & & & & & & & & & & & & & & & & & & & & + +   ",
"  + + & & & & & & & & & & & & & & & & & & & & & & & & & & + +   ",
"  + + & & & & & & & & & & & & & & & & & & & & & & & & & & + +   ",
"  + + + + + + + + + + + + + + + + + + + + + + + + + + + + + +   ",
"  + + + + + + + + + + + + + + + + + + + + + + + + + + + + + +   ",
"                                                                "};
