/* XPM */
static const char * ms_comp_fadeout_xpm[] = {
"32 32 11 1",
" 	c None",
".	c #000000",
"+	c #DDDDDD",
"@	c #2AA1BF",
"#	c #C1C1C1",
"$	c #A5A5A5",
"%	c #8A8A8A",
"&	c #6E6E6E",
"*	c #525252",
"=	c #373737",
"-	c #1B1B1B",
"                                ",
" .............................. ",
" .............................. ",
" ..++++++++++++++++++++++++++.. ",
" ..++++++++++++++++++++++++++.. ",
" ..+++++++@@@@@@@@@@@@@@@@+++.. ",
" ..+++++++@@@@@@@@@@@@@@@@+++.. ",
" ..+++++++@@+#$%&*=-....@@+++.. ",
" ..+++++++@@+#$%&*=-....@@+++.. ",
" ..+++++++@@+#$%&*=-....@@+++.. ",
" ..+++++++@@+#$%&*=-....@@+++.. ",
" ..+++++++@@+#$%&*=-....@@+++.. ",
" ..+++++++@@+#$%&*=-....@@+++.. ",
" ..+++++++@@+#$%&*=-....@@+++.. ",
" ..+++++++@@+#$%&*=-....@@+++.. ",
" ..+++++++@@+#$%&*=-....@@+++.. ",
" ..+++++++@@+#$%&*=-....@@+++.. ",
" ..+++++++@@+#$%&*=-....@@+++.. ",
" ..+++++++@@+#$%&*=-....@@+++.. ",
" ..+++++++@@+#$%&*=-....@@+++.. ",
" ..+++++++@@@@@@@@@@@@@@@@+++.. ",
" ..+++++++@@@@@@@@@@@@@@@@+++.. ",
" ..++++++++++++++++++++++++++.. ",
" ..++++++++++++++++++++++++++.. ",
" ..++++++++++++++++++++++++++.. ",
" ..++++++++++++++++++++++++++.. ",
" ..++++++++++++++++++++++++++.. ",
" ..++++++++++++++++++++++++++.. ",
" ..++++++++++++++++++++++++++.. ",
" .............................. ",
" .............................. ",
"                                "};
