/* XPM */
static const char * ms_fade_xpm[] = {
"32 32 99 2",
"  	c None",
". 	c #0000FF",
"+ 	c #0400FA",
"@ 	c #0C00F2",
"# 	c #1600E8",
"$ 	c #1E00E0",
"% 	c #2600D8",
"& 	c #2F00D0",
"* 	c #3800C6",
"= 	c #4000BE",
"- 	c #4800B6",
"; 	c #5000AE",
"> 	c #5A00A4",
", 	c #62009C",
"' 	c #6A0094",
") 	c #73008B",
"! 	c #7C0082",
"~ 	c #84007A",
"{ 	c #8C0072",
"] 	c #94006A",
"^ 	c #9E0060",
"/ 	c #A60058",
"( 	c #AE0050",
"_ 	c #B60048",
": 	c #C0003E",
"< 	c #C80036",
"[ 	c #D0002E",
"} 	c #D90025",
"| 	c #E2001C",
"1 	c #EA0014",
"2 	c #F2000C",
"3 	c #FB0004",
"4 	c #FF0000",
"5 	c #DF0020",
"6 	c #DE0020",
"7 	c #D80026",
"8 	c #D1002D",
"9 	c #CB0033",
"0 	c #C4003A",
"a 	c #BD0041",
"b 	c #B70047",
"c 	c #B0004E",
"d 	c #AA0054",
"e 	c #A3005B",
"f 	c #9D0061",
"g 	c #960068",
"h 	c #8F006F",
"i 	c #890075",
"j 	c #82007C",
"k 	c #750089",
"l 	c #6E0090",
"m 	c #680096",
"n 	c #61009D",
"o 	c #5400AA",
"p 	c #4D00B1",
"q 	c #4700B7",
"r 	c #3900C5",
"s 	c #3300CB",
"t 	c #2C00D2",
"u 	c #2000DE",
"v 	c #2000DF",
"w 	c #FD0001",
"x 	c #F50009",
"y 	c #EC0012",
"z 	c #E4001A",
"A 	c #DB0023",
"B 	c #D2002C",
"C 	c #C90035",
"D 	c #B80046",
"E 	c #AF004F",
"F 	c #950069",
"G 	c #83007B",
"H 	c #7A0084",
"I 	c #72008C",
"J 	c #690095",
"K 	c #60009E",
"L 	c #5800A6",
"M 	c #4E00B0",
"N 	c #4600B8",
"O 	c #3D00C1",
"P 	c #3400CA",
"Q 	c #2300DB",
"R 	c #1A00E4",
"S 	c #1200EC",
"T 	c #0800F6",
"U 	c #0100FE",
"V 	c #4F00AF",
"W 	c #0100FD",
"X 	c #0900F5",
"Y 	c #CA0034",
"Z 	c #C1003D",
"` 	c #3E00C0",
" .	c #7B0083",
"..	c #3500C9",
"+.	c #F60008",
"@.	c #FE0001",
"#.	c #ED0011",
"$.	c #A70057",
"%.	c #2400DA",
". + @ # $ % & * = - ; > , ' ) ! ~ { ] ^ / ( _ : < [ } | 1 2 3 4 ",
". + @ # $ % & * = - ; > , ' ) ! ~ { ] ^ / ( _ : < [ } | 1 2 3 4 ",
". + @ # $ % & * = - ; > , ' ) ! ~ { ] ^ / ( _ : < [ } | 1 2 3 4 ",
". + @ # $ % & * = - ; > , ' ) ! ~ { ] ^ / ( _ : < [ } | 1 2 3 4 ",
". + @ # $ % & * = - ; > , ' ) ! ~ { ] ^ / ( _ : < [ } | 1 2 3 4 ",
". + @ # $ % & * = - ; > , ' ) ! ~ { ] ^ / ( _ : < [ } | 1 2 3 4 ",
". + @ # $ % & * = - ; > , ' ) ! ~ { ] ^ / ( _ : < [ } | 1 2 3 4 ",
". + @ # $ % & * = - ; > , ' ) ! ~ { ] ^ / ( _ : < [ } | 1 2 3 4 ",
". + @ # $ % & * = - ; > , ' ) ! ~ { ] ^ / ( _ : < [ } | 1 2 3 4 ",
". + @ # $ % & * = - ; > , ' ) ! ~ { ] ^ / ( _ : < [ } | 1 2 3 4 ",
". + @ # $ % & * = - ; > , ' ) ! ~ { ] ^ / ( _ : < [ } | 1 2 3 4 ",
". + @ # $ % & * = - ; > , ' ) ! ~ { ] ^ / ( _ : < [ } | 1 2 3 4 ",
". + @ # $ % & * = - ; > , ' ) ! ~ { ] ^ / ( _ : < [ } | 1 2 3 4 ",
". + @ # $ % & * = - ; > , ' ) ! ~ { ] ^ / ( _ : < [ } | 1 2 3 4 ",
". + @ # $ % & * = - ; > , ' ) ! ~ { ] ^ / ( _ : < [ } | 1 2 3 4 ",
". + @ # $ % & * = - ; > , ' ) ! ~ { ] ^ / ( _ : < [ } | 1 2 3 4 ",
"5 6 7 8 9 0 a b c d e f g h i j ! k l m n > o p q = r s t % u v ",
"4 w x y z A B C : D E / ^ F { G H I J K L M N O P t Q R S T U . ",
"4 w x y z A B C : D E / ^ F { G H I J K L V N O P t Q R S T W . ",
"4 w x y z A B C : D E / ^ F { G H I J K L V N O P t Q R S X W . ",
"4 w x y z A B C : D E / ^ F { G H I J K L V N O P t Q R S X W . ",
"4 w x y z A B Y : D E / ^ F { G H I J K L V N O P t Q R S X W . ",
"4 w x y z A B Y : D E / ^ F { ~ H I J K L V N O P t Q R S X W . ",
"4 w x y z A B Y Z D E / ^ F { ~ H I J K L V N ` P t Q R S X W . ",
"4 w x y z A B Y Z D E / ^ F { ~  .I J K L V N ` P t Q R S X W . ",
"4 w x y z A B Y Z D E / ^ F { ~  .I J K L V N ` ..t Q R S X W . ",
"4 w x y z A B Y Z D E / ^ F { ~  .I J K L V N ` ..t Q R S X W . ",
"4 w +.y z A B Y Z D E / ^ F { ~  .I J K L V N ` ..t Q R S X W . ",
"4 w +.y z A B Y Z D c / ^ F { ~  .I J K L V N ` ..t Q R S X W . ",
"4 @.+.#.z A B Y Z D c / ^ F { ~  .I ' K L V N ` ..t Q R S X W . ",
"4 @.+.#.z A B Y Z D c $.^ F { ~  .I ' K L V N ` ..t %.R S X W . ",
"4 @.+.#.z A B Y Z D c $.^ F { ~  .I ' n L V N ` ..t %.R S X W . "};
