/* XPM */
static const char * ms_lr_slide_xpm[] = {
"32 32 240 2",
"  	c None",
". 	c #0000FF",
"+ 	c #0406FE",
"@ 	c #090EFC",
"# 	c #0F16FA",
"$ 	c #151EF9",
"% 	c #1A26F7",
"& 	c #202EF6",
"* 	c #2637F4",
"= 	c #2C40F2",
"- 	c #3248F1",
"; 	c #3750EF",
"> 	c #3D58EE",
", 	c #4360EC",
"' 	c #4868EA",
") 	c #4C6FE9",
"! 	c #A92929",
"~ 	c #AB2828",
"{ 	c #B12525",
"] 	c #B82121",
"^ 	c #BF1E1E",
"/ 	c #C61B1B",
"( 	c #CD1717",
"_ 	c #D41414",
": 	c #DB1111",
"< 	c #E10E0E",
"[ 	c #E80A0A",
"} 	c #EF0707",
"| 	c #F60404",
"1 	c #FD0101",
"2 	c #FF0000",
"3 	c #E20D0D",
"4 	c #FD0000",
"5 	c #B22525",
"6 	c #E90A0A",
"7 	c #F60303",
"8 	c #B92121",
"9 	c #F00707",
"0 	c #B22424",
"a 	c #C01E1E",
"b 	c #F70303",
"c 	c #C71A1A",
"d 	c #CE1717",
"e 	c #DB1010",
"f 	c #AC2828",
"g 	c #D51414",
"h 	c #DC1010",
"i 	c #F00606",
"j 	c #FE0000",
"k 	c #AC2727",
"l 	c #B32424",
"m 	c #E30D0D",
"n 	c #EA0A0A",
"o 	c #BA2121",
"p 	c #C01D1D",
"q 	c #D51313",
"r 	c #F10606",
"s 	c #727C95",
"t 	c #758296",
"u 	c #3046ED",
"v 	c #374FEF",
"w 	c #C11D1D",
"x 	c #EA0909",
"y 	c #F80303",
"z 	c #0305FD",
"A 	c #090DFC",
"B 	c #0F15FA",
"C 	c #151EF8",
"D 	c #202EF5",
"E 	c #8B9378",
"F 	c #F3F300",
"G 	c #CACE2E",
"H 	c #6274AD",
"I 	c #3C57EB",
"J 	c #C81A1A",
"K 	c #727287",
"L 	c #B7B73F",
"M 	c #B8B83F",
"N 	c #B9BA3E",
"O 	c #BABC3E",
"P 	c #BBBE3D",
"Q 	c #BCBF3D",
"R 	c #BEC13D",
"S 	c #C8CA1E",
"T 	c #D3D300",
"U 	c #9BA44D",
"V 	c #536CC5",
"W 	c #4868E9",
"X 	c #CF1717",
"Y 	c #81815E",
"Z 	c #CECE00",
"` 	c #CCCC00",
" .	c #CBCB00",
"..	c #C9C900",
"+.	c #C8C800",
"@.	c #C6C600",
"#.	c #C4C400",
"$.	c #BABA00",
"%.	c #B1B100",
"&.	c #ADAE07",
"*.	c #7B8A69",
"=.	c #5070D6",
"-.	c #A82929",
";.	c #BA2020",
">.	c #D61313",
",.	c #5E5E5D",
"'.	c #959500",
").	c #949400",
"!.	c #929200",
"~.	c #909000",
"{.	c #8F8F00",
"].	c #8D8D00",
"^.	c #8C8C00",
"/.	c #838820",
"(.	c #9E2925",
"_.	c #A82828",
":.	c #AD2727",
"<.	c #CF1616",
"[.	c #DD1010",
"}.	c #3B3B5D",
"|.	c #5D5D00",
"1.	c #5B5B00",
"2.	c #595900",
"3.	c #585800",
"4.	c #565600",
"5.	c #555500",
"6.	c #535300",
"7.	c #606000",
"8.	c #6E6E00",
"9.	c #5D632A",
"0.	c #3C518A",
"a.	c #8F2222",
"b.	c #A52828",
"c.	c #B42424",
"d.	c #E40C0C",
"e.	c #17175D",
"f.	c #242400",
"g.	c #222200",
"h.	c #212100",
"i.	c #1F1F00",
"j.	c #1E1E00",
"k.	c #1C1C00",
"l.	c #1B1B00",
"m.	c #333300",
"n.	c #4D4D00",
"o.	c #4C4C07",
"p.	c #3A4554",
"q.	c #2F449A",
"r.	c #3B56B6",
"s.	c #9B2525",
"t.	c #A72828",
"u.	c #BB2020",
"v.	c #EB0909",
"w.	c #F80202",
"x.	c #0000CB",
"y.	c #01018F",
"z.	c #02037C",
"A.	c #04067A",
"B.	c #070A79",
"C.	c #0A0E78",
"D.	c #0C1277",
"E.	c #0F1676",
"F.	c #1E223B",
"G.	c #2B2B00",
"H.	c #2B2F23",
"I.	c #283781",
"J.	c #2F44A8",
"K.	c #3D58C7",
"L.	c #4869DE",
"M.	c #C21D1D",
"N.	c #F20606",
"O.	c #0000F9",
"P.	c #0000E4",
"Q.	c #0204D8",
"R.	c #070BD6",
"S.	c #0C12D5",
"T.	c #1119D3",
"U.	c #1620D2",
"V.	c #1B27D0",
"W.	c #141B66",
"X.	c #0C0D07",
"Y.	c #192155",
"Z.	c #24349D",
"`.	c #2F45B9",
" +	c #3C57D6",
".+	c #4766E5",
"++	c #4C6EE9",
"@+	c #B42323",
"#+	c #C91A1A",
"$+	c #F90202",
"%+	c #0000FD",
"&+	c #0305FB",
"*+	c #090DF9",
"=+	c #0E15F8",
"-+	c #141EF6",
";+	c #1A26F4",
">+	c #1F2EF3",
",+	c #1925A7",
"'+	c #1D2AA0",
")+	c #2333AE",
"!+	c #2F43CB",
"~+	c #3A54E2",
"{+	c #4260EA",
"]+	c #C91919",
"^+	c #D01616",
"/+	c #2435ED",
"(+	c #2738D9",
"_+	c #2D41DD",
":+	c #364EEA",
"<+	c #3D58ED",
"[+	c #D71313",
"}+	c #DD0F0F",
"|+	c #2637F3",
"1+	c #2B3EF0",
"2+	c #3147F0",
"3+	c #AE2727",
"4+	c #DE0F0F",
"5+	c #F20505",
"6+	c #AE2626",
"7+	c #B52323",
"8+	c #E50C0C",
"9+	c #BC2020",
"0+	c #C21C1C",
"a+	c #EC0909",
"b+	c #C31C1C",
"c+	c #D71212",
"d+	c #F30505",
"e+	c #CA1919",
"f+	c #EC0808",
"g+	c #FA0202",
"h+	c #D11616",
"i+	c #D81212",
"j+	c #BC1F1F",
"k+	c #DF0F0F",
"l+	c #AF2626",
"m+	c #D11515",
"n+	c #E60C0C",
"o+	c #B62323",
"p+	c #E60B0B",
"q+	c #ED0808",
". . + @ # $ % & * = - ; > , ' ) ! ! ~ { ] ^ / ( _ : < [ } | 1 2 ",
". . + @ # $ % & * = - ; > , ' ) ! ! ~ { ] ^ / ( _ : 3 [ } | 4 2 ",
". . + @ # $ % & * = - ; > , ' ) ! ! ~ 5 ] ^ / ( _ : 3 6 } 7 4 2 ",
". . + @ # $ % & * = - ; > , ' ) ! ! ~ 5 8 ^ / ( _ : 3 6 9 7 4 2 ",
". . + @ # $ % & * = - ; > , ' ) ! ! ~ 0 8 a / ( _ : 3 6 9 b 4 2 ",
". . + @ # $ % & * = - ; > , ' ) ! ! ~ 0 8 a c ( _ : 3 6 9 b 4 2 ",
". . + @ # $ % & * = - ; > , ' ) ! ! ~ 0 8 a c d _ e 3 6 9 b 4 2 ",
". . + @ # $ % & * = - ; > , ' ) ! ! f 0 8 a c d g h 3 6 i b 4 2 ",
". . + @ # $ % & * = - ; > , ' ) ! ! f 0 8 a c d g h 3 6 i b j 2 ",
". . + @ # $ % & * = - ; > , ' ) ! ! k l 8 a c d g h m n i b j 2 ",
". . + @ # $ % & * = - ; > , ' ) ! ! k l o p c d q h m n r b j 2 ",
". . + @ # $ % & s t u v > , ' ) ! ! k l o w c d q h m x r y j 2 ",
". . z A B C % D E F G H I , ' ) ! ! k l o w J d q h m x r y j 2 ",
"K L M N O P Q R S T T T U V W ) ! ! k l o w J X q h m x r y j 2 ",
"Y Z `  ...+.@.#.$.%.%.%.%.&.*.=.-.! k l ;.w J X >.h m x r y j 2 ",
",.'.).!.~.{.].^.].~.~.~.~.~.~./.(._.:.l ;.w J <.>.[.m x r y j 2 ",
"}.|.1.2.3.4.5.6.7.8.8.8.8.8.9.0.a.b.:.c.;.w J <.>.[.d.x r y j 2 ",
"e.f.g.h.i.j.k.l.m.n.n.n.o.p.q.r.s.t.:.c.u.w J <.>.[.d.v.r w.j 2 ",
"x.y.z.A.B.C.D.E.F.G.G.H.I.J.K.L._.! :.c.u.M.J <.>.[.d.v.N.w.j 2 ",
"O.P.Q.R.S.T.U.V.W.X.Y.Z.`. +.+++! ! :.@+u.M.#+<.>.[.d.v.N.$+j 2 ",
". %+&+*+=+-+;+>+,+'+)+!+~+{+' ) ! ! :.@+u.M.]+^+>.[.d.v.N.$+j 2 ",
". . + @ # $ % D /+(+_+:+<+, ' ) ! ! :.@+u.M.]+^+[+}+d.v.N.$+2 2 ",
". . + @ # $ % & |+1+2+; > , ' ) ! ! 3+@+u.M.]+^+[+4+d.v.5+$+2 2 ",
". . + @ # $ % & * = - ; > , ' ) ! ! 6+7+u.M.]+^+[+4+8+v.5+$+2 2 ",
". . + @ # $ % & * = - ; > , ' ) ! ! 6+7+9+0+]+^+[+4+8+a+5+$+2 2 ",
". . + @ # $ % & * = - ; > , ' ) ! ! 6+7+9+b+]+^+c+4+8+a+d+$+2 2 ",
". . + @ # $ % & * = - ; > , ' ) ! ! 6+7+9+b+e+^+c+4+8+f+d+g+2 2 ",
". . + @ # $ % & * = - ; > , ' ) ! ! 6+7+9+b+e+h+c+4+8+f+d+g+2 2 ",
". . + @ # $ % & * = - ; > , ' ) ! ! 6+7+9+b+e+h+i+4+8+f+d+g+2 2 ",
". . + @ # $ % & * = - ; > , ' ) ! ! 6+7+j+b+e+h+i+k+8+f+d+g+2 2 ",
". . + @ # $ % & * = - ; > , ' ) ! ! l+7+j+b+e+m+i+k+n+f+d+g+2 2 ",
". . + @ # $ % & * = - ; > , ' ) ! ! l+o+j+b+e+m+i+k+p+q+d+g+2 2 "};
