/* XPM */
static const char * ms_rotx_xpm[] = {
"32 32 138 2",
"  	c None",
". 	c #5F0000",
"+ 	c #5A0000",
"@ 	c #570000",
"# 	c #520000",
"$ 	c #1E0000",
"% 	c #0B0000",
"& 	c #080000",
"* 	c #7F0000",
"= 	c #7D0000",
"- 	c #7C0000",
"; 	c #7A0000",
"> 	c #260000",
", 	c #2A0000",
"' 	c #270000",
") 	c #920000",
"! 	c #910000",
"~ 	c #900000",
"{ 	c #8E0000",
"] 	c #480000",
"^ 	c #4A0000",
"/ 	c #470000",
"( 	c #A00000",
"_ 	c #9F0000",
": 	c #9E0000",
"< 	c #9C0000",
"[ 	c #610000",
"} 	c #600000",
"| 	c #5E0000",
"1 	c #AB0000",
"2 	c #AA0000",
"3 	c #A90000",
"4 	c #A70000",
"5 	c #750000",
"6 	c #730000",
"7 	c #720000",
"8 	c #B20000",
"9 	c #850000",
"0 	c #840000",
"a 	c #830000",
"b 	c #810000",
"c 	c #BB0000",
"d 	c #BA0000",
"e 	c #B90000",
"f 	c #B80000",
"g 	c #930000",
"h 	c #BF0000",
"i 	c #BE0000",
"j 	c #BD0000",
"k 	c #BC0000",
"l 	c #3F3F3F",
"m 	c #721E1E",
"n 	c #8E0C0C",
"o 	c #990505",
"p 	c #C20000",
"q 	c #784040",
"r 	c #444444",
"s 	c #404040",
"t 	c #535353",
"u 	c #6D6D6D",
"v 	c #878787",
"w 	c #A06B6B",
"x 	c #A80000",
"y 	c #C50000",
"z 	c #C40000",
"A 	c #C31212",
"B 	c #BDBBBB",
"C 	c #BCBCBC",
"D 	c #B0B0B0",
"E 	c #9E9E9E",
"F 	c #8D8D8D",
"G 	c #7B7B7B",
"H 	c #6A6A6A",
"I 	c #676767",
"J 	c #808080",
"K 	c #999999",
"L 	c #A0A0A0",
"M 	c #A66D6D",
"N 	c #B10000",
"O 	c #AF0000",
"P 	c #C60000",
"Q 	c #C34444",
"R 	c #BDBDBD",
"S 	c #A1A1A1",
"T 	c #A86D6D",
"U 	c #C70000",
"V 	c #C17272",
"W 	c #AA6D6D",
"X 	c #BF9292",
"Y 	c #A3A3A3",
"Z 	c #AB6D6D",
"` 	c #C30000",
" .	c #BEAFAF",
"..	c #AC6D6D",
"+.	c #BDBCBC",
"@.	c #A4A4A4",
"#.	c #AC6E6E",
"$.	c #C00000",
"%.	c #AA7676",
"&.	c #A6A6A6",
"*.	c #A97676",
"=.	c #BD1414",
"-.	c #BD4040",
";.	c #BD6D6D",
">.	c #BD9A9A",
",.	c #BD8585",
"'.	c #A7A7A7",
").	c #A29292",
"!.	c #AE5050",
"~.	c #B90E0E",
"{.	c #BD0D0D",
"].	c #A8A8A8",
"^.	c #A19090",
"/.	c #AA3E3E",
"(.	c #B10505",
"_.	c #B30000",
":.	c #B50000",
"<.	c #AAAAAA",
"[.	c #A50101",
"}.	c #A60000",
"|.	c #970000",
"1.	c #9B0000",
"2.	c #A30000",
"3.	c #870000",
"4.	c #8A0000",
"5.	c #8F0000",
"6.	c #710000",
"7.	c #760000",
"8.	c #7B0000",
"9.	c #800000",
"0.	c #860000",
"a.	c #560000",
"b.	c #5D0000",
"c.	c #630000",
"d.	c #690000",
"e.	c #700000",
"f.	c #4D0000",
"g.	c #580000",
"                                                                ",
"                            . + @ # $ % &                       ",
"                        * = - ;       > , ' '                   ",
"                      ) ! ~ {           ] ^ ] /                 ",
"                    ( _ : <               [ } . |               ",
"                  1 2 3 4                   5 6 7               ",
"                8 8 8 8 8                   9 0 a b             ",
"                c d e f                     g ) ) )             ",
"              h i j k c       l l l l l l   m n o :             ",
"              p p p p q r l l l l l l l s t u v w x 4           ",
"              y y z A B C D E F G H I J K L L L M N O           ",
"            P P P P Q R R R R R R R S L L L L L T e e           ",
"            U U U U V R R R R R R R S L L L L L W h i           ",
"            P U U U X R R R R R R R Y L L L L L Z ` p           ",
"            y y y y  .R R R R R R R Y L L L L L ..y y           ",
"            p ` z y +.R R R R R R R @.L L L L L #.U U           ",
"    j j     $.$.$.$.R R R R R R R R @.L L L L L %.P             ",
"      j j j j i h $.R R R R R R R R &.L L L L L *.y             ",
"      j j j j j j j =.-.;.>.B R R R &.L L L L L *.p             ",
"        j j j j j j j j j j ,.R R R '.L L L ).!.~.              ",
"        j j j j j j j j j {.B R R R ].L ^./.(._.:.              ",
"        j j j j j j j j j         R <.  [.}.x 1 O               ",
"          j j j j j j j j               |.1._ 2.                ",
"          j j j j j j j               3.4.5.g                   ",
"            j j j j j j             6.7.8.9.0.                  ",
"            j j j j j             a.b.c.d.e.                    ",
"              j j j j               ^ f.g.                      ",
"              j j j                                             ",
"                j j                                             ",
"                j                                               ",
"                j                                               ",
"                                                                "};
