/* XPM */
static const char * ms_tb_wipe_xpm[] = {
"32 32 217 2",
"  	c None",
". 	c #0000FF",
"+ 	c #0305FE",
"@ 	c #090DFC",
"# 	c #0F15FA",
"$ 	c #141EF9",
"% 	c #1A26F7",
"& 	c #202EF6",
"* 	c #2536F4",
"= 	c #2B3EF3",
"- 	c #3146F1",
"; 	c #364EF0",
"> 	c #3764DA",
", 	c #3666D8",
"' 	c #2E8DA8",
") 	c #2B939E",
"! 	c #23B275",
"~ 	c #1EBD65",
"{ 	c #16D444",
"] 	c #0EE32C",
"^ 	c #0EE22C",
"/ 	c #13E50D",
"( 	c #01FD02",
"_ 	c #01F902",
": 	c #00EF02",
"< 	c #002301",
"[ 	c #005A01",
"} 	c #009601",
"| 	c #00D401",
"1 	c #00E901",
"2 	c #855720",
"3 	c #7F5E1F",
"4 	c #7F5D1F",
"5 	c #76581C",
"6 	c #5F4B17",
"7 	c #000A00",
"8 	c #004800",
"9 	c #008C00",
"0 	c #00D000",
"a 	c #00E700",
"b 	c #AD2727",
"c 	c #AC2727",
"d 	c #AB2727",
"e 	c #9B2424",
"f 	c #741A1A",
"g 	c #AA2828",
"h 	c #AB2828",
"i 	c #AA2929",
"j 	c #B42424",
"k 	c #B32424",
"l 	c #B22424",
"m 	c #B12424",
"n 	c #A12121",
"o 	c #771818",
"p 	c #B02424",
"q 	c #B12525",
"r 	c #B02525",
"s 	c #B02626",
"t 	c #AF2626",
"u 	c #BB2020",
"v 	c #BA2020",
"w 	c #BA2121",
"x 	c #B92121",
"y 	c #B82121",
"z 	c #A71D1D",
"A 	c #7C1616",
"B 	c #B72121",
"C 	c #B82222",
"D 	c #B72222",
"E 	c #B62222",
"F 	c #C11D1D",
"G 	c #C01D1D",
"H 	c #C01E1E",
"I 	c #BF1D1D",
"J 	c #AD1B1B",
"K 	c #801414",
"L 	c #BE1E1E",
"M 	c #BE1F1F",
"N 	c #BD1F1F",
"O 	c #C81A1A",
"P 	c #C71A1A",
"Q 	c #C61A1A",
"R 	c #B31818",
"S 	c #851111",
"T 	c #C51B1B",
"U 	c #C41B1B",
"V 	c #C41C1C",
"W 	c #CF1717",
"X 	c #CE1717",
"Y 	c #CD1717",
"Z 	c #CC1717",
"` 	c #B91515",
" .	c #8A0F0F",
"..	c #CB1717",
"+.	c #CC1818",
"@.	c #CB1818",
"#.	c #CB1919",
"$.	c #CA1919",
"%.	c #D61313",
"&.	c #D51313",
"*.	c #D51414",
"=.	c #D41414",
"-.	c #D11313",
";.	c #AB1010",
">.	c #410606",
",.	c #310605",
"'.	c #001A00",
").	c #004E00",
"!.	c #008300",
"~.	c #00B800",
"{.	c #00DE00",
"].	c #48A507",
"^.	c #508508",
"/.	c #CF1714",
"(.	c #D21515",
"_.	c #D11515",
":.	c #DC1010",
"<.	c #DB1010",
"[.	c #DB1111",
"}.	c #DA1010",
"|.	c #CC0F0F",
"1.	c #B00D0D",
"2.	c #2F0303",
"3.	c #000200",
"4.	c #002400",
"5.	c #005100",
"6.	c #007F00",
"7.	c #00AC00",
"8.	c #00D900",
"9.	c #00F200",
"0.	c #687408",
"a.	c #D91111",
"b.	c #D91212",
"c.	c #D81212",
"d.	c #E30D0D",
"e.	c #E20D0D",
"f.	c #E10D0D",
"g.	c #D50C0C",
"h.	c #AC0A0A",
"i.	c #7C0707",
"j.	c #080300",
"k.	c #002500",
"l.	c #005200",
"m.	c #008000",
"n.	c #00AD00",
"o.	c #00DA00",
"p.	c #13DE01",
"q.	c #CF170C",
"r.	c #E00E0E",
"s.	c #DF0F0F",
"t.	c #EA0909",
"u.	c #EA0A0A",
"v.	c #E90A0A",
"w.	c #E50909",
"x.	c #CC0909",
"y.	c #9E0707",
"z.	c #550603",
"A.	c #002600",
"B.	c #005300",
"C.	c #008100",
"D.	c #00AE00",
"E.	c #00DB00",
"F.	c #866506",
"G.	c #E50A0A",
"H.	c #E70B0B",
"I.	c #E60B0B",
"J.	c #E60C0C",
"K.	c #F10606",
"L.	c #F00606",
"M.	c #F00707",
"N.	c #EF0707",
"O.	c #E70606",
"P.	c #C10505",
"Q.	c #960404",
"R.	c #272101",
"S.	c #005400",
"T.	c #008200",
"U.	c #00AF00",
"V.	c #29B101",
"W.	c #E60707",
"X.	c #EE0707",
"Y.	c #EE0808",
"Z.	c #ED0808",
"`.	c #EC0808",
" +	c #F70303",
".+	c #F60303",
"++	c #F60404",
"@+	c #F50303",
"#+	c #E40303",
"$+	c #B50202",
"%+	c #820901",
"&+	c #075200",
"*+	c #00B000",
"=+	c #AC3702",
"-+	c #F40404",
";+	c #F50404",
">+	c #F40505",
",+	c #F30505",
"'+	c #FE0000",
")+	c #FD0000",
"!+	c #FD0101",
"~+	c #F90000",
"{+	c #DC0000",
"]+	c #AA0000",
"^+	c #582800",
"/+	c #008400",
"(+	c #4B7400",
"_+	c #F60000",
":+	c #FC0101",
"<+	c #FB0101",
"[+	c #FA0101",
"}+	c #FA0202",
"|+	c #FF0000",
"1+	c #CE0000",
"2+	c #A60100",
"3+	c #326400",
"4+	c #D21600",
". . . . . . . . . . . . . . . . . . . . . . . . . . . . . . . . ",
". . . . . . . . . . . . . . . . . . . . . . . . . . . . . . . . ",
"+ + + + + + + + + + + + + + + + + + + + + + + + + + + + + + + + ",
"@ @ @ @ @ @ @ @ @ @ @ @ @ @ @ @ @ @ @ @ @ @ @ @ @ @ @ @ @ @ @ @ ",
"# # # # # # # # # # # # # # # # # # # # # # # # # # # # # # # # ",
"$ $ $ $ $ $ $ $ $ $ $ $ $ $ $ $ $ $ $ $ $ $ $ $ $ $ $ $ $ $ $ $ ",
"% % % % % % % % % % % % % % % % % % % % % % % % % % % % % % % % ",
"& & & & & & & & & & & & & & & & & & & & & & & & & & & & & & & & ",
"* * * * * * * * * * * * * * * * * * * * * * * * * * * * * * * * ",
"= = = = = = = = = = = = = = = = = = = = = = = = = = = = = = = = ",
"- - - - - - - - - - - - - - - - - - - - - - - - - - - - - - - - ",
"; ; ; ; ; ; ; ; ; ; ; ; ; ; ; ; ; ; ; ; ; ; ; ; ; ; ; ; ; ; ; ; ",
"> , , , , , , , , , , , , , , , , , , , , , , , , , , , , , , , ",
"' ) ) ) ) ) ) ) ) ) ) ) ) ) ) ) ) ) ) ) ) ) ) ) ) ) ) ) ) ) ) ) ",
"! ~ ~ ~ ~ ~ ~ ~ ~ ~ ~ ~ ~ ~ ~ ~ ~ ~ ~ ~ ~ ~ ~ ~ ~ ~ ~ ~ ~ ~ ~ ~ ",
"{ ] ] ] ] ] ] ] ] ] ] ] ] ^ ^ ^ ^ ^ ] ] ] ] ] ] ] ] ] ] ] ] ] ] ",
"/ ( ( ( ( ( ( ( ( ( ( ( _ : < [ } | 1 ( ( ( ( ( ( ( ( ( ( ( ( ( ",
"2 3 3 3 3 3 3 3 3 3 3 4 5 6 7 8 9 0 a 4 3 3 3 3 3 3 3 3 3 3 3 3 ",
"b b b b c c c c c c c d e f 7 8 9 0 a g h g g g g g g g g i i i ",
"j j k k k k k k k k l m n o 7 8 9 0 a p q q q q r r r r r r s t ",
"u v v w w w w w x x x y z A 7 8 9 0 a B C C D D D D D D D E E E ",
"F F F F F F G H H H H I J K 7 8 9 0 a L L L M M M M M M N N N N ",
"O O O O P P P P P P P Q R S 7 8 9 0 a T T T T T T T U V V V V V ",
"W W X X X X X X X X Y Z `  .7 8 9 0 a ..+.+.+.+.@.@.@.@.@.#.#.$.",
"%.&.&.&.*.*.*.*.=.=.-.;.>.,.'.).!.~.{.].^./.(.(.(.(.(.(.(.(._._.",
":.:.:.:.:.:.<.<.[.}.|.1.2.3.4.5.6.7.8.9.0.a.a.b.b.b.b.b.c.c.c.c.",
"d.d.d.d.d.e.e.e.e.f.g.h.i.j.k.l.m.n.o.p.q.r.r.r.r.r.r.s.s.s.s.s.",
"t.t.u.u.v.v.v.v.v.v.w.x.y.z.A.B.C.D.E.F.G.H.H.H.H.I.I.I.I.I.I.J.",
"K.K.L.L.L.L.M.M.M.N.N.O.P.Q.R.S.T.U.V.W.X.Y.Y.Z.Z.Z.Z.Z.Z.Z.Z.`.",
" + + + + + + +.+.+++++@+#+$+%+&+!.*+=+-+;+;+-+-+>+>+>+>+>+,+,+,+",
"'+'+)+)+)+)+)+)+)+!+!+!+~+{+]+^+/+(+_+:+<+<+<+<+<+<+<+[+}+}+}+}+",
"|+|+|+|+|+|+|+|+|+|+|+|+|+_+1+2+3+4+'+|+|+|+|+|+|+|+|+|+|+|+|+|+"};
