/* XPM */
static const char * oper_add2_xpm[] = {
"40 32 129 2",
"  	c None",
". 	c #000000",
"+ 	c #5CB771",
"@ 	c #65BA66",
"# 	c #6EBA5C",
"$ 	c #78BA54",
"% 	c #80BB4E",
"& 	c #89BB4E",
"* 	c #92BB4E",
"= 	c #9BBB4E",
"- 	c #A5BB4E",
"; 	c #AEBB4E",
"> 	c #B7BB4E",
", 	c #5CB573",
"' 	c #63B36F",
") 	c #6EB265",
"! 	c #76B35C",
"~ 	c #80B253",
"{ 	c #89B24E",
"] 	c #92B24E",
"^ 	c #9BB24E",
"/ 	c #A5B24E",
"( 	c #AEB24E",
"_ 	c #B7B24E",
": 	c #5FA77F",
"< 	c #65A977",
"[ 	c #6EA96D",
"} 	c #79A764",
"| 	c #81A85C",
"1 	c #89A952",
"2 	c #92A94E",
"3 	c #9BA94E",
"4 	c #A5A94E",
"5 	c #AEA94E",
"6 	c #B7A94E",
"7 	c #5CA385",
"8 	c #65A17E",
"9 	c #6EA076",
"0 	c #75A56B",
"a 	c #81A162",
"b 	c #89A159",
"c 	c #92A052",
"d 	c #9BA04E",
"e 	c #A5A04E",
"f 	c #AEA04E",
"g 	c #B7A04E",
"h 	c #5D9691",
"i 	c #669787",
"j 	c #6E977F",
"k 	c #769677",
"l 	c #849769",
"m 	c #879567",
"n 	c #949858",
"o 	c #9B9653",
"p 	c #A5964E",
"q 	c #AE964E",
"r 	c #B7964E",
"s 	c #5B8F99",
"t 	c #668E8F",
"u 	c #6D8F87",
"v 	c #77907C",
"w 	c #818D75",
"x 	c #898F6B",
"y 	c #938E62",
"z 	c #9C9057",
"A 	c #A68F51",
"B 	c #AE8F4F",
"C 	c #B78F4E",
"D 	c #5B86A3",
"E 	c #658698",
"F 	c #6D8591",
"G 	c #778686",
"H 	c #81877C",
"I 	c #888577",
"J 	c #91876A",
"K 	c #9A8762",
"L 	c #A5845B",
"M 	c #AE8652",
"N 	c #B7864E",
"O 	c #5C7DAA",
"P 	c #657DA2",
"Q 	c #6E7E98",
"R 	c #767D90",
"S 	c #817D85",
"T 	c #897E7D",
"U 	c #937C74",
"V 	c #9B7E6A",
"W 	c #A47D62",
"X 	c #AE7E58",
"Y 	c #B87D51",
"Z 	c #5B74B4",
"` 	c #6574AA",
" .	c #6D76A0",
"..	c #757797",
"+.	c #80748F",
"@.	c #887684",
"#.	c #93767A",
"$.	c #997773",
"%.	c #A6736A",
"&.	c #AD7561",
"*.	c #B67657",
"=.	c #5B6DBC",
"-.	c #656CB2",
";.	c #6D6BAB",
">.	c #766DA0",
",.	c #816C96",
"'.	c #876C90",
").	c #936B85",
"!.	c #9C6D7A",
"~.	c #A56C72",
"{.	c #AD6C6A",
"].	c #B86C5F",
"^.	c #5B65C3",
"/.	c #6564B9",
"(.	c #6D63B3",
"_.	c #7663AA",
":.	c #7F63A1",
"<.	c #886397",
"[.	c #92638D",
"}.	c #9C6284",
"|.	c #A5637B",
"1.	c #AD6472",
"2.	c #B86269",
"3.	c #22FF32",
"4.	c #6AE073",
"5.	c #FF9A9A",
"6.	c #28762D",
"7.	c #FF4141",
"8.	c #AE0000",
"                                                                                ",
"                                            . .                       . .       ",
"                                          . .                           . .     ",
"                                          . .   + @ # $ % & * = - ; >   . .     ",
"      . . . .       . .   . . .           . .   , ' ) ! ~ { ] ^ / ( _   . .     ",
"    . . . . . .     . . . . . . .       . .     : < [ } | 1 2 3 4 5 6     . .   ",
"  . . .     . . .   . . .     . . .     . .     7 8 9 0 a b c d e f g     . .   ",
"  . .         . .   . .         . .     . .     h i j k l m n o p q r     . .   ",
"  . .         . .   . .         . .     . .     s t u v w x y z A B C     . .   ",
"  . .         . .   . .         . .     . .     D E F G H I J K L M N     . .   ",
"  . . .     . . .   . . .     . . .     . .     O P Q R S T U V W X Y     . .   ",
"    . . . . . .     . . . . . . .       . .     Z `  ...+.@.#.$.%.&.*.    . .   ",
"      . . . .       . .   . . .           . .   =.-.;.>.,.'.).!.~.{.].  . .     ",
"                    . .                   . .   ^./.(._.:.<.[.}.|.1.2.  . .     ",
"                    . .                   . .                           . .     ",
"                    . .                     . .                       . .       ",
"                                                                                ",
"                                                                                ",
"              3.4.4.4.4.                  . .         5.              5.        ",
"              6.3.3.3.4.                  . .       7.7.5.          7.7.5.      ",
"              6.3.3.3.4.                  . .     8.7.7.7.5.      7.7.7.7.5.    ",
"              6.3.3.3.4.                . .         8.7.7.7.5.  7.7.7.7.7.      ",
"      3.4.4.4.3.3.3.3.4.4.4.4.4.        . .           8.7.7.7.5.7.7.7.7.        ",
"      6.3.3.3.3.3.3.3.3.3.3.3.4.        . .             8.7.7.7.7.7.7.          ",
"      6.3.3.3.3.3.3.3.3.3.3.3.4.        . .               8.7.7.7.5.            ",
"      6.3.3.3.3.3.3.3.3.3.3.3.4.      . .               8.7.7.7.7.7.5.          ",
"      6.6.6.6.6.3.3.3.3.6.6.6.3.      . .             8.7.7.7.8.7.7.7.5.        ",
"              6.3.3.3.4.              . .           8.7.7.7.8.  8.7.7.7.5.      ",
"              6.3.3.3.4.            . .           8.7.7.7.8.      8.7.7.7.5.    ",
"              6.3.3.3.4.            . .             8.7.8.          8.7.7.      ",
"              6.6.6.6.3.            . .               8.              8.        ",
"                                                                                "};
