/* XPM */
static const char * oper_add1_xpm[] = {
"32 32 126 2",
"  	c None",
". 	c #22FF32",
"+ 	c #6AE073",
"@ 	c #28762D",
"# 	c #000000",
"$ 	c #5CB771",
"% 	c #65BA66",
"& 	c #6EBA5C",
"* 	c #78BA54",
"= 	c #80BB4E",
"- 	c #89BB4E",
"; 	c #92BB4E",
"> 	c #9BBB4E",
", 	c #A5BB4E",
"' 	c #AEBB4E",
") 	c #B7BB4E",
"! 	c #5CB573",
"~ 	c #63B36F",
"{ 	c #6EB265",
"] 	c #76B35C",
"^ 	c #80B253",
"/ 	c #89B24E",
"( 	c #92B24E",
"_ 	c #9BB24E",
": 	c #A5B24E",
"< 	c #AEB24E",
"[ 	c #B7B24E",
"} 	c #5FA77F",
"| 	c #65A977",
"1 	c #6EA96D",
"2 	c #79A764",
"3 	c #81A85C",
"4 	c #89A952",
"5 	c #92A94E",
"6 	c #9BA94E",
"7 	c #A5A94E",
"8 	c #AEA94E",
"9 	c #B7A94E",
"0 	c #5CA385",
"a 	c #65A17E",
"b 	c #6EA076",
"c 	c #75A56B",
"d 	c #81A162",
"e 	c #89A159",
"f 	c #92A052",
"g 	c #9BA04E",
"h 	c #A5A04E",
"i 	c #AEA04E",
"j 	c #B7A04E",
"k 	c #5D9691",
"l 	c #669787",
"m 	c #6E977F",
"n 	c #769677",
"o 	c #849769",
"p 	c #879567",
"q 	c #949858",
"r 	c #9B9653",
"s 	c #A5964E",
"t 	c #AE964E",
"u 	c #B7964E",
"v 	c #5B8F99",
"w 	c #668E8F",
"x 	c #6D8F87",
"y 	c #77907C",
"z 	c #818D75",
"A 	c #898F6B",
"B 	c #938E62",
"C 	c #9C9057",
"D 	c #A68F51",
"E 	c #AE8F4F",
"F 	c #B78F4E",
"G 	c #5B86A3",
"H 	c #658698",
"I 	c #6D8591",
"J 	c #778686",
"K 	c #81877C",
"L 	c #888577",
"M 	c #91876A",
"N 	c #9A8762",
"O 	c #A5845B",
"P 	c #AE8652",
"Q 	c #B7864E",
"R 	c #5C7DAA",
"S 	c #657DA2",
"T 	c #6E7E98",
"U 	c #767D90",
"V 	c #817D85",
"W 	c #897E7D",
"X 	c #937C74",
"Y 	c #9B7E6A",
"Z 	c #A47D62",
"` 	c #AE7E58",
" .	c #B87D51",
"..	c #5B74B4",
"+.	c #6574AA",
"@.	c #6D76A0",
"#.	c #757797",
"$.	c #80748F",
"%.	c #887684",
"&.	c #93767A",
"*.	c #997773",
"=.	c #A6736A",
"-.	c #AD7561",
";.	c #B67657",
">.	c #5B6DBC",
",.	c #656CB2",
"'.	c #6D6BAB",
").	c #766DA0",
"!.	c #816C96",
"~.	c #876C90",
"{.	c #936B85",
"].	c #9C6D7A",
"^.	c #A56C72",
"/.	c #AD6C6A",
"(.	c #B86C5F",
"_.	c #5B65C3",
":.	c #6564B9",
"<.	c #6D63B3",
"[.	c #7663AA",
"}.	c #7F63A1",
"|.	c #886397",
"1.	c #92638D",
"2.	c #9C6284",
"3.	c #A5637B",
"4.	c #AD6472",
"5.	c #B86269",
"                                                                ",
"                                                                ",
"        . + + + +                                               ",
"        @ . . . +                                               ",
"        @ . . . +                 # # # #       # #   # # #     ",
"        @ . . . +               # # # # # #     # # # # # # #   ",
". + + + . . . . + + + + +     # # #     # # #   # # #     # # # ",
"@ . . . . . . . . . . . +     # #         # #   # #         # # ",
"@ . . . . . . . . . . . +     # #         # #   # #         # # ",
"@ . . . . . . . . . . . +     # #         # #   # #         # # ",
"@ @ @ @ @ . . . . @ @ @ .     # # #     # # #   # # #     # # # ",
"        @ . . . +               # # # # # #     # # # # # # #   ",
"        @ . . . +                 # # # #       # #   # # #     ",
"        @ . . . +                               # #             ",
"        @ @ @ @ .                               # #             ",
"                                                # #             ",
"                                                                ",
"                # #                       # #                   ",
"              # #                           # #                 ",
"              # #   $ % & * = - ; > , ' )   # #                 ",
"              # #   ! ~ { ] ^ / ( _ : < [   # #                 ",
"            # #     } | 1 2 3 4 5 6 7 8 9     # #               ",
"            # #     0 a b c d e f g h i j     # #               ",
"            # #     k l m n o p q r s t u     # #               ",
"            # #     v w x y z A B C D E F     # #               ",
"            # #     G H I J K L M N O P Q     # #               ",
"            # #     R S T U V W X Y Z `  .    # #               ",
"            # #     ..+.@.#.$.%.&.*.=.-.;.    # #               ",
"              # #   >.,.'.).!.~.{.].^./.(.  # #                 ",
"              # #   _.:.<.[.}.|.1.2.3.4.5.  # #                 ",
"              # #                           # #                 ",
"                # #                       # #                   "};
