/* XPM */
static const char * pick_xpm[] = {
"16 16 3 1",
".	c None",
"+	c #8F9191",
"@	c #000000",
"................",
".......+@+......",
".......+@+......",
".....+@@@@@+....",
"....@@.+@+.@@...",
"...+@..+@+..@+..",
"...@...+@+...@..",
".++@++++@++++@++",
".@@@@@@@@@@@@@@@",
".++@++++@++++@++",
"...@...+@+...@..",
"...+@..+@+..@+..",
"....@@.+@+.@@...",
".....+@@@@@+....",
".......+@+......",
".......+@+......"};
