/* XPM */
static const char * plot_draw_xpm[] = {
"32 32 194 2",
"  	c None",
". 	c #F47C7F",
"+ 	c #D47577",
"@ 	c #A9A9A9",
"# 	c #838383",
"$ 	c #B05658",
"% 	c #C6C6C6",
"& 	c #91494A",
"* 	c #8A5F0C",
"= 	c #FFE13A",
"- 	c #E5C416",
"; 	c #B79B01",
"> 	c #4D4D4D",
", 	c #76E900",
"' 	c #89E900",
") 	c #9BE900",
"! 	c #AEE900",
"~ 	c #BFE900",
"{ 	c #D2E900",
"] 	c #E2E900",
"^ 	c #F5E900",
"/ 	c #999999",
"( 	c #65D901",
"_ 	c #76D900",
": 	c #89D900",
"< 	c #9BD900",
"[ 	c #AED900",
"} 	c #BFD900",
"| 	c #D2D900",
"1 	c #E2D900",
"2 	c #F5D900",
"3 	c #51C91C",
"4 	c #64C80A",
"5 	c #76C801",
"6 	c #89C800",
"7 	c #9BC800",
"8 	c #AEC800",
"9 	c #BFC800",
"0 	c #D2C800",
"a 	c #E2C800",
"b 	c #F5C800",
"c 	c #40B63F",
"d 	c #56B22D",
"e 	c #66B41C",
"f 	c #76B609",
"g 	c #89B600",
"h 	c #9BB600",
"i 	c #AEB600",
"j 	c #BFB600",
"k 	c #D2B600",
"l 	c #E2B600",
"m 	c #F5B600",
"n 	c #2FA660",
"o 	c #40A450",
"p 	c #4EAD3A",
"q 	c #66A628",
"r 	c #77A617",
"s 	c #88A408",
"t 	c #9BA400",
"u 	c #AEA400",
"v 	c #BFA400",
"w 	c #D2A400",
"x 	c #E2A400",
"y 	c #F5A400",
"z 	c #1E9086",
"A 	c #309272",
"B 	c #409263",
"C 	c #519053",
"D 	c #6C9236",
"E 	c #728F33",
"F 	c #8C9415",
"G 	c #9A900B",
"H 	c #AE9001",
"I 	c #BF9100",
"J 	c #D29100",
"K 	c #E29100",
"L 	c #F59100",
"M 	c #0C83A4",
"N 	c #1B8296",
"O 	c #308082",
"P 	c #3F8272",
"Q 	c #52845D",
"R 	c #667F4E",
"S 	c #76823B",
"T 	c #8B8029",
"U 	c #9C8512",
"V 	c #B08207",
"W 	c #BF8202",
"X 	c #D28200",
"Y 	c #E28200",
"Z 	c #F58200",
"` 	c #FFDC99",
" .	c #EDCF95",
"..	c #0E70B6",
"+.	c #1B70A9",
"@.	c #2E7095",
"#.	c #3E6F86",
"$.	c #537071",
"%.	c #66725C",
"&.	c #746E52",
"*.	c #877338",
"=.	c #987328",
"-.	c #AD6C1A",
";.	c #BF7009",
">.	c #D27001",
",.	c #E27000",
"'.	c #F57000",
").	c #0B5DCC",
"!.	c #1D5FB7",
"~.	c #2E5EA8",
"{.	c #406094",
"].	c #515E85",
"^.	c #675E6E",
"/.	c #76605E",
"(.	c #8A5D4C",
"_.	c #9A6039",
":.	c #AC5F28",
"<.	c #C06014",
"[.	c #D45E06",
"}.	c #E26001",
"|.	c #F56000",
"1.	c #DCB975",
"2.	c #0B50D8",
"3.	c #1A4DCC",
"4.	c #2F4DB7",
"5.	c #3E51A4",
"6.	c #4E5292",
"7.	c #644C83",
"8.	c #75516D",
"9.	c #8A5059",
"0.	c #96524A",
"a.	c #B04B38",
"b.	c #BD4F26",
"c.	c #D05112",
"d.	c #E54E04",
"e.	c #F54E00",
"f.	c #0B39ED",
"g.	c #1A3EDB",
"h.	c #2E3DC7",
"i.	c #3E3ABA",
"j.	c #503EA4",
"k.	c #663C90",
"l.	c #723C84",
"m.	c #8A3A6E",
"n.	c #9C3E58",
"o.	c #AE3C48",
"p.	c #BD3C38",
"q.	c #D43C22",
"r.	c #E43D11",
"s.	c #F33D07",
"t.	c #9D8961",
"u.	c #0B2DF8",
"v.	c #1A2EEA",
"w.	c #2F2CD6",
"x.	c #3E2ACA",
"y.	c #502AB8",
"z.	c #632AA5",
"A.	c #752A93",
"B.	c #882B7E",
"C.	c #9C286D",
"D.	c #AD2B5A",
"E.	c #BD2C48",
"F.	c #D32836",
"G.	c #E22A26",
"H.	c #F22F10",
"I.	c #A78136",
"J.	c #0A1AFF",
"K.	c #1D1AFA",
"L.	c #2F18EC",
"M.	c #4217D9",
"N.	c #5019C9",
"O.	c #6916B3",
"P.	c #761AA1",
"Q.	c #8A1B8C",
"R.	c #9C177E",
"S.	c #AF1B68",
"T.	c #C01B56",
"U.	c #D41448",
"V.	c #E31C32",
"W.	c #F61A22",
"X.	c #0A0AFF",
"Y.	c #1E0AFE",
"Z.	c #2D08FA",
"`.	c #3E0CE9",
" +	c #4E0ED6",
".+	c #630CC3",
"++	c #740FB0",
"@+	c #880AA0",
"#+	c #950C90",
"$+	c #AF0A78",
"%+	c #BE0C68",
"&+	c #CD0E56",
"*+	c #E30C43",
"=+	c #F40C32",
"                                                                ",
"                                                . . +           ",
"                                              . . + + +         ",
"                                            @ # + + + + $       ",
"                                          @ % @ # + + + $ &     ",
"                                        * = @ % @ # $ $ $ &     ",
"                                      * = = = @ % @ # $ & &     ",
"                                    * = = = - - @ % @ # &       ",
"                                  * = = = - - - - @ % @         ",
"                                * = = = - - - - ; ; @           ",
"                              * = = = - - - - ; ; *             ",
"                            * = = = - - - - ; ; *               ",
"                          * = = = - - - - ; ; *                 ",
"                        * = = = - - - - ; ; *                   ",
"                      * = = = - - - - ; ; * > > > > > > >       ",
"                    * = = = - - - - ; ; * , ' ) ! ~ { ] ^ /     ",
"                  * = = = - - - - ; ; * ( _ : < [ } | 1 2 /     ",
"                * = = = - - - - ; ; * 3 4 5 6 7 8 9 0 a b /     ",
"              * = = = - - - - ; ; * c d e f g h i j k l m /     ",
"            * = = = - - - - ; ; * n o p q r s t u v w x y /     ",
"          * = = = - - - - ; ; * z A B C D E F G H I J K L /     ",
"          ; = = - - - - ; ; * M N O P Q R S T U V W X Y Z /     ",
"        ; `  .- - - - ; ; * > ..+.@.#.$.%.&.*.=.-.;.>.,.'./     ",
"        ;  . . .- - ; ; *   > ).!.~.{.].^./.(._.:.<.[.}.|./     ",
"      ; `  .1.1. .; ; *     > 2.3.4.5.6.7.8.9.0.a.b.c.d.e./     ",
"      ;  . .1.1.1. .*       > f.g.h.i.j.k.l.m.n.o.p.q.r.s./     ",
"      t. .1.1.; ; ;         > u.v.w.x.y.z.A.B.C.D.E.F.G.H./     ",
"      t. .1.; I.            > J.K.L.M.N.O.P.Q.R.S.T.U.V.W./     ",
"      t.t.;                 > X.Y.Z.`. +.+++@+#+$+%+&+*+=+/     ",
"                              / / / / / / / / / / / / / /       ",
"                                                                ",
"                                                                "};
