/* XPM */
static const char * plot_hide_xpm[] = {
"32 32 286 2",
"  	c None",
". 	c #4D4D4D",
"+ 	c #0BE842",
"@ 	c #1CE930",
"# 	c #2FEA1C",
"$ 	c #3FEA0E",
"% 	c #50E902",
"& 	c #65E900",
"* 	c #76E900",
"= 	c #89E900",
"- 	c #9BE900",
"; 	c #AEE900",
"> 	c #BFE900",
", 	c #D2E900",
"' 	c #E2E900",
") 	c #F5E900",
"! 	c #999999",
"~ 	c #0BDA50",
"{ 	c #1DD247",
"] 	c #2ED830",
"^ 	c #40D81D",
"/ 	c #55D80C",
"( 	c #65D901",
"_ 	c #76D900",
": 	c #89D900",
"< 	c #9BD900",
"[ 	c #AED900",
"} 	c #BFD900",
"| 	c #D2D900",
"1 	c #E2D900",
"2 	c #F5D900",
"3 	c #08CB63",
"4 	c #1DCE4B",
"5 	c #2AC942",
"6 	c #40C82E",
"7 	c #51C91C",
"8 	c #64C80A",
"9 	c #76C801",
"0 	c #89C800",
"a 	c #9BC800",
"b 	c #AEC800",
"c 	c #BFC800",
"d 	c #D2C800",
"e 	c #E2C800",
"f 	c #F5C800",
"g 	c #0BB376",
"h 	c #22B162",
"i 	c #2EB652",
"j 	c #40B63F",
"k 	c #56B22D",
"l 	c #66B41C",
"m 	c #76B609",
"n 	c #89B600",
"o 	c #9BB600",
"p 	c #AEB600",
"q 	c #BFB600",
"r 	c #D2B600",
"s 	c #E2B600",
"t 	c #F5B600",
"u 	c #FFFFFF",
"v 	c #08A785",
"w 	c #1DAA6E",
"x 	c #2FA660",
"y 	c #40A450",
"z 	c #4EAD3A",
"A 	c #66A628",
"B 	c #77A617",
"C 	c #88A408",
"D 	c #9BA400",
"E 	c #AEA400",
"F 	c #BFA400",
"G 	c #D2A400",
"H 	c #E2A400",
"I 	c #F5A400",
"J 	c #000000",
"K 	c #0D8D9A",
"L 	c #1E9086",
"M 	c #309272",
"N 	c #409263",
"O 	c #519053",
"P 	c #6C9236",
"Q 	c #728F33",
"R 	c #8C9415",
"S 	c #9A900B",
"T 	c #AE9001",
"U 	c #BF9100",
"V 	c #D29100",
"W 	c #E29100",
"X 	c #F59100",
"Y 	c #0C83A4",
"Z 	c #1B8296",
"` 	c #308082",
" .	c #3F8272",
"..	c #52845D",
"+.	c #667F4E",
"@.	c #76823B",
"#.	c #8B8029",
"$.	c #9C8512",
"%.	c #B08207",
"&.	c #BF8202",
"*.	c #D28200",
"=.	c #E28200",
"-.	c #F58200",
";.	c #0E70B6",
">.	c #1B70A9",
",.	c #2E7095",
"'.	c #3E6F86",
").	c #537071",
"!.	c #66725C",
"~.	c #746E52",
"{.	c #877338",
"].	c #987328",
"^.	c #AD6C1A",
"/.	c #BF7009",
"(.	c #D27001",
"_.	c #E27000",
":.	c #F57000",
"<.	c #0B5DCC",
"[.	c #1D5FB7",
"}.	c #2E5EA8",
"|.	c #406094",
"1.	c #515E85",
"2.	c #675E6E",
"3.	c #76605E",
"4.	c #8A5D4C",
"5.	c #9A6039",
"6.	c #AC5F28",
"7.	c #C06014",
"8.	c #D45E06",
"9.	c #E26001",
"0.	c #F56000",
"a.	c #0B50D8",
"b.	c #1A4DCC",
"c.	c #2F4DB7",
"d.	c #3E51A4",
"e.	c #4E5292",
"f.	c #644C83",
"g.	c #75516D",
"h.	c #8A5059",
"i.	c #96524A",
"j.	c #B04B38",
"k.	c #BD4F26",
"l.	c #D05112",
"m.	c #E54E04",
"n.	c #F54E00",
"o.	c #0B39ED",
"p.	c #1A3EDB",
"q.	c #2E3DC7",
"r.	c #3E3ABA",
"s.	c #503EA4",
"t.	c #663C90",
"u.	c #723C84",
"v.	c #8A3A6E",
"w.	c #9C3E58",
"x.	c #AE3C48",
"y.	c #BD3C38",
"z.	c #D43C22",
"A.	c #E43D11",
"B.	c #F33D07",
"C.	c #0B2DF8",
"D.	c #1A2EEA",
"E.	c #2F2CD6",
"F.	c #3E2ACA",
"G.	c #502AB8",
"H.	c #632AA5",
"I.	c #752A93",
"J.	c #882B7E",
"K.	c #9C286D",
"L.	c #AD2B5A",
"M.	c #BD2C48",
"N.	c #D32836",
"O.	c #E22A26",
"P.	c #F22F10",
"Q.	c #0A1AFF",
"R.	c #1D1AFA",
"S.	c #2F18EC",
"T.	c #4217D9",
"U.	c #5019C9",
"V.	c #6916B3",
"W.	c #761AA1",
"X.	c #8A1B8C",
"Y.	c #9C177E",
"Z.	c #AF1B68",
"`.	c #C01B56",
" +	c #D41448",
".+	c #E31C32",
"++	c #F61A22",
"@+	c #0A0AFF",
"#+	c #1E0AFE",
"$+	c #2D08FA",
"%+	c #3E0CE9",
"&+	c #4E0ED6",
"*+	c #630CC3",
"=+	c #740FB0",
"-+	c #880AA0",
";+	c #950C90",
">+	c #AF0A78",
",+	c #BE0C68",
"'+	c #CD0E56",
")+	c #E30C43",
"!+	c #686868",
"~+	c #61BE46",
"{+	c #75BD3E",
"]+	c #9DBD3E",
"^+	c #B1BD3E",
"/+	c #57B458",
"(+	c #6DB445",
"_+	c #7FB53E",
":+	c #93B53E",
"<+	c #A6B53E",
"[+	c #B9B53E",
"}+	c #929292",
"|+	c #4EAF67",
"1+	c #61AB57",
"2+	c #75AB44",
"3+	c #89AB3E",
"4+	c #9DAB3E",
"5+	c #B1AB3E",
"6+	c #C4AB3E",
"7+	c #44A07F",
"8+	c #57A16B",
"9+	c #7FA143",
"0+	c #93A13E",
"a+	c #B9A13E",
"b+	c #4E9B7A",
"c+	c #61986A",
"d+	c #769954",
"e+	c #889843",
"f+	c #9D983E",
"g+	c #B1983E",
"h+	c #C4983E",
"i+	c #458B92",
"j+	c #588E7C",
"k+	c #6A8D6C",
"l+	c #7C8C5A",
"m+	c #928D44",
"n+	c #A68D3E",
"o+	c #B98D3E",
"p+	c #61857C",
"q+	c #768469",
"r+	c #9E8542",
"s+	c #B1853E",
"t+	c #467BA1",
"u+	c #577B8F",
"v+	c #6C7B7C",
"w+	c #7E7A6B",
"x+	c #917D54",
"y+	c #A67B43",
"z+	c #B97B3E",
"A+	c #4E72A2",
"B+	c #61738F",
"C+	c #76727A",
"D+	c #8A7168",
"E+	c #9C7254",
"F+	c #B27242",
"G+	c #C4733E",
"H+	c #446AB4",
"I+	c #5868A2",
"J+	c #7E6A7A",
"K+	c #906B67",
"L+	c #BB6940",
"M+	c #4C60B6",
"N+	c #605EA4",
"O+	c #765F8D",
"P+	c #8A5E7A",
"Q+	c #9D5F66",
"R+	c #B25F51",
"S+	c #C36042",
"T+	c #4457C5",
"U+	c #5856B3",
"V+	c #6A55A3",
"W+	c #7E558E",
"X+	c #93547A",
"Y+	c #A55666",
"Z+	c #B95553",
"`+	c #624BB5",
" @	c #784AA0",
".@	c #9E4D77",
"+@	c #B24966",
"@@	c #4444C9",
"#@	c #5743C7",
"$@	c #6946B3",
"%@	c #7E469E",
"&@	c #8F458D",
"*@	c #A64577",
"=@	c #BA4563",
"                                                                ",
"    . . . . . . . . . . . . . .                                 ",
"  . + @ # $ % & * = - ; > , ' ) !                               ",
"  . ~ { ] ^ / ( _ : < [ } | 1 2 !                               ",
"  . 3 4 5 6 7 8 9 0 a b c d e f !                               ",
"  . g h i j k l m n o p q r s t !                 u             ",
"  . v w x y z A B C D E F G H I !               u u J           ",
"  . K L M N O P Q R S T U V W X !             u u J J           ",
"  . Y Z `  ...+.@.#.$.%.&.*.=.-.!           u u J J             ",
"  . ;.>.,.'.).!.~.{.].^./.(._.:.!         u u J J               ",
"  . <.[.}.|.1.2.3.4.5.6.7.8.9.0.!       u u J J                 ",
"  . a.b.c.d.e.f.g.h.i.j.k.l.m.n.!     u u J J                   ",
"  . o.p.q.r.s.t.u.v.w.x.y.z.A.B.!   u u J J                     ",
"  . C.D.E.F.G.H.I.J.K.L.M.N.O.P.! u u J J                       ",
"  . Q.R.S.T.U.V.W.X.Y.Z.`. +.+++u u J J                         ",
"  . @+#+$+%+&+*+=+-+;+>+,+'+)+u u J J   !+  !+  !+  !+  !+      ",
"    ! ! ! ! ! ! ! ! ! ! ! ! u u J J   ~+  {+      ]+  ^+        ",
"                          u u J J   /+  (+  _+  :+  <+  [+  }+  ",
"                        u u J J   |+  1+  2+  3+  4+  5+  6+    ",
"                      u u J J   7+  8+      9+  0+      a+  }+  ",
"                    u u J J   !+  b+  c+  d+  e+  f+  g+  h+    ",
"                  u u J J       i+  j+  k+  l+  m+  n+  o+  }+  ",
"                u u J J       !+      p+  q+      r+  s+        ",
"              u u J J           t+  u+  v+  w+  x+  y+  z+  }+  ",
"            u u J J           !+  A+  B+  C+  D+  E+  F+  G+    ",
"          u u J J               H+  I+      J+  K+      L+  }+  ",
"            J J               !+  M+  N+  O+  P+  Q+  R+  S+    ",
"                                T+  U+  V+  W+  X+  Y+  Z+  }+  ",
"                              !+      `+   @      .@  +@        ",
"                                @@  #@  $@  %@  &@  *@  =@  }+  ",
"                                  }+  }+  }+  }+  }+  }+  }+    ",
"                                                                "};
