/* XPM */
static const char * plot_var_xpm[] = {
"32 32 229 2",
"  	c None",
". 	c #0BE842",
"+ 	c #1CE930",
"@ 	c #2FEA1C",
"# 	c #3FEA0E",
"$ 	c #50E902",
"% 	c #65E900",
"& 	c #76E900",
"* 	c #89E900",
"= 	c #9BE900",
"- 	c #AEE900",
"; 	c #BFE900",
"> 	c #D2E900",
", 	c #E2E900",
"' 	c #F5E900",
") 	c #0BDA50",
"! 	c #1DD247",
"~ 	c #2ED830",
"{ 	c #FFFFFF",
"] 	c #000000",
"^ 	c #89D900",
"/ 	c #9BD900",
"( 	c #F5D900",
"_ 	c #08CB63",
": 	c #1DCE4B",
"< 	c #2AC942",
"[ 	c #89C800",
"} 	c #9BC800",
"| 	c #F5C800",
"1 	c #0BB376",
"2 	c #22B162",
"3 	c #2EB652",
"4 	c #C0C0C0",
"5 	c #89B600",
"6 	c #9BB600",
"7 	c #F5B600",
"8 	c #08A785",
"9 	c #1DAA6E",
"0 	c #CBE9D7",
"a 	c #77A617",
"b 	c #88A408",
"c 	c #E6E8C0",
"d 	c #E2A400",
"e 	c #F5A400",
"f 	c #0D8D9A",
"g 	c #1E9086",
"h 	c #728F33",
"i 	c #8C9415",
"j 	c #E29100",
"k 	c #F59100",
"l 	c #0C83A4",
"m 	c #1B8296",
"n 	c #76823B",
"o 	c #8B8029",
"p 	c #E28200",
"q 	c #F58200",
"r 	c #0E70B6",
"s 	c #1B70A9",
"t 	c #746E52",
"u 	c #877338",
"v 	c #E27000",
"w 	c #F57000",
"x 	c #0B5DCC",
"y 	c #C7D7ED",
"z 	c #675E6E",
"A 	c #76605E",
"B 	c #E2D6D2",
"C 	c #E26001",
"D 	c #F56000",
"E 	c #0B50D8",
"F 	c #644C83",
"G 	c #75516D",
"H 	c #D05112",
"I 	c #E54E04",
"J 	c #F54E00",
"K 	c #0B39ED",
"L 	c #C6CFF6",
"M 	c #D43C22",
"N 	c #E43D11",
"O 	c #F33D07",
"P 	c #0B2DF8",
"Q 	c #1A2EEA",
"R 	c #E1CADF",
"S 	c #D32836",
"T 	c #E22A26",
"U 	c #F22F10",
"V 	c #0A1AFF",
"W 	c #1D1AFA",
"X 	c #8A1B8C",
"Y 	c #C01B56",
"Z 	c #D41448",
"` 	c #E31C32",
" .	c #F61A22",
"..	c #0A0AFF",
"+.	c #1E0AFE",
"@.	c #2D08FA",
"#.	c #3E0CE9",
"$.	c #4E0ED6",
"%.	c #630CC3",
"&.	c #740FB0",
"*.	c #880AA0",
"=.	c #950C90",
"-.	c #AF0A78",
";.	c #BE0C68",
">.	c #CD0E56",
",.	c #E30C43",
"'.	c #F40C32",
").	c #E93A0B",
"!.	c #E9221D",
"~.	c #EA1C3E",
"{.	c #EA0E47",
"].	c #EA0254",
"^.	c #EA0069",
"/.	c #EA0079",
"(.	c #EA008A",
"_.	c #E80093",
":.	c #EA00AB",
"<.	c #EA00B6",
"[.	c #EA00C6",
"}.	c #E800D5",
"|.	c #F600F3",
"1.	c #DB4B0B",
"2.	c #D9016C",
"3.	c #DA0076",
"4.	c #DA008A",
"5.	c #DA0095",
"6.	c #ED00F6",
"7.	c #CC6008",
"8.	c #F3D0C7",
"9.	c #C80A68",
"0.	c #C90177",
"a.	c #C80084",
"b.	c #F1C0E5",
"c.	c #DA00E2",
"d.	c #E200F6",
"e.	c #B3760B",
"f.	c #B25F22",
"g.	c #B41C67",
"h.	c #B70978",
"i.	c #B60085",
"j.	c #CA00E2",
"k.	c #D000F6",
"l.	c #A88808",
"m.	c #AB6D1D",
"n.	c #A71776",
"o.	c #E8C1DF",
"p.	c #B700D2",
"q.	c #BA00E2",
"r.	c #BF00F6",
"s.	c #7E9B0D",
"t.	c #908C1E",
"u.	c #8F3370",
"v.	c #A300D2",
"w.	c #AA00E2",
"x.	c #AE00F6",
"y.	c #6D971B",
"z.	c #833B73",
"A.	c #9602C0",
"B.	c #9900D2",
"C.	c #9A00E2",
"D.	c #A200F6",
"E.	c #2EB60E",
"F.	c #36A91B",
"G.	c #D2E5CB",
"H.	c #DBD4DC",
"I.	c #8509BF",
"J.	c #8B01D3",
"K.	c #9000E2",
"L.	c #9100F6",
"M.	c #0BCD26",
"N.	c #1DB733",
"O.	c #2EA845",
"P.	c #7328AC",
"Q.	c #7914C0",
"R.	c #7A06D4",
"S.	c #8101E3",
"T.	c #8500F6",
"U.	c #0BD94A",
"V.	c #1ACC61",
"W.	c #2FB779",
"X.	c #6238B0",
"Y.	c #6A26BE",
"Z.	c #7012D0",
"`.	c #7305E3",
" +	c #7900F4",
".+	c #0BED85",
"++	c #1ADC88",
"@+	c #2EC8A2",
"#+	c #3E499C",
"$+	c #473CAE",
"%+	c #5538BE",
"&+	c #5D22D4",
"*+	c #6111E5",
"=+	c #6507F3",
"-+	c #0CF8A7",
";+	c #1BE9B6",
">+	c #2DD5D0",
",+	c #CAF1F0",
"'+	c #285F9C",
")+	c #2B47AD",
"!+	c #2C2FBE",
"~+	c #3C28D4",
"{+	c #4D25E1",
"]+	c #5B10F2",
"^+	c #0BFFCE",
"/+	c #1BF9F2",
"(+	c #19EBE4",
"_+	c #17D9D2",
":+	c #1B868D",
"<+	c #17729D",
"[+	c #1B56AF",
"}+	c #1B3EC1",
"|+	c #142BD4",
"1+	c #2B1DE3",
"2+	c #391AF6",
"3+	c #0BFFF0",
"4+	c #0AFEF5",
"5+	c #08FAF1",
"6+	c #0CEAE7",
"7+	c #0ED6D4",
"8+	c #0CC2C4",
"9+	c #0FABB1",
"0+	c #0A97A0",
"a+	c #0C8796",
"b+	c #0A64B0",
"c+	c #0C53BE",
"d+	c #0E3BCE",
"e+	c #0C21E4",
"f+	c #120CF4",
". . + @ # $ % & * = - ; > , '                                   ",
". . + @ # $ % & * = - ; > , '                                   ",
") ) ! ~ { { { ] ^ / { { { ] (                                   ",
"_ _ : < { { { ] [ } { { { ] |                                   ",
"1 1 2 3 { { 4 ] 5 6 { { 4 ] 7                                   ",
"8 8 9 0 { { ] a b c { { ] d e                                   ",
"f f g { { { ] h i { { { ] j k                                   ",
"l l m { { { ] n o { { { ] p q                                   ",
"r r s { { 4 ] t u { { { ] v w                                   ",
"x x y { { ] z A B { { 4 ] C D                                   ",
"E E { { { ] F G { { { ] H I J                                   ",
"K K L { { { { { { { { ] M N O                                   ",
"P P Q { { { 4 ] R { 4 ] S T U                                   ",
"V V W ] ] ] ] ] X ] ] Y Z `  .                                  ",
"....+.@.#.$.%.&.*.=.-.;.>.,.'.                                  ",
"                                                                ",
"      { { { { {                   ).).!.~.{.].^./.(._.:.<.[.}.|.",
"      { ] ] ] {                   ).).!.~.{.].^./.(._.:.<.[.}.|.",
"      { ] ] ] {       { { {       1.1.{ { { ] 2.3.4.5.{ { 4 ] 6.",
"      { ] ] ] ] {     { ] ] {     7.7.8.{ { ] 9.0.a.b.{ { ] c.d.",
"        { ] ] ] { {   { ] ] ] {   e.e.f.{ { ] g.h.i.{ { 4 ] j.k.",
"        { ] ] ] ] ] { { ] ] ] ] { l.l.m.{ { 4 ] n.o.{ { ] p.q.r.",
"          { ] ] ] ] ] ] ] ] ] ] ] { s.t.{ { { ] u.{ { 4 ] v.w.x.",
"            { ] ] ] ] ] ] ] ] ] ] ] { y.{ { { ] z.{ { ] A.B.C.D.",
"              { { ] ] ] ] ] ] ] ] { E.F.G.{ { ] H.{ 4 ] I.J.K.L.",
"                  { { { ] ] ] ] { M.M.N.O.{ { ] { { ] P.Q.R.S.T.",
"                      { ] ] ] {   U.U.V.W.{ { { { 4 ] X.Y.Z.`. +",
"                      { ] ] {     .+.+++@+{ { { { ] #+$+%+&+*+=+",
"                      { { {       -+-+;+>+,+{ { { ] '+)+!+~+{+]+",
"                                  ^+^+/+(+_+] ] ] :+<+[+}+|+1+2+",
"                                  3+3+4+5+6+7+8+9+0+a+b+c+d+e+f+",
"                                                                "};
