/* XPM */
static const char * redo_xpm[] = {
"16 16 4 1",
" 	c None",
".	c #5D82FB",
"+	c #133CBF",
"@	c #05289A",
"                ",
"                ",
"                ",
"     .....      ",
"   ..+++++.   +.",
"  .+++@@@++. ++.",
" .++@@   @+++++.",
".++@      @++++.",
" @@       +++++.",
"         ++++++.",
"         @@@@@@.",
"                ",
"                ",
"                ",
"                ",
"                "};
