/* XPM */
static const char * resetview_xpm[] = {
"32 32 26 1",
" 	c None",
".	c #020303",
"+	c #024628",
"@	c #068827",
"#	c #C7C8C7",
"$	c #05AE18",
"%	c #BDC7C7",
"&	c #0FC92C",
"*	c #868686",
"=	c #90C9AB",
"-	c #08D819",
";	c #FEFEFE",
">	c #09E61E",
",	c #1AAABF",
"'	c #024B89",
")	c #022E35",
"!	c #778A7F",
"~	c #026823",
"{	c #0C8E8D",
"]	c #74D88A",
"^	c #7ABA92",
"/	c #68E87C",
"(	c #AEBEC2",
"_	c #2AAD6D",
":	c #02292C",
"<	c #04FB0B",
"                                ",
"     ))):               ~@~     ",
"    {+:):)))           {{{@~    ",
"   -{~))))')''        {$$${@~   ",
"  ->>@:))')''''....   $&&&$@~~  ",
"  ><<{)')'''''.;;;*.{&->---$@~+ ",
" >><<& ..*'''.###%.*.>>>>-&${~  ",
"&><<<&.;*....%####%.~<<<<-&${+  ",
"&-<<<<:..*#%.******:><<<>>&$^(. ",
" ><<<</;;;;;;;;;;;;/<<<<>-&##*. ",
" >-<<<>%#####%##%(]<<<<<>_##**. ",
"  +<<<<=#####....)<<<<<>^%#%**. ",
"  ./<<<>%==..%]((<<<<<>=#%##*.. ",
"  ..$<<<&<$!;;/<<<<<<$:........ ",
"  ..:-<<<<&%%/<<<<<<@........#. ",
"  ...+<<<<<..$<<<<<-.........#. ",
"  ...:<<<<<_*<<<<<<>.........#. ",
"  ...~<<<<<&#<<<<<<<~........#. ",
"  ...:@<<<<>;<<<<<$].........#. ",
"  .....%+&<<#<>&_!.#.........#. ",
"  .....#.**;******.#.........#. ",
"  ....~/-<<<*<<>&_~=.........#. ",
"  ....-><<<>!>>>>--&@........#. ",
"  ....@>>>>-!_>----$+.......... ",
"  ....$>>>>&*!--&&$$+.........,{",
"   .+$-&---@..$&$&&$$@+......,,{",
"  ~@@$&$$$$^%%^$$$$$@@@~+):.,,{ ",
"   @@@$$${!:...~!@@@@@@@~+++++  ",
"   ~~@@@{          @@~~~++++++  ",
"     ~~@            ~~+++++++   ",
"      +~             ~++++++    ",
"                       ~++      "};
