/* XPM */
static const char * timelockoff_xpm[] = {
"32 32 40 1",
"2	c None",
".	c #080A10",
"+	c #575762",
"@	c #838395",
"#	c #A9A9B0",
"$	c #BAB6C2",
"%	c #D7D2D0",
"&	c #FE0C0B",
"*	c #FB5453",
"=	c #E56763",
"-	c #FDFEFD",
";	c #FA1E1E",
">	c #3F3F3E",
",	c #FAF9F6",
"'	c #F88E82",
")	c #78737F",
"!	c #F0F0F1",
"~	c #F5BFAC",
"{	c #DBC1A6",
"]	c #8C8E7A",
"^	c #3A4ABA",
"/	c #0A1662",
"(	c #F8B0B0",
"_	c #DADAE5",
":	c #18191F",
"<	c #383848",
"[	c #C0C0B7",
"}	c #5E5D8B",
"|	c #A19EAE",
"1	c #32324E",
"3	c #2C2F2F",
"4	c #42466A",
"5	c #FE3636",
"6	c #B26A5A",
"7	c #666762",
"8	c #C9C9D7",
"9	c #0E1A66",
"0	c #203685",
"a	c #9393A3",
"b	c #FE7272",
"22222222222222222222222222222222",
"222222222222!_$$@|22222222222222",
"22222222222!_|||+.42222222222222",
"2222222222!$a++$|7/+222222222222",
"222222222$$aa222$8)4)22222222222",
"222222222$7a222222$7||2222222222",
"222222222222222222$_7@2222222222",
"222222222222222222$!7@2222222222",
"2222222222222222222_7a2222222222",
"2222222222222222222_)|2222222222",
"2222222222222222222_)|2222222222",
"2222222222222222222_)|2222222222",
"2222222222222222222_)a22%@@]|222",
"222222_8_$8$$88a|$$|@@||8%]|$#22",
"222228!__8_888$|aaaaaa|#@|+@%|22",
"222228!_8_8888$aaaaa|aa#)7>a8|22",
"22222$!___8_888aa|||||a#@@3a|822",
"222228!__8888$$a||@>>>++>3+$_222",
"222228!8888$8$$@@>+]$8%2=67>|222",
"22222$!__88888$a37]#!!{(&'!|7a22",
"22222$!___8888$43a!_,~,=5!{8[7$2",
"222228!_8888$8#.7#2--%~&(!%-,#72",
"22222$!_88888$@:|!!---*&~{,!#2+%",
"22222$!_8888$$@>|2!---b;&;*b(,@8",
"222228____8888@3|82-----!~'**!#8",
"22222$+^0^0000}:$22,-------!_|_$",
"22222|^00000001+<88!,----!#-2#$%",
"22222a^^0000//9+4<[!_$,%[,!2+7#2",
"22222@^^00000009}}:+$!--22|:1|22",
"222222_888$$$$$||@a+::3<:.17|222",
"222222222222222222[a#a))@]#[2222",
"222222222222222222222%[$82222222"};
