/* XPM */
static const char * toollockoff_xpm[] = {
"32 32 33 1",
" 	c None",
".	c #F2F2FA",
"+	c #DADAE6",
"@	c #BAB6C2",
"#	c #86869A",
"$	c #A29EB2",
"%	c #565676",
"&	c #020203",
"*	c #42466A",
"=	c #9292A6",
"-	c #626272",
";	c #0A1662",
">	c #CACAD9",
",	c #7A7686",
"'	c #726B71",
")	c #DADAE5",
"!	c #C9C9D7",
"~	c #FF0000",
"{	c #00FF84",
"]	c #5192CE",
"^	c #7196BE",
"/	c #7E96B6",
"(	c #8994AE",
"_	c #98A0B8",
":	c #8399B6",
"<	c #8AA8C7",
"[	c #3A4ABA",
"}	c #1E3686",
"|	c #060E46",
"1	c #1C1A1E",
"2	c #316BA9",
"3	c #478FC7",
"4	c #2022A8",
"                                ",
"            .+@@#$              ",
"           .+$$$%&*             ",
"          .@=%%@$-;%            ",
"         @@==   @>,*,           ",
"         @'=      @'$$          ",
"                  @+'#          ",
"                  @.'#          ",
"                   +'=          ",
"                   +,$          ",
"                   +,$          ",
"                   +,$          ",
"                   +,=          ",
"      +>+@>@@>>=$@@$##$$        ",
"     >.))!)!~~~~~=====$@$       ",
"     >.)!)!!~!@=~===$==@@       ",
"     @.)))!)~{{]~$$$$$$@$       ",
"     >.))!!!~@{{~=====$@$       ",
"     >.!!!!@~~~~~^==$==@@       ",
"     @.))!!!!!@={{/$==$@$       ",
"     @.)))!!!!>=={{($$$@@       ",
"     >.)!!!!@!@$=={{==$@$       ",
"     @.)!!!!!@@==$_{{==@@       ",
"     @.)!!!!@@>====:{{$@$       ",
"     >+)))!!!!@=====<~~~~~      ",
"     @%[}[}}}}};||&&&~{{1~      ",
"     $[}}}}}}};;;;;;;~2{3~      ",
"     =[[}}}};;;;;;;;;~;;;~      ",
"     #[[}}}}}}}444}4}~~~~~      ",
"      +>>>@@@@@$$$@@@@@$        ",
"                                ",
"                                "};
