/* XPM */
static const char * viewlockoff_xpm[] = {
"32 32 40 1",
":	c None",
".	c #020203",
"+	c #3A3A3A",
"@	c #52525A",
"#	c #7A7686",
"$	c #A2A2A2",
"%	c #CACAD9",
"&	c #0E1016",
"*	c #DADAE6",
"=	c #464646",
"-	c #42424A",
";	c #6E6EFA",
">	c #060E46",
",	c #FEFEFE",
"'	c #42466A",
")	c #323236",
"!	c #7A7A7A",
"~	c #3E3EDA",
"{	c #86869A",
"]	c #3A4ABA",
"^	c #2022A8",
"/	c #F2F2FA",
"(	c #9292A6",
"_	c #3E3EFE",
"<	c #1E3686",
"[	c #9E9E9E",
"}	c #5A5A5A",
"|	c #A6A6B2",
"1	c #CACAF8",
"2	c #262626",
"3	c #626272",
"4	c #EAEAFE",
"5	c #1C1A1E",
"6	c #0E0E0E",
"7	c #BAB6C2",
"8	c #666666",
"9	c #565676",
"0	c #0A1662",
"a	c #A29EB2",
"b	c #726B71",
"::::::::::::::::::::::::::::::::",
"::::::::::::/*77{a::::::::::::::",
":::::::::::/*aaa9.':::::::::::::",
"::::::::::/7(997a309::::::::::::",
":::::::::77((:::7%#'#:::::::::::",
":::::::::7b(::::::7baa::::::::::",
"::::::::::::::::::7*b{::::::::::",
"::::::::::::::::::7/b{::::::::::",
":::::::::::::::::::*b(::::::::::",
":::::::::::::::::::*#a::::::::::",
":::::::::::::::::::*#a::::::::::",
":::::::::::::::::::*#a::::::::::",
":::::::::::::::::::*#(::::::::::",
"::::::*%*7%77%%(a77a{{aa::::::::",
":::::%/**%*%%%7a((((((a7a:::::::",
":::::%/*%*%%%%7(((((a((77:::::::",
":::::7/***%*%%%((aaaaaa7a:::::::",
":::::%/**%%%%77(#-56...62}[:::::",
":::::%/%%%%7%7@.=1~~___;_;=.8:::",
":::::7/**%%%7&!,1;__~~~~__;,!&%:",
":::::7/***%%)$,,;__~^..^~__4,$+:",
":::::%/*%%%%.,,,;__~....~__1,,.:",
":::::7/*%%%%)$,,;__~^..^~_~1,$+:",
":::::7/*%%%%|6!,1___~~~~_~~4!&%:",
":::::%****%%%%@.=;~_____~~=.8:::",
":::::79]<]<<<<<0>>......5}[:::::",
":::::a]<<<<<<<0000000000<:::::::",
":::::(]]<<<<0000000000000:::::::",
":::::{]]<<<<<<<^^^<^<<']3:::::::",
"::::::*%%%77777aaa77777a::::::::",
"::::::::::::::::::::::::::::::::",
"::::::::::::::::::::::::::::::::"};
