/* XPM */
static const char * view_xpm[] = {
"16 13 26 1",
" 	c None",
".	c #020202",
"+	c #414141",
"@	c #C7C7C7",
"#	c #676767",
"$	c #9D9D9D",
"%	c #767676",
"&	c #F3F3F3",
"*	c #363636",
"=	c #7F7F7F",
"-	c #BFBFBF",
";	c #181818",
">	c #4A4A4A",
",	c #DFDFDF",
"'	c #868686",
")	c #525252",
"!	c #8A8A8A",
"~	c #D6D6D6",
"{	c #AEAEAE",
"]	c #8E8E8E",
"^	c #0E0E0E",
"/	c #565656",
"(	c #959595",
"_	c #5E5E5E",
":	c #D0D0D0",
"<	c #EEEEEE",
"      :'%%      ",
" ,$_'$(,:/_(=_]~",
",$%=-(@:@'-#'={_",
"=&&&&&@-@<&&&<->",
"#:---#$$((@-@@];",
"....^:&&{.....^*",
".../(>>/{#....;#",
"..;%#~~$_(....;_",
"..*_$&$$%%....;#",
"..*/$-((==....;#",
"..^%_$(]__.....*",
"_..>(>>_$;....;:",
" (!]]##%]!!!!!~ "};
