/* XPM */
static const char *LCS_xpm[] = {
/* columns rows colors chars-per-pixel */
"32 15 254 2",
"   c green",
".  c #00FF17",
"X  c #35FF00",
"o  c #00FD3D",
"O  c #24FF39",
"+  c #4FFF00",
"@  c #64F900",
"#  c #69FC00",
"$  c #7DF200",
"%  c #7EF20D",
"&  c #7AEF11",
"*  c #44FB34",
"=  c #61FE27",
"-  c #69F12E",
";  c #66F92A",
":  c #7EF424",
">  c #77EC3A",
",  c #67F437",
"<  c #6AF230",
"1  c #61F63F",
"2  c #7CF130",
"3  c #76F33A",
"4  c #03FE43",
"5  c #00FF48",
"6  c #00FF55",
"7  c #00FF5F",
"8  c #26FE49",
"9  c #00FF64",
"0  c #09FF67",
"q  c #00FE6A",
"w  c #0FFF6D",
"e  c #01FF71",
"r  c #0BFF70",
"t  c #01FE7C",
"y  c #36FF63",
"u  c #23FF70",
"i  c #2AFD75",
"p  c #24FE79",
"a  c #7CEE43",
"s  c #7CED4F",
"d  c #68F644",
"f  c #61F946",
"g  c #73F943",
"h  c #7CEC53",
"j  c #7FEF59",
"k  c #71F652",
"l  c #44FB74",
"z  c #50F57E",
"x  c #61F662",
"c  c #6CF469",
"v  c #6EF174",
"b  c #8AEE00",
"n  c #93EB00",
"m  c #9BEA01",
"M  c #8BF100",
"N  c #83FF00",
"B  c #93F300",
"V  c #99F400",
"C  c #80EF1B",
"Z  c #8FEE18",
"A  c #90EC19",
"S  c #86F01E",
"D  c #A4EB00",
"F  c #A7F000",
"G  c #A2EF1E",
"H  c #8FEF2F",
"J  c #8BEF34",
"K  c #A0F73C",
"L  c #C0E300",
"P  c #C9E236",
"I  c #82EF44",
"U  c #85EF4B",
"Y  c #86F041",
"T  c #88ED52",
"R  c #84EA5A",
"E  c #A7EA41",
"W  c #A9E945",
"Q  c #A9E755",
"!  c #B3E751",
"~  c #84EF63",
"^  c #8CEC6D",
"/  c #9BE368",
"(  c #82EF7A",
")  c #98E777",
"_  c #A1E660",
"`  c #A7E76B",
"'  c #AAE96C",
"]  c #BCE269",
"[  c #B1F069",
"{  c #A7E674",
"}  c #A6ED77",
"|  c #A4E57F",
" . c #B4E275",
".. c #B2EF76",
"X. c #BFEE72",
"o. c #B5E77C",
"O. c #D5DC46",
"+. c #DAD549",
"@. c #D5DA4B",
"#. c #CDDD5C",
"$. c #D6D755",
"%. c #C7E151",
"&. c #D6CF68",
"*. c #CEDE66",
"=. c #D3DF6D",
"-. c #CADD7F",
";. c #D0D17E",
":. c #E0D264",
">. c #CCE361",
",. c #C0ED66",
"<. c #CBE16C",
"1. c #D1E367",
"2. c #0002FE",
"3. c #000FFE",
"4. c #001CFE",
"5. c #0023FE",
"6. c #002DFE",
"7. c #0033FE",
"8. c #003EFE",
"9. c #0044FD",
"0. c #004EFD",
"q. c #0053FE",
"w. c #005DFE",
"e. c #0063FE",
"r. c #006EFD",
"t. c #0074FE",
"y. c #0079FD",
"u. c #1BEF8C",
"i. c #00FE82",
"p. c #01FE8C",
"a. c #1DF58D",
"s. c #15FE89",
"d. c #1DEF9A",
"f. c #00F195",
"g. c #00FC94",
"h. c #00F69F",
"j. c #00FD9B",
"k. c #12FE91",
"l. c #1BFD94",
"z. c #15FA9B",
"x. c #1CFB9B",
"c. c #39ED97",
"v. c #24FF95",
"b. c #24FC9D",
"n. c #33F89A",
"m. c #00DCBF",
"M. c #1FDFBD",
"N. c #00FEA2",
"B. c #0EFFA0",
"V. c #00FEAB",
"C. c #16FFA7",
"Z. c #1BF8A5",
"A. c #14FDAD",
"S. c #00EEB4",
"D. c #00E7BD",
"F. c #00F4B0",
"G. c #00FDB9",
"H. c #0CFFB8",
"J. c #1FFFB1",
"K. c #13F7BC",
"L. c #20F6AA",
"P. c #24FDAD",
"I. c #29F9A8",
"U. c #4AF984",
"Y. c #48EA99",
"T. c #43E4B2",
"R. c #0086FF",
"E. c #008CFE",
"W. c #0094FF",
"Q. c #019CFE",
"!. c #00A5FF",
"~. c #00ADFE",
"^. c #00BCF0",
"/. c #00B2FE",
"(. c #00BAFF",
"). c #1BBEF1",
"_. c #1BBDFF",
"`. c #21B0EC",
"'. c #02D3CE",
"]. c #00C8DE",
"[. c #03D4D5",
"{. c #0BD0D4",
"}. c #1CD5DE",
"|. c #2FDEC2",
" X c #21D6D7",
".X c #00E4C4",
"XX c #00EACC",
"oX c #00F5C3",
"OX c #00FFC3",
"+X c #01F1CB",
"@X c #00FFCC",
"#X c #16FBC4",
"$X c #1DFCC2",
"%X c #1AFACD",
"&X c #0DE0DE",
"*X c #00EFDD",
"=X c #0AEBD8",
"-X c #1DECD3",
";X c #12EEDC",
":X c #00F3D3",
">X c #01FAD4",
",X c #00F6D9",
"<X c #00FDDC",
"1X c #1FF1D3",
"2X c #13FFD3",
"3X c #1CF0DC",
"4X c #37E2C2",
"5X c #00DDE1",
"6X c #1AD7ED",
"7X c #00C1FE",
"8X c #00CCFE",
"9X c #00D3F1",
"0X c #08DAF4",
"qX c #00D3FE",
"wX c #00DBFE",
"eX c #1DDCF2",
"rX c #14D6FF",
"tX c #20C5E8",
"yX c #00EEE7",
"uX c #00E3ED",
"iX c #00EAEB",
"pX c #1FE3E2",
"aX c #1BEDE2",
"sX c #1DE4E9",
"dX c #1DEEE9",
"fX c #00F4E3",
"gX c #08F7E2",
"hX c #00F3EE",
"jX c #0BF4EF",
"kX c #02FBEB",
"lX c #1DF8E1",
"zX c #18F1E9",
"xX c #1DFCEE",
"cX c #01EAF7",
"vX c #01E3FE",
"bX c #00EDFF",
"nX c #11E0FF",
"mX c #01F4F3",
"MX c #0BF2F3",
"NX c #00FDF2",
"BX c #00F2FE",
"VX c #12F6F3",
"CX c #1EF4F3",
"ZX c #23E7E2",
"AX c #A1EF8B",
"SX c #B2F484",
"DX c #A9E890",
"FX c #BCD4A6",
"GX c #B5CFB4",
"HX c #B6D4BB",
"JX c #9BEDA3",
"KX c #ADE1AE",
"LX c #C5D78A",
"PX c #C1D1A2",
/* pixels */
"[ SX1.>.PXHXDX} <.:.$.O.+.&.;.-.=.=...AXJXJXKXGXFXLX#.@.*.o.X.,.",
"E K k ].7XoX.   + = U.T.4Xg.c _ D B X   o 4 6 t F.,X*Xx.# q z L ",
"! N './.P.8 p L.XXyXmXvX:Xg G f p i.l.I.P.P.P.b.v.J.VXvXV.8 n.P ",
"W 4 `.0Xj.oXmXbXrX_.zX$Xj.D ; N.2XhX7XqXbXbXbXvXwXuXkXnXdX4 p.%.",
"Q w ).iX>XvXbXvXNX@X,XA.t f D u N.;X8XvX7X!.Q.Q.Q.R.!.8XMXq j.] ",
"_ e 6XmXcXwX~.y.~.yXV.N.l.7 % m 6 j.kXkX7Xe.8.9.e.q.9.!.MXr F. .",
"` q aXbXqX(.e.3.q.~.vXoXp.k.6 n : q #X@XwXW.q.2.8.7.2.W.MXt m.] ",
"{ q %XwX/.Q.w.5.7.y.7XvX*Xs.p.* m O V.H.cX8XE.4.8.8.7.Q.jXi.'.! ",
"| i.C.vXE.t.w.8.9.q.R.vXBX+Xt q m @ j.A.hXBXqXe.6.w.r.~.gXh.[.F ",
"{ S.0 mX/.q.5.2.4.8.q.~.kXhXl.e S $ p.A.fXBXNX8Xw.0.y.(.@X&X.XV ",
"G {.f.B.mX7XE.e.0.q.9.W.fXfXZ.q 3 M t K.oXwX@X<XwX!.!.wXBXeX9 H ",
"V c.^.+XOX<XhXvX8X!.E.8XG.fXz.e d Z 5 =XN.5X9XN.N.OX,X<X>Xu i.^ ",
"U y Y.}.pX3XlXxXCXsX-Xx.$X1Xi i.x A 6 L.ZXb. XtXM.d.a.a.u.|.+XJ ",
"1 t r 7 i.g.j.g.p.t e j.V.9 e N.l b g.p.j.G.p.h.D..X.X.X.XS.e , ",
") - > s I U T T R R R a $ & j v ~ ' c ( Y C h 2 $ $ $ $ $ $ < / "
};
