/* XPM */
static const char *CoordSwap_xpm[] = {
/* width height ncolors chars_per_pixel */
"32 32 199 2",
/* colors */
"   c #000000",
" . c #B1B1B1",
" X c #636396",
" o c #A7A7A7",
" O c #B7B7BA",
" + c #A5A5A5",
" @ c #757597",
" # c #A3A3A3",
" $ c #A1A1A1",
" % c #9F9F9F",
" & c #9D9D9D",
" * c #C1C188",
" = c #999999",
" - c #191982",
" ; c #D2D253",
" : c #939393",
" > c #B68484",
" , c #919191",
" < c #8686A4",
" 1 c #B1B1B7",
" 2 c #E2E227",
" 3 c #C0C094",
" 4 c #898989",
" 5 c #1E1E80",
" 6 c #878787",
" 7 c #BCA4A4",
" 8 c #C8C874",
" 9 c #01017E",
" 0 c #858585",
" q c #818181",
" w c #43438D",
" e c #7F7F7F",
" r c #F0F010",
" t c #7B7B7B",
" y c #68689A",
" u c #777777",
" i c #BABABC",
" p c #737373",
" a c #B8B8BA",
" s c #717171",
" d c #A1A1AA",
" f c #6D6D6D",
" g c #CD6262",
" h c #BCAAAA",
" j c #C75C5C",
" k c #636363",
" l c #616161",
" z c #5F5F5F",
" x c #5B5B5B",
" c c #E3E327",
" v c #B7B79E",
" b c #555555",
" n c #535353",
" m c #00007C",
" M c #4F4F4F",
" N c #76769D",
" B c #A1A1B0",
" V c #4D4D4D",
" C c #8C8CA2",
" Z c #D7D746",
" A c #8383A3",
" S c #AEAEB6",
" D c #0B0B80",
" F c #DF2424",
" G c #434343",
" H c #C7C775",
" J c #3F3F3F",
" K c #00007F",
" L c #B5B5B6",
" P c #393939",
" I c #0E0E7C",
" U c #353535",
" Y c #333333",
" T c #D05A5A",
" R c #313131",
" E c #2D2D2D",
" W c #A4A4AF",
" Q c #BABAB4",
" ! c #C9C966",
" ~ c #292929",
" ^ c #8888A4",
" / c #D8D843",
" ( c #B1B1B5",
" ) c #212121",
" _ c #9393A8",
" ` c #BCBC8E",
" ' c #15157F",
" ] c #171717",
" [ c #C0C095",
" { c #6D6D93",
" } c #C0C0C0",
" | c #BEBEBE",
".  c #EA0303",
".. c #BCBCBC",
".X c #BABABA",
".o c #75759E",
".O c #B8B8B8",
".+ c #BBBBB1",
".@ c #43438E",
".# c #B6B6B6",
".$ c #D9D940",
".% c #B2B2B2",
".& c #9A9AAB",
".* c #8080A2",
".= c #AEAEAE",
".- c #06067D",
".; c #393984",
".: c #ACACAC",
".> c #AAAAAA",
"., c #C46E6E",
".< c #BD9F9F",
".1 c #A6A6A6",
".2 c #A4A4A4",
".3 c #C3C369",
".4 c #FBFB01",
".5 c #BE9696",
".6 c #8585A0",
".7 c #A0A0A0",
".8 c #252584",
".9 c #BC9494",
".0 c #9E9E9E",
".q c #FF0000",
".w c #9C9C9C",
".e c #95959F",
".r c #989898",
".t c #949494",
".y c #909090",
".u c #BEBE9C",
".i c #8E8E8E",
".p c #ACACB2",
".a c #8A8A8A",
".s c #BFBFBE",
".d c #4F4F8F",
".f c #888888",
".g c #00007D",
".h c #5E5E97",
".j c #828282",
".k c #2C2C87",
".l c #808080",
".z c #9B9BAB",
".x c #767676",
".c c #7B7B9C",
".v c #C08A8A",
".b c #000080",
".n c #707070",
".m c #6E6E6E",
".M c #FCFC01",
".N c #C4C480",
".B c #616196",
".V c #626262",
".C c #C86A6A",
".Z c #FAFA02",
".A c #585858",
".S c #3F3F85",
".D c #03037F",
".F c #C6C671",
".G c #4E4E4E",
".H c #FFFF00",
".J c #464646",
".K c #505092",
".L c #4E4E90",
".P c #C2C284",
".I c #343487",
".U c #BABABB",
".Y c #3E3E3E",
".T c #BDBDB4",
".R c #B8B8B9",
".E c #3C3C3C",
".W c #18187C",
".Q c #C38282",
".! c #383838",
".~ c #BDBDA0",
".^ c #E3E323",
"./ c #626296",
".( c #2C2C2C",
".) c #A1A1AC",
"._ c #282828",
".` c #C3C36A",
".' c #555593",
".] c #242424",
".[ c #222222",
".{ c #1E1E1E",
".} c #181882",
".| c #2C2C85",
"X  c #C27D7D",
"X. c #BFBFBF",
"XX c #BDBDBD",
"Xo c #BBBBBB",
"XO c #00007E",
"X+ c #76769F",
"X@ c #B9B9B9",
"X# c #49498A",
"X$ c #B7B7B7",
"X% c #B5B5B5",
"X& c #9D9DAE",
"X* c #B8B8AE",
"X= c #EFEF10",
"X- c #D6D63D",
"X; c None",
/* pixels */
" } } } } } } } } } } } } } } } } } } } } } } }Xo } } } } } } } }",
" } }X. xX. } } } } } } } } } } } } } } } } } } { } } } xXX } } }",
" } } e p } } } } } } } } } } } } } } } } } }X..W ( } } t u } } }",
" } } RX$ } }.s.+ } } } }.<X X X X X  h } } } W K.* } }Xo E } } }",
" } ..( } } }.N Z } } } } g.q.q.q.q.q.Q.).d.L.I.b.8.L.L C Y.> } }",
" }.y.J } }X..^.M 3 } } } g.q.q.q.q.q.Q }.o.D.b.b.b K.'X..G 6 } }",
" }.f V } }.P.H.H c.s } } g.q.q.q.q.q.Q } } < 9.b.b./ } } b.l } }",
" } =.Y }X. 2.H.H.H 8 } } g.q.q.q.q.q.Q } }.z.b.b.bX+ } }.J , } }",
" }X@.] } *.H.H.H.H rX* : g.q.q.q.q.q.Q.i } y D N -.@ } }._X% } }",
" } } G.1 `.F.F.F.F.F v p.5.C.C.C.C.C 7.n }X#X& } S.;X..:.E } } }",
" } } = x } } } } } }X..7 } } } } } } } % } ( } } } O.U k : } } }",
" } } }.lX. } } } } } } } } } } } } } } } } } } } } } } q } } } }",
" } } } } } } } } } } } } e.].].].].].] e } } } } } } } } } } } }",
" } } } } } } } } } } } }.n            .n } } } } } } } } } } } }",
" } } } } } } } } } } } }.n            .n } } } } } } } } } } } }",
" } } } } } } } } } } } }.n            .n } } } } } } } } } } } }",
" } } } } } } } } } } } }.n            .n } } } } } } } } } } } }",
" } } } } } } } } } } } }.n            .n } } } } } } } } } } } }",
" } } } } } } } } }XX.... f             f....XX } } } } } } } } }",
" } } } } } } } } } #.V.[                 ) l # } } } } } } } } }",
" } } }.1 + } } d } } } } $ l )     ) l $ } } } } } } }.r.% } } }",
" } } } J.# } }.S | } } } } } } $.7 } } } } } } } } } } o M } } }",
" } }.r b } } a.-.& } } } } } } Q } } } } } } } } } } } } J.= } }",
" } } n 6 L L.6.b X L L.R } } }X- [ } } }.9 F F F F F., } p f } }",
" } } ~.e 5 m.g.bXO m I _ } }.u.4 c.s } }.v.q.q.q.q.q T }.t G } }",
" } } ] | 1.k.b.b.b.} B } } }.$.H.H H } }.v.q.q.q.q.q T }.2 R } }",
" } }.{.O }.p 9.b.b ^ } } }.~.Z.H.HX=.T }.v.q.q.q.q.q T }.0 P } }",
" } }.Y & } A.b '.b.h }.X } /.H.H.H.H ;.X.v.q.q.q.q.q T }.j.A } }",
" } }.x.m }.K w i.B.| } xXX.3 ! ! ! !.` z >. . . . .  j } n.y } }",
" } }.O.! } @X. } }.cX@.f } } } } } } } 4X. } } } } } }.. UX. } }",
" } } } s.w } } } } } } } } } } } } } } } } } } } } } } 0.a } } }",
" } } } } } } } } } } } } } } } } } } } } } } } } } } } } } } } }"
};
