/* XPM */
static const char * Boundary_xpm[] = {
"32 32 4 1",
" 	c None",
".	c #00FF00",
"+	c #0000FF",
"@	c #FF0000",
"                                ",
"                                ",
"                                ",
"   .....                        ",
"   .  ........                  ",
"   .        .....+++            ",
"   .            .+++++++        ",
"   .            .+   ++++++     ",
"   .            .+      +++++++ ",
"   ..          ..+          +++ ",
"   ..          ..+            + ",
"    .          .++            + ",
"    .          .+             + ",
"    .         ..+            ++ ",
"    .   ........+            ++ ",
"    ......@@@@@@++           +  ",
"    @@@@@@@    @@++          +  ",
"    @@          @@++        ++  ",
"    @@           @@++       +   ",
"     @            @@++     +    ",
"     @             @@++   ++    ",
"     @              @@++  +     ",
"     @               @@++++     ",
"     @@               @@++      ",
"     @@               @@        ",
"      @              @@@        ",
"      @@           @@@          ",
"      @@        @@@@            ",
"      @@      @@@@              ",
"       @@@@@@@@                 ",
"                                ",
"                                "};
