/* XPM */
static const char * RemoveCells_xpm[] = {
"32 32 9 1",
" 	c None",
".	c #7E00AF",
"+	c #000000",
"@	c #001E8C",
"#	c #00459B",
"$	c #7D4893",
"%	c #005BD3",
"&	c #088E39",
"*	c #999999",
"..+@@@@@@@+@@@@@@+@@@@@@+       ",
"...+++++++++++++++++++++++      ",
"...+#######++@@@@@@+#####+      ",
"...+#######+$+@@@@@@+####+      ",
"+..+#######+$$+@@@@@@+###+      ",
".+.+#######+$$+++++++++##+      ",
"..++#######+$$$+%%%%%%+##+      ",
"...+++++++++$$$+%%%%%%++++      ",
"...++&&&&&&&+$$+%%%%%%+&&&+     ",
"...+.+&&&&&&&+$+%%%%%%+&&&&+    ",
"+..+..+&&&&&&&++%%%%%%+&&&&&+   ",
".+.+...+++++++++++++++++++++++  ",
"..++....+%%%%%%+%%%%%%+%%%%%%+  ",
"...+....+%%%%%%+%%%%%%+%%%%%%+  ",
"...++...+%%%%%%+%%%%%%+%%%%%%+* ",
"...+#+..+%%%%%%+%%%%%%+%%%%%%+* ",
"+..+##+.+%%%%%%+%%%%%%+%%%%%%+  ",
".+.+###+++++++++++++++++++++++  ",
"..++#######+$$$+%%%%%%+%%%%%%+  ",
"...+++++++++$$$+%%%%%%+%%%%%%+  ",
"...++&&&&&&&+$$+%%%%%%+%%%%%%+  ",
"...+.+&&&&&&&+$+%%%%%%+%%%%%%+  ",
"+..+..+&&&&&&&++%%%%%%+%%%%%%+  ",
" +.+...+++++++++++++++++++++++  ",
"  ++....+%%%%%%+###+$$+%%%%%%+  ",
"   +....+%%%%%%+###+$$+%%%%%%+  ",
"    +...+%%%%%%+++++$$+%%%%%%+* ",
"     +..+%%%%%%+    +$+%%%%%%+  ",
"      +.+%%%%%%+    *++%%%%%%+  ",
"       +++++++++      ++++++++  ",
"                            *   ",
"                                "};
